<svg xmlns="http://www.w3.org/2000/svg" xmlns:xlink="http://www.w3.org/1999/xlink" viewBox="0 0 2807.64 2800"><defs><style>.cls-1{isolation:isolate;}.cls-2{fill:#f4f7fa;}.cls-3{fill:url(#linear-gradient);}.cls-4{fill:url(#linear-gradient-2);}.cls-5{fill:url(#linear-gradient-3);}.cls-6{fill:url(#linear-gradient-4);}.cls-7{fill:url(#linear-gradient-5);}.cls-10,.cls-24,.cls-31,.cls-8{mix-blend-mode:multiply;}.cls-8{fill:url(#linear-gradient-6);}.cls-9{fill:url(#linear-gradient-7);}.cls-10{fill:url(#linear-gradient-8);}.cls-11{fill:url(#linear-gradient-9);}.cls-12{fill:url(#linear-gradient-10);}.cls-13{fill:url(#linear-gradient-11);}.cls-14{fill:url(#linear-gradient-12);}.cls-15{fill:url(#linear-gradient-13);}.cls-16{fill:url(#linear-gradient-14);}.cls-17{fill:#fff;}.cls-18{fill:url(#linear-gradient-15);}.cls-19{fill:url(#linear-gradient-16);}.cls-20{fill:url(#linear-gradient-17);}.cls-21{fill:url(#linear-gradient-18);}.cls-22{fill:url(#linear-gradient-19);}.cls-23{fill:url(#linear-gradient-20);}.cls-24{fill:url(#linear-gradient-21);}.cls-25{fill:url(#linear-gradient-22);}.cls-26{fill:url(#linear-gradient-23);}.cls-27{fill:url(#linear-gradient-24);}.cls-28{fill:url(#linear-gradient-25);}.cls-29{fill:url(#linear-gradient-26);}.cls-30{fill:url(#linear-gradient-27);}.cls-31{fill:url(#linear-gradient-28);}.cls-32{fill:url(#linear-gradient-29);}.cls-33{fill:url(#linear-gradient-30);}.cls-34{fill:url(#linear-gradient-31);}.cls-35{fill:url(#linear-gradient-32);}.cls-36{fill:url(#linear-gradient-33);}.cls-37{fill:url(#linear-gradient-34);}</style><linearGradient id="linear-gradient" x1="74.74" y1="1448.24" x2="2708.23" y2="1448.24" gradientUnits="userSpaceOnUse"><stop offset="0" stop-color="#7a6fb3"/><stop offset="1" stop-color="#7a6fb3"/></linearGradient><linearGradient id="linear-gradient-2" x1="697.26" y1="704.99" x2="1383.17" y2="704.99" gradientUnits="userSpaceOnUse"><stop offset="0" stop-color="#444b8c"/><stop offset="1" stop-color="#26264f"/></linearGradient><linearGradient id="linear-gradient-3" x1="1667.97" y1="1658.02" x2="1654.23" y2="2310.96" gradientUnits="userSpaceOnUse"><stop offset="0" stop-color="#311944"/><stop offset="1" stop-color="#a03976"/></linearGradient><linearGradient id="linear-gradient-4" x1="2389.52" y1="541.41" x2="2733.42" y2="541.41" xlink:href="#linear-gradient-3"/><linearGradient id="linear-gradient-5" x1="1696.98" y1="1079.97" x2="2065.83" y2="1380.09" gradientUnits="userSpaceOnUse"><stop offset="0.49" stop-color="#ebeff2"/><stop offset="1" stop-color="#fff"/></linearGradient><linearGradient id="linear-gradient-6" x1="1524.86" y1="1476.52" x2="2525.58" y2="1476.52" xlink:href="#linear-gradient-5"/><linearGradient id="linear-gradient-7" x1="1281.38" y1="729.45" x2="1586.08" y2="1153.29" xlink:href="#linear-gradient-5"/><linearGradient id="linear-gradient-8" x1="1076.61" y1="1213.32" x2="1939.41" y2="1213.32" xlink:href="#linear-gradient-5"/><linearGradient id="linear-gradient-9" x1="1449.7" y1="1638.6" x2="1394.72" y2="1118.54" gradientUnits="userSpaceOnUse"><stop offset="0" stop-color="#ffc444"/><stop offset="0.84" stop-color="#f57c53"/><stop offset="1" stop-color="#f36f56"/></linearGradient><linearGradient id="linear-gradient-10" x1="1668.87" y1="1615.43" x2="1613.89" y2="1095.37" xlink:href="#linear-gradient-9"/><linearGradient id="linear-gradient-11" x1="1170.33" y1="854.9" x2="1424.5" y2="854.9" xlink:href="#linear-gradient-3"/><linearGradient id="linear-gradient-12" x1="1225.55" y1="1103.91" x2="1209.52" y2="943.54" xlink:href="#linear-gradient-3"/><linearGradient id="linear-gradient-13" x1="1558.92" y1="1046.69" x2="1403.13" y2="994" xlink:href="#linear-gradient-3"/><linearGradient id="linear-gradient-14" x1="1462.3" y1="599.38" x2="1767" y2="1023.22" xlink:href="#linear-gradient-5"/><linearGradient id="linear-gradient-15" x1="913.33" y1="994.05" x2="1218.03" y2="1417.89" xlink:href="#linear-gradient-5"/><linearGradient id="linear-gradient-16" x1="938.84" y1="475.61" x2="1204.59" y2="661.18" xlink:href="#linear-gradient-3"/><linearGradient id="linear-gradient-17" x1="1474.54" y1="1152.16" x2="1721.59" y2="1152.16" xlink:href="#linear-gradient-9"/><linearGradient id="linear-gradient-18" x1="599.05" y1="2488.65" x2="289.77" y2="1712" gradientUnits="userSpaceOnUse"><stop offset="0" stop-color="#ffc444"/><stop offset="1" stop-color="#f36f56"/></linearGradient><linearGradient id="linear-gradient-19" x1="1723.4" y1="2447" x2="2245.91" y2="2447" xlink:href="#linear-gradient-18"/><linearGradient id="linear-gradient-20" x1="898.9" y1="2045.47" x2="1056.98" y2="2618.23" xlink:href="#linear-gradient-5"/><linearGradient id="linear-gradient-21" x1="266.3" y1="2379.43" x2="1731.63" y2="2379.43" xlink:href="#linear-gradient-5"/><linearGradient id="linear-gradient-22" x1="727.44" y1="1509.1" x2="752.64" y2="1800.06" gradientUnits="userSpaceOnUse"><stop offset="0.06" stop-color="#ebeff2"/><stop offset="0.49" stop-color="#ebeff2"/><stop offset="1" stop-color="#fff"/></linearGradient><linearGradient id="linear-gradient-23" x1="536.98" y1="1522.04" x2="796.08" y2="1522.04" xlink:href="#linear-gradient-18"/><linearGradient id="linear-gradient-24" x1="-100.31" y1="1737.5" x2="279.41" y2="1737.5" xlink:href="#linear-gradient-5"/><linearGradient id="linear-gradient-25" x1="293.04" y1="1546.73" x2="318.24" y2="1837.69" xlink:href="#linear-gradient-5"/><linearGradient id="linear-gradient-26" x1="468.73" y1="1617.7" x2="577.74" y2="1617.7" xlink:href="#linear-gradient-18"/><linearGradient id="linear-gradient-27" x1="697.44" y1="1648.56" x2="807.17" y2="1648.56" xlink:href="#linear-gradient-18"/><linearGradient id="linear-gradient-28" x1="622.35" y1="1834.49" x2="1146.95" y2="1834.49" xlink:href="#linear-gradient-5"/><linearGradient id="linear-gradient-29" x1="1065.35" y1="2032.9" x2="497.18" y2="2415.5" xlink:href="#linear-gradient-9"/><linearGradient id="linear-gradient-30" x1="997.41" y1="2118.27" x2="651.47" y2="2294.68" gradientUnits="userSpaceOnUse"><stop offset="0" stop-color="#ffc444"/><stop offset="0.76" stop-color="#f68352"/><stop offset="1" stop-color="#f36f56"/></linearGradient><linearGradient id="linear-gradient-31" x1="512.79" y1="1971.7" x2="920.62" y2="1971.7" xlink:href="#linear-gradient-18"/><linearGradient id="linear-gradient-32" x1="927.33" y1="1491.79" x2="952.53" y2="1782.75" xlink:href="#linear-gradient-5"/><linearGradient id="linear-gradient-33" x1="-214.99" y1="-922.32" x2="-426.91" y2="-1460.57" gradientTransform="matrix(-1, -0.06, -0.06, 1, 195.82, 2570.55)" gradientUnits="userSpaceOnUse"><stop offset="0" stop-color="#311944"/><stop offset="1" stop-color="#6b3976"/></linearGradient><linearGradient id="linear-gradient-34" x1="716.05" y1="1423.66" x2="413.64" y2="777.59" xlink:href="#linear-gradient-18"/></defs><g class="cls-1"><g id="Layer_2" data-name="Layer 2"><g id="Illustration"><path class="cls-2" d="M684.63,162.72C588.77,296.91,697.2,517.26,556,617.46,418.55,715,252.69,551,123.25,634.84-68.78,759.22-40,1337.88,235,1700.13c82.71,108.93,152.33,151.71,182.07,274.25,63.87,263.11-171.94,416.74-128.74,547,97.26,293.28,1637.78,554.73,2266.19-317,293.49-407.13,343-999,89.35-1451.52C2185.54-64.92,899.72-138.4,684.63,162.72Z"/><path class="cls-3" d="M1862.86,486C1827.52,445.29,2053.71,242.8,2019,192c-46.32-67.82-555.64,138.87-1025.75,489.68-406.49,303.33-892.5,666-917.5,1211.31-10.76,234.56,59.52,596,319.58,752.56,251.34,151.28,556.48,36.81,908.28-101.06,779.4-305.42,1411.58-879.92,1333.94-1017.47-60.3-106.82-529.68,83.38-572.16-15.47-47.72-111.07,554.63-328.67,634-809.26,4-24,43.46-280.83-84.84-370.68-109.28-76.53-304.5-6.82-466.69,51.1C1977.38,443.65,1884.54,511,1862.86,486Z"/><path class="cls-4" d="M1342.53,709.33c8.94-39.19,27.67-62.68,33.22-72.17,32.61-55.75-48.63-211.44-118.56-208.78-36.12,1.38-36.84,43.76-84.11,57.63-64.08,18.79-97.28-48.93-187.95-60.77-110.27-14.39-198.08,67.9-209.63,79-48.61,46.92-96.89,129.89-71,170.68,20.69,32.63,79.14,23.07,84,48.14,3.93,20.3-33.7,30.38-50.76,65.27-24.39,49.89-.65,138.16,64.15,177.55,70.68,43,165,12.42,200.46-36.65,29-40.06,13.2-84.8,55-116.85,22.47-17.23,47.69-20.13,61.85-21.76,65.57-7.55,81.82,33.4,131.74,22.91,42.19-8.86,79.69-48.44,88.2-84.77C1340.74,721.78,1340,720.3,1342.53,709.33Z"/><path class="cls-5" d="M1615.28,1946.51s-12.21,83.11,38.28,386.58c8.85,53.24-17.84,44.65-61.31,73.74s-8.58,17.84,43.59,18.17,91.91,11.35,85.19-41.17S1741.74,1919,1741.74,1919Z"/><path class="cls-6" d="M2389.52,612.71s132.36-63.84,273.21-141.45c0,0,9.61-11.66,15.11-33.75s20.4-94.61,29.5-105.55,21.4,13.92,19.32,71.93,9.87,76.95,6,94.58-34.81,37-50.17,27.58-237.95,227.33-237.95,227.33Z"/><path class="cls-7" d="M1563,1266.05c-20.55,44.51-42.54,107.72-49.83,359.11-7.46,257.38-14.37,495.43,61.86,517.2,22.36,6.38,27-12.94,96.22-37.8,120.13-43.16,181.92-12.17,218.22-53.27,37.18-42.09,12.14-119.63,3.43-149.49-61.34-210.28-26.92-502.2,36.09-637.47,135-289.75,615.35-320.92,596-462.16-4.75-34.73-37.79-62-58.21-158.13a553.24,553.24,0,0,1-12-113.41c-179.48,117.63-432.71,291.11-686.59,493.47C1704.62,1074.81,1619,1144.85,1563,1266.05Z"/><path class="cls-8" d="M2434.2,857.1c-205.62,94.75-294,54.71-398.64,147.77-74.23,66-48.63,102.88-142.62,180.42-85.8,70.78-130,58.87-165.88,113-46.11,69.54-1.65,131.83,14.68,294.18,10.8,107.37,33.75,335.47-84.2,427.84-21,16.45-61.14,40-132.68,41.67,10.08,44.48,25.92,73.39,50.21,80.33,22.36,6.38,27-12.94,96.22-37.8,120.13-43.16,181.92-12.17,218.22-53.27,37.18-42.09,12.14-119.63,3.43-149.49-61.34-210.28-26.92-502.2,36.09-637.47,132.59-284.7,598.65-319.76,596.54-454.87C2499.82,824.51,2469.2,841,2434.2,857.1Z"/><path class="cls-9" d="M1120.15,1154.13c-32.7-28.46-58.26-50.71-60.79-83.78-4.53-59.4,70.42-86,184.08-189.19C1378.17,758.8,1399,681.56,1458.82,689.1c34.8,4.4,62,42.87,116.37,119.81,81,114.64,98.16,187.47,146.4,190,25.79,1.33,28.92-19.07,75.13-33.51,50.51-15.78,128.14-16.84,140.9,10.31,27.86,59.28-278.72,199.62-276.64,376.3.17,14.79,2.71,46.2-17.18,72.17-38.63,50.43-140.67,52.71-158.49,20.35-15.39-28,43-62,31.34-106.27-8.05-30.65-61.61-48.92-168.39-84.19C1209.64,1208.23,1166.82,1194.74,1120.15,1154.13Z"/><path class="cls-10" d="M1918.18,960.7a705.15,705.15,0,0,1-94,54.48c-63.62,30.59-148.51,71.42-252.58,65.29-113.8-6.69-124.08-62.09-203.79-49.1-102.36,16.67-124.53,114.38-206.87,114.4-26,0-54.21-9.76-84.36-34.17,11,14.12,26.22,27.45,43.54,42.53,46.67,40.61,89.49,54.1,228.11,99.89,106.78,35.27,160.34,53.54,168.39,84.19,11.62,44.32-46.73,78.31-31.34,106.27,17.82,32.36,119.86,30.08,158.49-20.35,19.89-26,17.35-57.38,17.18-72.17-2.08-176.68,304.5-317,276.64-376.3C1934.53,969.08,1927.59,964.16,1918.18,960.7Z"/><path class="cls-11" d="M1578.5,1176.7c14.61,102.92-9.9,160.54-33.24,193.53-54.82,77.51-130.75,58.11-220.2,153.56-18.24,19.46-102.1,108.93-73,176.12,15.31,35.39,61,62.46,88.46,51,37.57-15.64,6.15-89,45.8-168.14,48.8-97.34,144.65-82.61,200.8-169,26.06-40.09,48.76-109.94,14.24-236.54Z"/><path class="cls-12" d="M1604.28,1164.67c79.06,135.84,75.09,223.41,56.7,278.36-27.63,82.57-96.41,117.15-95.36,210.48.47,42.63,15.6,105.55,50.68,113.41,31.1,7,75.36-29.88,101.19-93.9a179.39,179.39,0,0,1-24.72-59.89c-18.77-90.3,47-148,56.7-220.79,6.89-51.69-12.12-128.59-133-235.43Z"/><path class="cls-13" d="M1190,753.38l24.76,94.19A63.75,63.75,0,0,1,1202,904.66l-31.67,37.93,254.17,13.82L1316.39,810.27c-9.51,4.18-25.22-.61-30.78-9.38l-23.27-36.69Z"/><path class="cls-14" d="M1190,1003.92s4.69-17.29-7.43-31.54-16.34-64.29-12.37-78.33,53.45-16.41,63.36-14.65,12.15,40.7,11.32,44.14-9.22,2-9.22,2-9.17,55-22.84,75.24Z"/><path class="cls-15" d="M1508,979.1s-9.51,2.06-38.57,0c-18.27-1.3-43.37-8.24-59.48-13.21a26.24,26.24,0,0,0-28.72,9.24c-6.87,9.11-13.9,21.37-13.73,33.21.33,23,32,36.47,52,40.9l5-13.26s39,6,44.94-10.25,39.43-12.65,39.43-12.65Z"/><path class="cls-16" d="M1399.8,748.28c1.76-21.47,8.44-36.37,16-47,74.94-104.56,414.47-36,435.77,70.05,15.1,75.19-125,193.18-346.42,266.73q-4-34.93-8-69.88c157-93.47,189.49-126.4,184.43-137.46-5.51-12-59.56-7.08-103.1,11.46-36.91,15.71-43.38,31.44-63,33.22C1490.4,877.7,1452.91,856.29,1399.8,748.28Z"/><path class="cls-17" d="M1095.72,1011.56c-19.48-3.85-47.37,60.5-53.31,74.64-41.09,97.75-74.64,273.12-3.44,313.87,39.69,22.72,99.86-3.33,132.88-27.49,90-65.84,114.39-217.24,63-382.6l-49.92-1.54c-30.52,116.35-47,147.76-56.44,146.42C1111,1132.36,1121,1016.55,1095.72,1011.56Z"/><path class="cls-18" d="M1128.66,1367.74c-35.35-13.44-44.54-67.7-45-70.77-9.7-61.9,37.57-94,58.76-177.11-5.87,11.41-10.39,15.5-13.91,15-17.54-2.5-7.47-118.31-32.77-123.3-19.48-3.85-47.37,60.5-53.31,74.64-41.09,97.75-74.64,273.12-3.44,313.87,39.69,22.72,99.86-3.33,132.88-27.49a178.11,178.11,0,0,0,17.22-14.44C1166.83,1370.64,1145.54,1374.16,1128.66,1367.74Z"/><path class="cls-19" d="M1298.8,594.35s81.45,64.54,50.23,172.79a36.84,36.84,0,0,1-21.55,23.94c-27.73,11.21-87.28,26.46-147.64-14.56,0,0-40.18-61.43,13.05-53.64S1175.09,626.42,1298.8,594.35Z"/><path class="cls-20" d="M1474.54,1300.24l33.47,25s198.58-227.55,213.58-326.36l-34.84-19.76S1535.53,1262.27,1474.54,1300.24Z"/><path class="cls-21" d="M548.41,2333.55s124.42,12.25,142,24.91-52.59,145.62-59.56,155.09-50.7,16.75-67.89,5.44,22.94-15.9,35-28.42,5.25-73.56,12.06-85.08-128.6,3.53-170.83,8.64,0-80.58,0-80.58Z"/><path class="cls-22" d="M1765.76,2333.55s197.14,66.72,258.34,95.6,119.58,54.4,162,71.36,56.24,33.82,59.67,45.86-49.34,14-68.48,13-110.76,8.64-127.86-15.94-18.91-35.79-18.91-35.79L1723.4,2417Z"/><path class="cls-23" d="M620.28,2065.27c-228.92,47.23-498.11,170.29-490.13,268.43,1.22,15,9.15,32.84,21,46,41.11,45.55,105.45,4.26,171.3,41.2,66.7,37.42,70.37,107.7,101.88,103.88,32.34-3.92,27.23-77.8,89.37-143.37,32.37-34.15,66.82-49,96.43-61.75,235.46-101.44,547.92,13.64,547.92,13.64,294.06,108.31,374.2,284.47,499.59,235.11,122.09-48.06,156.79-169.81,156.79-169.81a266.26,266.26,0,0,0,13.74-63.58c-57.72-20.39-150-53.5-262.92-96.38-338.4-128.52-399-169-542.94-190.57C841.47,2021,698.71,2049.09,620.28,2065.27Z"/><path class="cls-24" d="M1601.4,2448.45c-98.27-77.6-118.78-153-225.09-187.29-87.94-28.36-113.57,10.45-249.15,3.43-176.59-9.14-173.51-77.07-323-82.47-51.85-1.88-43.18,6.62-383.17,91.06-91.44,22.72-155.95,38-154.65,49.83,1.57,14.32,96.94,5.35,221.66,27.5,16.86,3,33.07,6.37,48.68,10,25.28-20,50.82-31,73.52-40.82,235.46-101.44,547.92,13.64,547.92,13.64,294.06,108.31,374.2,284.47,499.59,235.11a252.73,252.73,0,0,0,74-45.06C1676.48,2501.12,1634.11,2474.27,1601.4,2448.45Z"/><path class="cls-25" d="M369.4,1532.6a684.67,684.67,0,0,1,579.11-5.6c14,40.88,30,106.31,15.42,180.88-21,107.51-88,145.28-67.9,195.31,21.86,54.26,109.86,32.5,201.92,122.56,25.16,24.61,55.68,54.47,47.71,76.18-15.74,42.87-154-21-339.81,21.77-133.23,30.66-172.94,89-269.77,67-71.16-16.18-132-66.38-125.72-93.13,7.3-31.32,103.82-18.76,117.13-61.52,6.33-20.32-11-37.37-36-80.16,0,0-10.15-17.43-56.83-132.9C416.74,1778.57,387.73,1690.64,369.4,1532.6Z"/><path class="cls-26" d="M614.68,1363.77S630.57,1465.5,537,1476l146,204.32,113.07-202.07s-79.84-13.19-88.3-87.66Z"/><path class="cls-27" d="M465.63,1515.43c-19-20.44-82.37,10.41-96.23,17.17-172.93,84.21-272.47,336.08-206.18,409,41.49,45.62,142.61,15.23,152.32,12.19,64.29-20.08,98.9-65.57,129.37-105.63,46-60.43,67.29-123.71,77.34-173.13l-49.74-37.56c-95.42,112.46-126.44,142.36-130.59,139.18C331.4,1768.56,503.73,1556.4,465.63,1515.43Z"/><path class="cls-28" d="M230.23,1922.66c-12.24-23.54,40.29-68.48,111.69-146.05-10.52-8,161.81-220.21,123.71-261.18-19-20.44-82.37,10.41-96.23,17.17-172.93,84.21-272.47,336.08-206.18,409,41.49,45.62,142.61,15.23,152.32,12.19a197.37,197.37,0,0,0,68.57-37.64,360,360,0,0,1-54.22,13.42C300.17,1934.47,241.45,1944.24,230.23,1922.66Z"/><path class="cls-29" d="M566.15,1567.59c-19.93-15.46-43.64-18.9-72.85,13.11-15.59,17.08-21.87,43.52-24.33,64.45-3.61,30.66,35.76,46.6,54.59,22.14,9.49-12.33,13.73-27.67,17.85-31,8.59-6.87,0,0,18.25,1.72S586.09,1583.05,566.15,1567.59Z"/><path class="cls-30" d="M807.09,1683.11c-1.64-21.8-7.23-54-25.22-73.66-29.21-32-52.92-28.57-72.85-13.11s-11.75,72.17,6.49,70.45,9.66-8.59,18.25-1.72c6.67,5.33,13.65,42.2,42.66,46.82C793.45,1714.61,808.39,1700.31,807.09,1683.11Z"/><path class="cls-31" d="M1098,2025.75c-92.06-90.06-180.06-68.3-201.92-122.56-20.14-50,46.91-87.8,67.9-195.31,14.56-74.57-1.38-140-15.42-180.88-11.1-5-24.28-10.67-39.32-16.4,28.79,44.23,31.66,77.32,27.25,101.05-14.16,76.17-107.81,82.32-226.81,219.94-47.73,55.2-100.73,118.07-84.2,177,13.53,48.23,62.86,55.31,75.6,104.82,3.84,14.89,3.41,30,.06,45,28.57-12,61.78-24.79,104.76-34.68,185.79-42.77,324.07,21.1,339.81-21.77C1153.63,2080.22,1123.11,2050.36,1098,2025.75Z"/><path class="cls-32" d="M714.78,1991.39c-2.55,13.76,82.85,29.9,170.11,72.17,134,64.91,129,122,211.34,139.18,119.79,25,263-68,257.74-123.72-1.74-18.37-20.44-41.14-89.35-63.57-31.21,51-78.65,109.25-140.89,113.4-22,1.47-34-4.64-151.21-68.73-85.54-46.79-146.7-80.5-223.37-77.32C739.69,1983.19,716.09,1984.31,714.78,1991.39Z"/><path class="cls-33" d="M685.57,1993.11c-6.32,13.27,57.12,45.13,122,101.38,129.33,112.11,122.18,197.83,224.11,232.93,10.17,3.5,89.46,29.85,119.54-6.12,13.72-16.41,16-44.29,5.15-63.58-16.47-29.42-55.72-25.39-104.81-41.24-36.12-11.66-67.61-37.56-130.59-89.35-87.5-72-108.06-110.93-176.22-130.42C725.12,1991.1,690,1983.81,685.57,1993.11Z"/><path class="cls-34" d="M512.79,1997.85s250.06-16.19,383.24-94.66l24.59,27.51s-157.73,134.57-393.13,105.36Z"/><path class="cls-35" d="M859.11,1505.12c17.94-19.44,87.87,9.27,137.47,46.39,132.43,99.13,194.21,313.83,128.87,371.15-55.92,49-208.07-14.39-295.55-97.94a384.94,384.94,0,0,1-77.32-104.82l60.71-43.17C866.52,1709.39,924.1,1739,939.51,1723,967.73,1693.65,828.4,1538.4,859.11,1505.12Z"/><path class="cls-36" d="M807,1273.63c10.07-22.15,27.33-18.66,36.21-39.29,11.14-25.89-2.27-63.33-25.17-83.53-22.42-19.77-37.43-8.47-93.32-22.58-45.11-11.39-45.06-27.72-86.24-33.18-53.22-7.07-117.62,25.83-147.37,80.53-16.47,30.27-18.21,59.65-17.86,76-29.19,51-28,75.84-18.85,88.89,0,0,9.75,13.85,73.23,28.4,0,0,12.49,26.53,21.09,36.46,9.79,11.29,31.79,21,87.06,9.44a341.89,341.89,0,0,1,17.14-42.13c15.49-31.83,23.23-47.76,33.32-48.68,25.42-2.33,36.91,87.35,70.12,89,21.35,1,46.78-34.53,51.82-67S795.59,1298.81,807,1273.63Z"/><path class="cls-37" d="M597.92,1393.31s36.73,69.79,118.62,69.64c73.32-.15,94.36-163.22,49.91-200.92-14.82-12.58-45.68-19.36-71.47-13.86-15.23,3.25-20.69,9.15-45.68,14-23,4.44-29.3,1.52-36.51,6.86-9,6.66-16.41,23.94-5.13,72.71-13-15-29.43-21.46-41.62-16.61a25,25,0,0,0-10.33,8.86C544.32,1352,559.89,1377,597.92,1393.31Z"/></g></g></g></svg>