<svg xmlns="http://www.w3.org/2000/svg" viewBox="0 0 156.69 173.08"><defs><style>.cls-1{isolation:isolate;}.cls-2{fill:#4b1e0a;}.cls-3,.cls-4,.cls-7{fill:#976626;}.cls-13,.cls-4{opacity:0.5;}.cls-12,.cls-4,.cls-6,.cls-9{mix-blend-mode:multiply;}.cls-5,.cls-6{fill:#dfb199;}.cls-7{opacity:0.6;mix-blend-mode:screen;}.cls-8{fill:#ede2d9;}.cls-9{fill:#dfd3c7;opacity:0.7;}.cls-10{fill:#282823;}.cls-11{fill:#907b74;}.cls-13,.cls-14{fill:#fff;}</style></defs><g class="cls-1"><g id="Layer_2" data-name="Layer 2"><g id="Layer_1-2" data-name="Layer 1"><path class="cls-2" d="M138.86,44.18a1.76,1.76,0,0,0-2.12.1c-.62.37-1.65,1-1.76,1.78,0,.35.32.45.54.2A12.85,12.85,0,0,1,136.67,45c.25.17.6.38.4.71a.22.22,0,0,0,0,.27.24.24,0,0,0,.32-.06.94.94,0,0,0,.18-1,.9.9,0,0,0-.27-.42,1.49,1.49,0,0,1,1.32,0C138.82,44.57,139,44.29,138.86,44.18Z"/><path class="cls-2" d="M153.09,30.14a6.94,6.94,0,0,0,3.6-6.09c0-1.68-1.12-3-2.19-4.19a3.42,3.42,0,0,0-1.63-1,4.87,4.87,0,0,0-1.1-6.31,3.9,3.9,0,0,0-2.38-1c1-6.86-7.62-11.22-12.74-7-.56-2.12-2.84-3.55-5.1-4.12a5.82,5.82,0,0,0-6.14,2.7c-1.36-5-10.74-3.84-11.53,1.22-.23-.21-.46-.4-.65-.56a6.44,6.44,0,0,0-4.36-1,5.76,5.76,0,0,0-4,2.65,2.3,2.3,0,0,0-.28,2.09,4.05,4.05,0,0,0-3.49.93,5.24,5.24,0,0,0-1.4,3.13,3.91,3.91,0,0,0,1.22,3.14,6.67,6.67,0,0,0-2.31,4.51c-.2,2.74,1.89,5.72,4.87,5.33q-.16.52-.36,1c-.66,1.67-2.2,2.92-3.38,4.22a12.18,12.18,0,0,0-2.22,3.62,9.55,9.55,0,0,0,.53,7.77c3.15,5.77,9.24,8.62,15.48,9.51a30.05,30.05,0,0,0,10.7-.07c.77-.17,1.53-.39,2.28-.63,1.71,3.62,9.34,2.24,11-1.21,2.77.1,5.81-1.27,6.56-3.81,1.11.61,2.71,0,3.73-.57a8.75,8.75,0,0,0,3.3-4.12,4,4,0,0,0,.11-3c1.4.11,2.68-1.36,3.1-2.57A4.08,4.08,0,0,0,153.09,30.14Z"/><path class="cls-3" d="M132.19,50.94c-1.54.28-3.92.2-5.19-1a54,54,0,0,0,5.94-2.56c.36,1,1.47,1.09,2.49,1a.22.22,0,0,0,.15.22,6.7,6.7,0,0,0,.91.21C135.57,50,133.42,50.71,132.19,50.94Z"/><path class="cls-4" d="M132.19,50.94c-1.54.28-3.92.2-5.19-1a54,54,0,0,0,5.94-2.56c.36,1,1.47,1.09,2.49,1a.22.22,0,0,0,.15.22,6.7,6.7,0,0,0,.91.21C135.57,50,133.42,50.71,132.19,50.94Z"/><path class="cls-5" d="M133.55,47.08l.29-.15a.36.36,0,0,0,.16-.51,5.2,5.2,0,0,1-2,.78l-.61.19a53.57,53.57,0,0,1-5.66,2.29,23.31,23.31,0,0,1-9.58.74,25.09,25.09,0,0,1-8.84-2.1,22.75,22.75,0,0,1-7.09-5.85,10,10,0,0,1-2-8.8c.72-2.82,3.43-4.25,4.85-6.6,1.28-2.12,1.44-4.63,2.58-6.82a4.61,4.61,0,0,0,4.15-.18c-.17,1,.28,2,1.76,2.69a9.56,9.56,0,0,0,8.44-.32c0,1.88,2,2.94,3.66,3.28a5.47,5.47,0,0,0,3.79-.49,5.24,5.24,0,0,0-.24,4.5c.93,1.95,3.3,3.74,5.51,2.81a6,6,0,0,0-.53,4.07c.69,2.91,1.84,5.2,4.68,6.32a.11.11,0,0,0,.06.09l0,0c.65-.77,1.37-1.85,2.52-1.81a1.33,1.33,0,0,1,.83.28h0c1.88.58-.05,3.39-.67,4.1C138.27,47.09,135.38,48.36,133.55,47.08Z"/><path class="cls-6" d="M139.29,45.13a3,3,0,0,0,.29-.53,3.29,3.29,0,0,0,.15-2.18c-.61-.57-1.46-.35-2.23-.12l-.58.7,0,0a.11.11,0,0,1-.06-.09c-2.84-1.12-4-3.41-4.68-6.32a6,6,0,0,1,.53-4.07c-2.21.93-4.58-.86-5.51-2.81a5.24,5.24,0,0,1,.24-4.5,5.47,5.47,0,0,1-3.79.49c-1.65-.34-3.7-1.4-3.66-3.28a9.56,9.56,0,0,1-8.44.32c-1.48-.69-1.93-1.69-1.76-2.69a4.61,4.61,0,0,1-4.15.18,13.42,13.42,0,0,0-.86,2.17,3.86,3.86,0,0,0,3.4,1.26.45.45,0,0,1,.45-.05.41.41,0,0,1,.33.45c1.67,3.52,6.16,3.22,9,1.31a.53.53,0,0,1,.21-.11.37.37,0,0,1,.48.42c.58,2,3,2.45,4.68,1.47a.36.36,0,0,1,.33-.2c.37-.14.67.41.33.69-.79,3.4,1.91,5.42,5,5.51a.16.16,0,0,1,.15,0,.37.37,0,0,1,.33.41,11.79,11.79,0,0,1,1.76,7.54,9.63,9.63,0,0,1-4.41,7.1c-2.85,1.62-6.33,1.73-9.52,2l-1.26.13h.08a23.31,23.31,0,0,0,9.58-.74,53.57,53.57,0,0,0,5.66-2.29l.61-.19a5.2,5.2,0,0,0,2-.78.36.36,0,0,1-.16.51l-.29.15a2.49,2.49,0,0,0,.51.27,5.86,5.86,0,0,0,3.72-.77,11.35,11.35,0,0,0,1.15-1C139,45.43,139.15,45.3,139.29,45.13Z"/><path class="cls-6" d="M111.41,47.8a7.15,7.15,0,0,1-3.65-1.41c.71,2.22,4.18,2.89,5.76,1.31A5.57,5.57,0,0,1,111.41,47.8Z"/><path class="cls-6" d="M109.32,46.16c1.33,1.15,1.51-.58.89-1.12l-.18-.17a1.85,1.85,0,0,1-.31-.44,0,0,0,0,0,0,0c-1.11-1.39-2.38-3.33-4.27-3.37a9.3,9.3,0,0,1,2.67,2.81A8.26,8.26,0,0,0,109.32,46.16Z"/><path class="cls-6" d="M103.9,33a2.47,2.47,0,0,0-.41,2.31c.42,1,1.45,2.08,2.61,1.41A4.6,4.6,0,0,1,103.9,33Z"/><path class="cls-6" d="M105.79,30.35a4.5,4.5,0,0,0,1.14-2.6c.06-.91-.49-3-1.93-2a.18.18,0,0,1-.24,0,3.26,3.26,0,0,0-1.09,2,4.52,4.52,0,0,0,0,1.72,2.8,2.8,0,0,0,.28.89C104.71,30.93,105.32,30.92,105.79,30.35Z"/><path class="cls-6" d="M119,30.7a.16.16,0,0,1-.2.06c-.74,1.1-1.34,2.7-.73,3.59,1.07,1.53,2.77-.67,3.09-1.72a2.89,2.89,0,0,0,0-2.34C120.42,29.22,119.5,30.07,119,30.7Z"/><path class="cls-3" d="M153.54,34.29c-.35,1.52-1.42,1.9-2.71,2.33-.22-.37-.59-.88-1-.9a5.42,5.42,0,0,1,.49,2.65,1,1,0,0,0,0,.16A3.93,3.93,0,0,1,150,40a5.56,5.56,0,0,1-.95,1.8,6.34,6.34,0,0,1-4.84,2.47l0,0a5.54,5.54,0,0,0,0-.91.21.21,0,0,0-.22-.21,6.73,6.73,0,0,1-.78,1.62A5.25,5.25,0,0,1,140.92,47a7.51,7.51,0,0,1-3.07.76,7.71,7.71,0,0,0,3.45-3.26c.71-1.25.82-3-.67-3.7a2.65,2.65,0,0,0-2.35.21.34.34,0,0,0-.23.09l-.33.32,0,0a4.53,4.53,0,0,0-.5.57,3.37,3.37,0,0,0-.19.32,8.69,8.69,0,0,1-3.7-8.16,6,6,0,0,1,.29-2.1,8.13,8.13,0,0,1,.72-1.72,6.08,6.08,0,0,1,.75-.86.34.34,0,0,0-.12.06,11.56,11.56,0,0,0-1.86,2.31.34.34,0,0,0-.18-.09c-.74-.15-1.42,0-2.17-.26a4.71,4.71,0,0,1-2.2-1.59,5,5,0,0,1-.26-5.23,6.65,6.65,0,0,0,1.47-1.74.37.37,0,0,0,0-.33,7.5,7.5,0,0,1-1.49,1.25,4.52,4.52,0,0,1-3.54.87h-.29a4.23,4.23,0,0,1-4-2.53A10.2,10.2,0,0,0,122,21.07a.31.31,0,0,0,.1-.13,13.33,13.33,0,0,1-8.64,1.58,3.43,3.43,0,0,1-2.61-1.86,1.64,1.64,0,0,1,0-1.64A4.1,4.1,0,0,1,112,17.2a5.11,5.11,0,0,0-2,2.14h-.07a4.91,4.91,0,0,1-4,.3s0,0,0,0l-.17-.07a.27.27,0,0,1-.16-.08l-.06-.06s0,0,0,0l0,0a3.26,3.26,0,0,1-.76-.73c-1.12-1.43,0-3.2,1.4-4.09a6.3,6.3,0,0,0-1.74,1.16,3.48,3.48,0,0,0-.6,2.35A3.17,3.17,0,0,0,105.2,20a18.74,18.74,0,0,0-1.47,3.91c-1.9-.56-3.77-1.22-4-3.55a5.41,5.41,0,0,1,.11-1.84,5.35,5.35,0,0,1,3.5-4.56,3.63,3.63,0,0,0-1.76.46,4.85,4.85,0,0,1-1.1-2.49,4.5,4.5,0,0,1,1.26-3,3.48,3.48,0,0,1,3.23-.64,4.67,4.67,0,0,1,1.64.34.1.1,0,0,0,0-.08,4.18,4.18,0,0,0-1.16-.7.35.35,0,0,0,.05-.26c-.55-2.63,3.14-4,5.07-3.9a5,5,0,0,1,4.09,2.26c0-.28,0-.55,0-.83a3.73,3.73,0,0,0-.32-.36A6.26,6.26,0,0,1,119.26,1,5.57,5.57,0,0,1,125,4.15,8.75,8.75,0,0,1,126,3.23a6,6,0,0,1,5.74-1.58,5.45,5.45,0,0,1,3,1.92,5.52,5.52,0,0,1,1.71,2.2c.08.2.15.39.21.59a4.08,4.08,0,0,0,.05-1,8.83,8.83,0,0,1,7.14-.93c1.2.3,2.6,1.82,3.37,2.69a6.12,6.12,0,0,1,1.5,4.52A6.57,6.57,0,0,0,145.42,13a6.42,6.42,0,0,1,1.59-.56,3.92,3.92,0,0,1,2.52.23,4.29,4.29,0,0,1,1.21.53,4.09,4.09,0,0,1,1.13,5.59A8.79,8.79,0,0,0,150,19a.27.27,0,0,0-.1.06,4.52,4.52,0,0,1,3,1,6,6,0,0,1,2.7,3.92c.34,1.2-.67,3.1-1.31,4a3.87,3.87,0,0,1-.54.61,9.24,9.24,0,0,1-3.51,2.64.29.29,0,0,0,.3.05,10.64,10.64,0,0,0,2.14-.9A4.1,4.1,0,0,1,153.54,34.29Z"/><path class="cls-7" d="M133.07,31.83a11.56,11.56,0,0,1,1.86-2.31.34.34,0,0,1,.12-.06,6.08,6.08,0,0,0-.75.86,8.13,8.13,0,0,0-.72,1.72,6,6,0,0,0-.29,2.1,8.93,8.93,0,0,0,1.35,5.76,22.44,22.44,0,0,0,.37-2.82c.14-1.26.59-4.68,2.7-3.63,1.43.71,2,2.44,3.22,3.4a1.74,1.74,0,0,0,2.75-1.31,8.78,8.78,0,0,0-.66-4c-.2-.68-1.17-3.82.35-3.77,1.21,0,2.38,2.15,3,3s2.2,1.92,3.34,1.25a1.71,1.71,0,0,0,.69-.73.22.22,0,0,1-.2-.07l.28-.15a4.58,4.58,0,0,0-.25-2.52,5.7,5.7,0,0,1-.39-3c.14-.46.52-1.23,1.12-1.19s1.08.67,1.4,1.21c.47.8,1.21,1.95,2.13,2,.62-1,1.37-2.61,1.07-3.67a8.8,8.8,0,0,0-.92-2.17,4.63,4.63,0,0,1-1.15,1.87c-1.16,1-2.34-.91-3-1.64a17.77,17.77,0,0,0-2.08-2.08c-.11-.09-.78-.65-.91-.37a3,3,0,0,0,.1,1.74,11.6,11.6,0,0,1,.5,4.49c-.16.82-.74,2.39-1.8,2.39s-1.57-1.68-1.85-2.34a8.24,8.24,0,0,0-2-3.27c-.78-.66-3-1.7-3.07.12a11.33,11.33,0,0,0,.15,1.93c.23,1.63.55,3.26.63,4.9,0,.81.18,2.45-.7,2.94s-2.13-.47-2.68-1.23c-1.08-1.46-1.88-4-3.6-4.86-2.6-1.26-3,2.35-2.81,4,0,.35.1.69.17,1l.21.08c.75.21,1.43.11,2.17.26A.34.34,0,0,1,133.07,31.83Z"/><path class="cls-4" d="M150.32,37.43c-.64,1.73-3.27,2.76-5,2.59a6.17,6.17,0,0,1-2.71-1,7.39,7.39,0,0,1-6.38-1.17,6.6,6.6,0,0,1-2.47-6.35c0-.12.05-.23.08-.35-.1.27-.2.55-.29.84a6,6,0,0,0-.29,2.1A8.69,8.69,0,0,0,137,42.3a3.37,3.37,0,0,1,.19-.32,4.53,4.53,0,0,1,.5-.57l0,0,.33-.32a.34.34,0,0,1,.23-.09,2.65,2.65,0,0,1,2.35-.21c1.49.66,1.38,2.45.67,3.7a7.71,7.71,0,0,1-3.45,3.26,7.51,7.51,0,0,0,3.07-.76,5.25,5.25,0,0,0,2.28-2.21,6.73,6.73,0,0,0,.78-1.62.21.21,0,0,1,.22.21,5.54,5.54,0,0,1,0,.91l0,0a6.34,6.34,0,0,0,4.84-2.47A5.56,5.56,0,0,0,150,40a3.93,3.93,0,0,0,.29-1.43,1,1,0,0,1,0-.16A5,5,0,0,0,150.32,37.43Z"/><path class="cls-2" d="M133.31,65.18a38.87,38.87,0,0,0-3.91-6.37c-2.29-3-5.69-6.57-9.22-8.1a2.57,2.57,0,0,0-2.3,0c-.93-.12-1.87-.2-2.81-.33-.79-.1-1.74-.07-2.59-.18v0a2.69,2.69,0,0,0-.62-.22c-1-.73-2.42-.79-3.59-1.28-.76-.31-1.49-.65-2.22-1a3,3,0,0,0-.72-.45c-.43-.27-.84-.57-1.26-.87a5,5,0,0,0-1-.55,4.84,4.84,0,0,1-1.2-.9.21.21,0,0,0-.13-.13l-.06,0a.13.13,0,0,0-.07,0,17.8,17.8,0,0,1-3.87-6.9,12.59,12.59,0,0,0-3.15-5.7,23.36,23.36,0,0,0-6.1-4.27c-.74-.38-1.54-.8-2.38-1.19a20.43,20.43,0,0,0-2.39-.61,23.85,23.85,0,0,1-4.37-.8l0,0c-2.33,2-3.37,5.23-4.16,8.12-.28,1-1.79,5.34.29,5.54a9.05,9.05,0,0,0,2.89,1,8.31,8.31,0,0,0,3,.34,22.81,22.81,0,0,0,6.75.14,3.21,3.21,0,0,0-.17,1.5c.08.4.62.31.8.06l.13-.19a11.52,11.52,0,0,0,.12,3c.2,1.34.38,3.14,1.28,4.29a22.65,22.65,0,0,0-6.9,7.45,10.54,10.54,0,0,0-1.24,3.52,3.24,3.24,0,0,0-1.07.53c-1.42-1.4-2.77-4-4.8-4.54a.75.75,0,0,0-.45,0c-1.94-3.22-5-6-7.56-8.73-3.3-3.51-6.78-6.86-10.2-10.26C51.11,30.23,42.88,25,34.59,19.94a.18.18,0,0,0-.17,0l-.09-.08c-.22-.17-.47.05-.54.26-.22.64-.71,1.09-.94,1.79-.41,1.25-.64,2.57-.94,3.85a38.89,38.89,0,0,0-1.22,8c0,1.37.09,2.74.19,4.11.07,1.05-.13,2.91.28,3.85.77,1.74,3,2.85,4.53,3.83,5.24,3.38,9.9,7.66,14.92,11.35l2.66,2a.34.34,0,0,0,0,.16c.17.94,0,2.58.62,3.42s1.77,1.21,2.75,1.72a62.22,62.22,0,0,1,9.62,6.26A67.74,67.74,0,0,1,77.08,80.58,24.53,24.53,0,0,1,82.88,90l.36.84a.22.22,0,0,0,0,.16c.87,2.81,1.64,5.67,2.34,8.55a133,133,0,0,1,.5,28.07A125.28,125.28,0,0,1,83.76,142c-.28,1.38.68,2.33,1.27,3.53a13,13,0,0,0,3.35,4.05l.05,0a7.94,7.94,0,0,0,.75.68,1.09,1.09,0,0,0,1.4-.12c2.31-1.81,3.71-5.3,4.93-7.86,2.83-6,5.85-12.46,6.85-19.12a27.26,27.26,0,0,0,1-4.38,2.16,2.16,0,0,0-.54-1.81c-.87-.87,2.12-3.21,2.64-3.79a2.37,2.37,0,0,0,.4-.64s0,0,0,0c.17-1.27-.68-2.21-1-3.34h0v0a2,2,0,0,1,0-.26,4.07,4.07,0,0,1,1.13-2.75c2.32-6.38,4.81-13,5.55-19.72a23.62,23.62,0,0,0,1.35-2.65c1-2.29-1.73-3.43-3.68-4a5.81,5.81,0,0,0,.43-1,.34.34,0,0,0,0-.22A9,9,0,0,0,111,76.06c.49-1.44.74-3,1.14-4.43.35-1.3.91-2.59,1.19-3.91l1-.82c1.74-1.44,3.75-2.64,5.41-4.17a44.21,44.21,0,0,1,4.36,5.12,3.71,3.71,0,0,0-.59.66.42.42,0,0,0-.07.37c-.79.42-1.54.86-2.21,1.25a27.2,27.2,0,0,0-4,3,18.81,18.81,0,0,0-3,2.72.52.52,0,0,0,0,.61c-.58,1.78,3.25,3.85,4.33,4.56,1.53,1,4.74,3.07,6.67,2.09l.06,0c.54.06,1-.46,1.49-1.12,3.11-3.42,6.09-7.45,7.62-11.84C135.05,68.06,134.21,67,133.31,65.18Z"/><path class="cls-8" d="M112.3,50.76a17.87,17.87,0,0,0,4.68.67,2.91,2.91,0,0,0-.3.31,29.21,29.21,0,0,1-4.23,2c-2.08.86-4.12,1.82-6.16,2.75S102,58.39,99.9,59.33a37.89,37.89,0,0,0-3.83,1.76c.55-1.21,1.15-2.45,1.82-3.67.4-.31.8-.65,1.2-1a38.77,38.77,0,0,1,4.69-2.88,29.15,29.15,0,0,1,4.85-2.05C109.85,51.15,111.13,51.24,112.3,50.76Z"/><path class="cls-5" d="M105.57,48.39a.57.57,0,0,0,.18,0,12.07,12.07,0,0,0,3.59,1.7,22.91,22.91,0,0,0-5.15,2.2,30.94,30.94,0,0,0-5.74,4.15A23.07,23.07,0,0,1,105.57,48.39Z"/><path class="cls-6" d="M105.57,51.23l.2.21a16.93,16.93,0,0,1,3.57-1.38,12.07,12.07,0,0,1-3.59-1.7.57.57,0,0,1-.18,0c-.25.16-.49.33-.73.5A3,3,0,0,0,105.57,51.23Z"/><path class="cls-6" d="M100.84,53.23a.8.8,0,0,1-.06-.3,34,34,0,0,0-2.33,3.48c1.06-.9,2.09-1.77,3.21-2.57A1,1,0,0,1,100.84,53.23Z"/><path class="cls-8" d="M101.6,45.37a2.66,2.66,0,0,0,.57.92c.46.4,1,.68,1.48,1.06a9,9,0,0,0,1.07.8,18.17,18.17,0,0,0-5.11,5,45.56,45.56,0,0,0-5.25,9.3A34.84,34.84,0,0,0,91.48,74a10.12,10.12,0,0,1-.75-1.47,15.23,15.23,0,0,1-1-3.53A46.67,46.67,0,0,1,91.2,61.1a31.9,31.9,0,0,1,4.48-9.69,24.76,24.76,0,0,1,5.9-6Z"/><path class="cls-9" d="M105.18,53.87a27,27,0,0,1,10.72-1.69c.27-.14.53-.28.78-.44a2.91,2.91,0,0,1,.3-.31,17.87,17.87,0,0,1-4.68-.67c-1.17.48-2.45.39-3.67.78a29.15,29.15,0,0,0-4.85,2.05,38.77,38.77,0,0,0-4.69,2.88c-.4.3-.8.64-1.2,1-.67,1.22-1.27,2.46-1.82,3.67.49-.28,1-.53,1.53-.77A15.14,15.14,0,0,1,105.18,53.87Z"/><path class="cls-9" d="M91.28,64.06a46.72,46.72,0,0,1,4-9.41c1.66-2.75,5-7.91,8.78-6.08.22-.15.45-.29.68-.42a9,9,0,0,1-1.07-.8c-.47-.38-1-.66-1.48-1.06a2.66,2.66,0,0,1-.57-.92h0a24.76,24.76,0,0,0-5.9,6A31.9,31.9,0,0,0,91.2,61.1,46.67,46.67,0,0,0,89.78,69a15.23,15.23,0,0,0,1,3.53A10.12,10.12,0,0,0,91.48,74c0-.2,0-.39,0-.58C90.87,70.27,90.24,67.28,91.28,64.06Z"/><path class="cls-10" d="M104.2,89.39c.25.54.53,1.06.8,1.6.45.9.76,1.9,1.14,2.83.21.51-.66,2.58-1.07,1.13a21.89,21.89,0,0,0-3.61-6.81,60.66,60.66,0,0,0-5.84-6.57c-1.14-1.18-2.43-2.18-3.51-3.41a15.94,15.94,0,0,1-2.35-4.81.1.1,0,0,0-.05-.07c-.08-.48-.16-1-.22-1.47l.21.8a13.43,13.43,0,0,0,1,2.22c.48.64,1,1.25,1.48,1.88A18.22,18.22,0,0,1,95,79.12a11.76,11.76,0,0,0,1.14.64C99.43,82.49,101.76,86,104.2,89.39Z"/><path class="cls-10" d="M98.56,80.78a12.3,12.3,0,0,0,7.76.26,8.34,8.34,0,0,0,1.09-.48A6.44,6.44,0,0,1,104,82.1a12.1,12.1,0,0,1-3.89.15C99.63,81.74,99.11,81.24,98.56,80.78Z"/><path class="cls-8" d="M100.92,91.85c.15-.16.21-.39,0-.52-5.74-3.61-9-8.91-10.6-15.11a11.39,11.39,0,0,0,1.22,2.38,27.6,27.6,0,0,0,3.59,3.58A46.62,46.62,0,0,1,103,91.94a.34.34,0,0,0-.12.09c-.19.29-.77.32-1.09.4s-.79.17-1.19.23a5.62,5.62,0,0,0,.25-.56A.54.54,0,0,0,100.92,91.85Z"/><path class="cls-10" d="M89.28,82.52a18.63,18.63,0,0,1-.81-7.38,8.66,8.66,0,0,1,.75-3.32A24,24,0,0,0,92,83.89c1.63,3,4.65,6.77,8,8a10.71,10.71,0,0,0-1.9,3.82A27.09,27.09,0,0,1,89.28,82.52Z"/><path class="cls-8" d="M89.88,87.15c-.62-.51-1.26-1-1.86-1.55-1.22-1.08-.47-2.93-.07-4.44A18.22,18.22,0,0,0,89.88,87.15Z"/><path class="cls-11" d="M75.27,37.37c-.21-1.69.62-3.82,1.1-5.4a17.4,17.4,0,0,1,3.26-6.12c.86,1.49-.49,5.14-.9,6.63a17.66,17.66,0,0,1-1.47,3.33C77.17,36,75.4,38.5,75.27,37.37Z"/><path class="cls-8" d="M85.32,55.11a24.38,24.38,0,0,1,6-5.77c2.55-1.79,5.47-2.66,8.15-4.16.18-.11.22-.53-.06-.43a34.8,34.8,0,0,0-8.27,3.83,15.09,15.09,0,0,1-1.44-7.88,5.51,5.51,0,0,1,.57-.62,9.93,9.93,0,0,1,2.38-2.17A4.62,4.62,0,0,0,90.15,39a4.86,4.86,0,0,0-.6.52,12.49,12.49,0,0,1,2.1-3.61,10,10,0,0,0-1.87,1.29c-.2.29-.39.59-.57.91s-.45.8-.67,1.27a98.44,98.44,0,0,1-11.9-1c1.28-1.25,2.34-4.18,2.66-5a17.72,17.72,0,0,0,1-4.83c.07-.89.39-2-.09-2.74l.21,0h.06c5.22,1.45,10.39,3,14.08,7.29,1.8,2.07,2.22,4.67,3.08,7.17A11,11,0,0,0,101.12,45c-5.37,2.38-8.53,9.34-10.33,14.48A40.09,40.09,0,0,0,88.92,70a10.86,10.86,0,0,1-5.23-5C81.86,61.64,83.28,58.06,85.32,55.11Z"/><path class="cls-9" d="M91,36.9s0-.08,0-.12a13,13,0,0,0-1.43,2.74,4.86,4.86,0,0,1,.6-.52A5.73,5.73,0,0,1,92,38,1,1,0,0,1,91,36.9Z"/><path class="cls-9" d="M83.55,37c-2.29-.88-3.21-2.65-3.86-4.73-.12.4-.24.78-.39,1.16-.32.82-1.38,3.75-2.66,5a98.44,98.44,0,0,0,11.9,1c.22-.47.47-.92.67-1.27s.37-.62.57-.91l.17-.14A10.65,10.65,0,0,1,83.55,37Z"/><path class="cls-9" d="M97.67,40.29c-.86-2.5-1.28-5.1-3.08-7.17l-.31-.33a7.29,7.29,0,0,1,.37.74,9.59,9.59,0,0,1,.65,3.93,9.56,9.56,0,0,0,.31,3c.22.65.58,1.22.8,1.86a1.88,1.88,0,0,1-.49,2.33c-1.66,1.4-3.89,0-4.64-1.63a4.69,4.69,0,0,1,.31-4.36,6.44,6.44,0,0,0-1.36,1.4,5.51,5.51,0,0,0-.57.62,15.09,15.09,0,0,0,1.44,7.88,34.8,34.8,0,0,1,8.27-3.83c.15,0,.2,0,.2.15a.23.23,0,0,1,0,.34,29.64,29.64,0,0,0-8.1,8.15,16.71,16.71,0,0,0-2.28,5.46c-.36,1.55-.52,3.68-1.51,5-1.86,2.45-4-.16-4.43-2.29A9,9,0,0,1,83,60a7.27,7.27,0,0,0,.65,5.09,10.86,10.86,0,0,0,5.23,5A40.09,40.09,0,0,1,90.79,59.5c1.8-5.14,5-12.1,10.33-14.48A11,11,0,0,1,97.67,40.29Z"/><path class="cls-10" d="M82,61a10.19,10.19,0,0,0,6.73,10.13.36.36,0,0,1,.43.08,3.44,3.44,0,0,0-.83,1.39c-.08.23-.14.47-.21.7,0,0,0,0,0,0C85.12,71.64,79.13,64.48,82,61Z"/><path class="cls-8" d="M76,58.16c0-.14,0-.31-.07-.48a.81.81,0,0,0,.3-.5l.16.1a6.58,6.58,0,0,1,.9.76c1,1,1.94,2.44,3.25,3.08C78.15,64.38,85,72.91,87.72,74A.36.36,0,0,0,88,74a10.62,10.62,0,0,0-.2,1.36,9.32,9.32,0,0,1-4.09,1.55c-2.63.6-3.65-2.58-4.48-4.25A27.29,27.29,0,0,1,76,62.11C75.88,60.8,76.13,59.48,76,58.16Z"/><path class="cls-9" d="M87.72,74c-2.76-1.1-9.57-9.63-7.14-12.89C79.27,60.48,78.36,59,77.33,58a6.58,6.58,0,0,0-.9-.76l-.16-.1a.81.81,0,0,1-.3.5c0,.17.06.34.07.48a12,12,0,0,1,0,1.47,1.88,1.88,0,0,1,1.29.62c1.16,1.09,1.42,2.47,2,3.9.9,2.47,2.38,4.62,3.43,7,.91,2,1.18,4.91-1.37,5.13a2.47,2.47,0,0,0,2.35.64,9.32,9.32,0,0,0,4.09-1.55A10.62,10.62,0,0,1,88,74,.36.36,0,0,1,87.72,74Z"/><path class="cls-8" d="M103.56,109.32c.22.35.45.68.67,1,.06.1.16.23.26.37a.75.75,0,0,1,.21.3.88.88,0,0,1,.15.84,25.29,25.29,0,0,1-2.29,2.94,11.48,11.48,0,0,1-1,1.34l-.07.18A5.87,5.87,0,0,1,102,118c.16,0,.28.18.21,1a4.12,4.12,0,0,1,.14,1.31,9,9,0,0,1-.47,3.26c-.1.34-.22.67-.33,1l0,.11A62,62,0,0,1,98,134.82a31.52,31.52,0,0,1-1.59,3.62c-1.44,2.75-2.59,5.66-4.3,8.27-.2.31-1.9,3.11-2.48,2.36a24.66,24.66,0,0,0-2.85-2.84l-.92-1.33c-.4-.59-1.33-2.17-1.21-2.8.24-1.19.52-2.37.73-3.57a128.5,128.5,0,0,0,1.74-13.68,111.64,111.64,0,0,0-.31-19.69c.69,3.26,1.3,6.54,1.84,9.8.15.88.28,1.76.4,2.64-.14-3.27-.41-6.52-.61-9.8q-.57-2.8-1.26-5.6c-1.35-4.33-2.22-8.82-3.65-13.12-.59-1.35-1.19-2.69-1.81-4a31.53,31.53,0,0,0-1.49-2.82,70.76,70.76,0,0,0-5.08-5.93c-.65-.66-1.33-1.29-2-1.91a58,58,0,0,1,4.57,5.8L77,79.41a62.84,62.84,0,0,0-8.34-8c-3.09-2.51-6.42-4.71-9.68-7a27,27,0,0,0-3.63-2c-1.09-.53-1-1.89-1.38-2.93,1.81,1.34,3.63,2.68,5.47,4a50.92,50.92,0,0,1-4.81-4.59c-.7-.52-1.4-1-2.09-1.56C48,53.78,43.68,50.05,39.13,46.59c-2-1.49-4.22-2.66-6.1-4.28-1.69-1.45-1.24-5.82-1.29-7.94a34.34,34.34,0,0,1,1.15-8.56c.3-1.29.57-2.57.86-3.86a10.38,10.38,0,0,1,.59-1.47.39.39,0,0,0,.1-.08C42,25.61,49.34,30.82,56.08,37.08c3.49,3.23,6.73,6.81,10,10.24,1.59,1.64,3.1,3.35,4.63,5a38.14,38.14,0,0,1,4.34,5c-.07.68.08,1.45.07,2.12,0,1.21-.12,2.41,0,3.63.27,4.56,2.65,9.86,5.23,13.58,1.61,2.33,5.41,1.07,7.38-.6a30.94,30.94,0,0,0,.14,4.07.21.21,0,0,0-.09.13c-.51,1.51-1.76,3.7-1,5.29.39.85,1.44,1.44,2.09,2.08a5,5,0,0,0,2.11,1.39c.33.55.67,1.06,1,1.51,1.49,2,3.6,4.94,6,6a.16.16,0,0,0,.1,0,.26.26,0,0,0,.3,0,4.94,4.94,0,0,0,.92-1.59,12.29,12.29,0,0,1,.93-1.49.4.4,0,0,0,.13,0,5.06,5.06,0,0,0,1.88-.39,1.81,1.81,0,0,0,1.1-.72c.14.27.3.52.44.79.42.82.91,4.65,2.54,2.72,1.08-1.27.84-2.91.18-4.49l0,0a40.9,40.9,0,0,0,3.44-2.74q.3-.3.57-.63C108.49,95.2,106,102.27,103.56,109.32Z"/><path class="cls-9" d="M104.49,110.7c-.1-.14-.2-.27-.26-.37-.22-.33-.45-.66-.67-1,1.5-4.29,3-8.59,4.4-12.92l0-.11c.26-.82.53-1.65.78-2.47,0-.1.07-.2.1-.3.24-.77.47-1.55.7-2.33,0-.14.09-.29.13-.44.27-.91.54-1.83.79-2.75q-.27.33-.57.63a40.9,40.9,0,0,1-3.44,2.74l0,0c.66,1.58.9,3.22-.18,4.49-1.63,1.93-2.12-1.9-2.54-2.72-.14-.27-.3-.52-.44-.79a1.81,1.81,0,0,1-1.1.72l-.26.09h0l-.28.09h0a3.73,3.73,0,0,1-1.33.21.4.4,0,0,1-.13,0,12.29,12.29,0,0,0-.93,1.49,4.94,4.94,0,0,1-.92,1.59.26.26,0,0,1-.3,0,.16.16,0,0,1-.1,0c-2.39-1-4.5-3.93-6-6-.33-.45-.67-1-1-1.51a5,5,0,0,1-2.11-1.39c-.65-.64-1.7-1.23-2.09-2.08-.72-1.59.53-3.78,1-5.29a.21.21,0,0,1,.09-.13,30.94,30.94,0,0,1-.14-4.07c-2,1.67-5.77,2.93-7.38.6-2.58-3.72-5-9-5.23-13.58-.08-1.22,0-2.42,0-3.63,0-.67-.14-1.44-.07-2.12a.36.36,0,0,0-.07-.1,7,7,0,0,1-2,2.93c-4.22,3.59-10.93-2-14.06-5.69a66.12,66.12,0,0,1-13.52-8.42A54.72,54.72,0,0,1,36,37c-1.44-1.82-2.79-3.7-4.13-5.59a24.08,24.08,0,0,0-.13,3c.05,2.12-.4,6.49,1.29,7.94,1.88,1.62,4.12,2.79,6.1,4.28,4.55,3.46,8.88,7.19,13.44,10.65.69.53,1.39,1,2.09,1.56a50.92,50.92,0,0,0,4.81,4.59c-1.84-1.3-3.66-2.64-5.47-4,.41,1,.29,2.4,1.38,2.93a27,27,0,0,1,3.63,2c3.26,2.27,6.59,4.47,9.68,7a62.84,62.84,0,0,1,8.34,8l.68.78a58,58,0,0,0-4.57-5.8c.7.62,1.38,1.25,2,1.91a70.76,70.76,0,0,1,5.08,5.93,31.53,31.53,0,0,1,1.49,2.82c.62,1.34,1.22,2.68,1.81,4,1.43,4.3,2.3,8.79,3.65,13.12q.69,2.79,1.26,5.6c.2,3.28.47,6.53.61,9.8-.12-.88-.25-1.76-.4-2.64-.54-3.26-1.15-6.54-1.84-9.8a111.64,111.64,0,0,1,.31,19.69,128.5,128.5,0,0,1-1.74,13.68c-.21,1.2-.49,2.38-.73,3.57-.12.63.81,2.21,1.21,2.8l.92,1.33,1.11,1a47.08,47.08,0,0,1,.33-9.95,80.53,80.53,0,0,1,1.86-9c.46-6.22,2.76-12.28,2.49-18.54-.26-5.76-1.94-12-5.38-16.73-.54-.74.24-1.45,1-1.36a.91.91,0,0,1,1.31,0c4.35,4.15,8.77,8.29,15,6.09,1.47,2,.22,5.16-1.15,7.79-.47.89-1.39,2.13-1.33,3.18a35.19,35.19,0,0,0,.61,3.53,10.42,10.42,0,0,1,.12,2.28,18.49,18.49,0,0,0,2.1-2.7.88.88,0,0,0-.15-.84A.75.75,0,0,0,104.49,110.7Z"/><path class="cls-8" d="M111.48,82c1.36,1,.39,2.17-.26,3.34-1.35,2.43-3,3.64-5.1,5.33-.17-.35-.36-.69-.55-1A29,29,0,0,0,101,83.15a12.46,12.46,0,0,0,4.23-.29,5.83,5.83,0,0,0,3.65-2.49A19.82,19.82,0,0,1,111.48,82Z"/><path class="cls-9" d="M95.13,82.18a27.6,27.6,0,0,1-3.59-3.58,11.39,11.39,0,0,1-1.22-2.38c.19.72.4,1.43.63,2.12.1.23.21.45.32.67,2,3.13,5,5.36,7.54,8.13a14.79,14.79,0,0,1,3.34,4.8c.07.13.14.26.2.39a1,1,0,0,0,.57-.3.34.34,0,0,1,.12-.09A46.62,46.62,0,0,0,95.13,82.18Z"/><path class="cls-9" d="M88.44,86l1.44,1.19a18.22,18.22,0,0,1-1.93-6c0,.11-.07.24-.1.36A18.57,18.57,0,0,0,88.44,86Z"/><path class="cls-9" d="M111.48,82a19.82,19.82,0,0,0-2.58-1.65,5.83,5.83,0,0,1-3.65,2.49,12.46,12.46,0,0,1-4.23.29c.38.41.74.84,1.1,1.27a.39.39,0,0,1,.27-.07,10.59,10.59,0,0,0,3.27-.29.48.48,0,0,1,.59.34,7.46,7.46,0,0,0,2,4.5,13,13,0,0,0,2.93-3.54C111.87,84.19,112.84,83,111.48,82Z"/><path class="cls-11" d="M120.29,80.73c-.26-.11-5.38-3.31-5.43-4.16,3.83-.31,7.31,2.64,9.32,5.64C122.89,82.2,121.26,81.16,120.29,80.73Z"/><path class="cls-8" d="M132.41,71.94a49,49,0,0,1-5.65,8.66.44.44,0,0,0-.15.08,3.66,3.66,0,0,0-.85.86c-.68.86-.93-.44-1.3-1-.64-1-2-1.75-2.89-2.49a9.44,9.44,0,0,0-6-2.43A31.12,31.12,0,0,1,121.45,71c2-1.25,4.79-3,7.19-3.34.22,0,.34-.47.05-.47a8.67,8.67,0,0,0-3.49.8,14.78,14.78,0,0,1,4.12-1.7c.24-.07.31-.5,0-.45a12,12,0,0,0-4.46,1.38,16.91,16.91,0,0,0-3.22-3.79,11.66,11.66,0,0,0-4.67-3c-.2-.07-.39.26-.18.36a9.54,9.54,0,0,1,2.48,1.52.19.19,0,0,0-.05.13c-3.49,2.53-7.47,4.67-10.33,7.95-.32.38.1.9.51.57,1-.84,2.07-1.72,3.09-2.59-.53,1.27-1.1,2.51-1.52,3.84-.81,2.59-1,5.49-3.57,7C103.2,81.83,95,80,92.73,75.41h0a32.48,32.48,0,0,1,2.6-12.59c.06-.15.13-.3.19-.44,1.82-1.33,4.18-2.07,6.23-3s4.23-1.84,6.32-2.81c2.41-1.12,5.18-2.05,7.59-3.39-.64,1.11-1.13,2.3-1.52,3.09-.13.27.23.36.35.13a26.27,26.27,0,0,1,2.26-3.73,3.49,3.49,0,0,1,.31-.34c.25-.17.48-.34.71-.52,1.61-.8,3.38.61,4.69,1.73a40.22,40.22,0,0,1,7.31,7.83A39.41,39.41,0,0,1,132,65.27c.34.65.65,1.31,1,2C134,69,133.14,70.36,132.41,71.94Z"/><path class="cls-9" d="M96.94,65a18.64,18.64,0,0,1,6.67-5.37A33.3,33.3,0,0,1,108,57.83a43,43,0,0,0,4.24-1.24,1.32,1.32,0,0,1,.33-.08,4.12,4.12,0,0,1,1.73-.53c.36-.77.81-1.81,1.37-2.78-2.41,1.34-5.18,2.27-7.59,3.39-2.09,1-4.21,1.88-6.32,2.81s-4.41,1.64-6.23,3c-.06.14-.13.29-.19.44a32.48,32.48,0,0,0-2.6,12.59h0a8,8,0,0,0,3.21,3.24C92.54,75,94.21,68.71,96.94,65Z"/><path class="cls-9" d="M117.3,53.65a5.14,5.14,0,0,1,3.64-.15c1.29.41,2.24,1.55,3.43,2.16.26.13.51.24.77.35-.87-.84-1.77-1.65-2.69-2.45-1.31-1.12-3.08-2.53-4.69-1.73-.23.18-.46.35-.71.52a3.49,3.49,0,0,0-.31.34,21.44,21.44,0,0,0-2,3.3C115.52,55.11,116.1,54.11,117.3,53.65Z"/><path class="cls-9" d="M128.11,67.78A25.39,25.39,0,0,0,121.45,71a31.12,31.12,0,0,0-5.84,4.56,8,8,0,0,1,3.84,1C120.3,72.68,124.76,69.75,128.11,67.78Z"/><path class="cls-9" d="M111.57,65.94c-2.24,1.77-4.86,3-7.16,4.66,1.1,1,2.5,1.58,2.84,3.15a5.59,5.59,0,0,1-1.1,4.14,6.7,6.7,0,0,1-3.72,2.54,9.25,9.25,0,0,0,5-1.14c2.55-1.54,2.76-4.44,3.57-7,.42-1.33,1-2.57,1.52-3.84-1,.87-2,1.75-3.09,2.59-.41.33-.83-.19-.51-.57,2.86-3.28,6.84-5.42,10.33-7.95a.19.19,0,0,1,.05-.13,10.24,10.24,0,0,0-2.47-1.52C115.8,63.06,113.42,64.49,111.57,65.94Z"/><path class="cls-9" d="M130,76a21,21,0,0,1-3.37,3.43,22.38,22.38,0,0,1-2,1.38c.29.64.56,1.44,1.13.72a3.66,3.66,0,0,1,.85-.86.44.44,0,0,1,.15-.08c1.33-1.78,2.69-3.55,3.88-5.43Q130.34,75.6,130,76Z"/><path class="cls-9" d="M128.32,66.61A12.93,12.93,0,0,0,125.2,68a9.43,9.43,0,0,1,3.08-.8.48.48,0,0,1-.06-.41A.85.85,0,0,1,128.32,66.61Z"/><path class="cls-9" d="M124.85,67.24a9.21,9.21,0,0,1,2.94-1.1,8.89,8.89,0,0,1-3.52-2.45c-1.41-1.33-2.93-2.82-5-3.13a10.77,10.77,0,0,0-2,0,11.85,11.85,0,0,1,4.36,2.86A16.91,16.91,0,0,1,124.85,67.24Z"/><path class="cls-2" d="M110,32.63a11.25,11.25,0,0,0-3.58-.64,3.23,3.23,0,0,0-2.5.79c-.44.54,0,1.6.22,2.13a3.56,3.56,0,0,0,2,2.18.31.31,0,0,0,.32-.5c-.55-.61-3.23-3.21-1.31-3.74,1.49-.41,3.2,0,4.69.18C110.08,33.06,110.24,32.71,110,32.63Z"/><path class="cls-2" d="M110.2,46.53c.76,0,.82-.67.61-1.43a13.63,13.63,0,0,0-1.1-1.77A5.93,5.93,0,0,0,105,40.88a7.37,7.37,0,0,1,2.92,1.59.22.22,0,0,0,0,.14C108.44,43.58,108.77,46.27,110.2,46.53Z"/><path class="cls-2" d="M112,48.26a4.48,4.48,0,0,1-4.36-2.07c.84,1.32,1.87,2.74,3.52,3a2.54,2.54,0,0,0,2.9-2A4.11,4.11,0,0,1,112,48.26Z"/><path class="cls-2" d="M106.28,21.62a.59.59,0,0,0-.58.72,2.06,2.06,0,0,0,.12.26c.12.28.3.5.43.77a.45.45,0,0,0,.57.13.65.65,0,0,0,.37-.58C107.17,22.39,106.89,21.66,106.28,21.62Z"/><path class="cls-2" d="M120.5,25.45a.55.55,0,0,0-.78-.31l-.41.2-.4.2a3.62,3.62,0,0,0-.85.38c-.34.28-.49.91,0,1.12s1.47-.43,2-.71A.8.8,0,0,0,120.5,25.45Z"/><path class="cls-2" d="M122.24,79c-1.17-1.19-3.31-3-5.16-2.73-.42.42-.82.86-1.25,1.24s-.78.57-1.14.39a6.64,6.64,0,0,0-3.8.49,4.6,4.6,0,0,0-1.15.59c-.16.12-.31.25-.46.38-1.67,2-2.69,4.9-1.94,7.44a6.34,6.34,0,0,0,2,2.8l.18,0a.25.25,0,0,1,0,.07,2,2,0,0,0,2.63.65,4.78,4.78,0,0,0,.39.82,1.81,1.81,0,0,0,2.61.6,3,3,0,0,0,.7.62c1.38.85,3.13-.4,3.82-1.56s1.22-2.76-.45-3.36h0a6.93,6.93,0,0,0,1.12-1.87A7,7,0,0,0,121,83.2a5,5,0,0,0-.22-2.14,5.89,5.89,0,0,0,1.46-1.4A.49.49,0,0,0,122.24,79Z"/><path class="cls-5" d="M111.88,89.19c-1.71.59-1.67-2.15-1.69-3.73.18.11.36.2.55.3l1.19.56a.24.24,0,0,0-.09.15A7.57,7.57,0,0,0,111.88,89.19Z"/><path class="cls-5" d="M114.46,90.74c-.63.32-1.09-.8-1.29-1.19a7.43,7.43,0,0,1-.75-3c.57.27,1.14.51,1.72.74,0,0,0,0,0,0a8.28,8.28,0,0,0,.44,3.37Z"/><path class="cls-5" d="M121.23,79.52A.72.72,0,0,1,121,80l-.22.19a.63.63,0,0,1-.39.15l0,0,0,0a.39.39,0,0,1-.14,0c-.31-.2-.73-.35-1.07-.57v.05a9.15,9.15,0,0,1,.73,2.43,1.93,1.93,0,0,1,0,.27c0,.12,0,.24,0,.36h0a5.43,5.43,0,0,1-.12,1.18,5.68,5.68,0,0,1-1,2c-.2.47-.41.93-.6,1.4a.08.08,0,0,1,0,0,2.54,2.54,0,0,0-1.37,2.17.28.28,0,0,0,.22.31c.14-.9,1.12-2,2-1.69,1.06.37.25,2-.13,2.57a1.82,1.82,0,0,1-2.84.45,3,3,0,0,1-.8-1.65,4.17,4.17,0,0,1-.22-1.36v0c-.08-.25-.14-.49-.19-.7l.24.08a.56.56,0,0,0,.61-.38,16.92,16.92,0,0,1-4-1.35,5.4,5.4,0,0,1-2.9-2c-.1.06-.18.2-.1.3a4.81,4.81,0,0,0,.79.83,12.7,12.7,0,0,0-.38,3.47,2.31,2.31,0,0,1-.91-1.2,7.88,7.88,0,0,1-.36-1.37.39.39,0,0,0,0-.21,10.27,10.27,0,0,1,.56-2.93,4.51,4.51,0,0,1,1.61-2.6,7.1,7.1,0,0,1,6.45-1.74.15.15,0,0,0-.1-.09L116,78.2a3.38,3.38,0,0,0,.31-.37c.13-.18.26-.33.4-.5a2.36,2.36,0,0,0,.38-.5,12.1,12.1,0,0,1,2.19,1,6.66,6.66,0,0,1,2,1.61Z"/><g class="cls-12"><path class="cls-5" d="M111.93,86.32l-.84-.4a5.65,5.65,0,0,0,0,2.28,1.59,1.59,0,0,0,.78,1l0,0a7.52,7.52,0,0,1,0-2.71A.24.24,0,0,1,111.93,86.32Z"/><path class="cls-5" d="M114.14,87.28l-.71-.29a13.82,13.82,0,0,0,.12,2.31,1.72,1.72,0,0,0,1,1.41l0,0a8.28,8.28,0,0,1-.44-3.37S114.14,87.29,114.14,87.28Z"/><path class="cls-5" d="M108.82,84.25a4.62,4.62,0,0,0-.34,2.13,4.91,4.91,0,0,0,.66,2,13.44,13.44,0,0,1,.38-3.35A4.42,4.42,0,0,1,108.82,84.25Z"/><path class="cls-5" d="M119.32,77.8a12.1,12.1,0,0,0-2.19-1,2.36,2.36,0,0,1-.38.5c-.14.17-.27.32-.4.5a3.38,3.38,0,0,1-.31.37l.39.11a.15.15,0,0,1,.1.09,7.38,7.38,0,0,0-1.48-.17,6.28,6.28,0,0,1,2.82,2.36c1.24,2.21.56,5-2.12,5.52a7.21,7.21,0,0,1-4.45-.82,6.74,6.74,0,0,1-1.7-.84,3.29,3.29,0,0,1-.6-.36,5.7,5.7,0,0,0,2.73,1.78,16.92,16.92,0,0,0,4,1.35v0a.22.22,0,0,1,.15.26,4.14,4.14,0,0,0,.3,3,3.59,3.59,0,0,0,1.11,1.24,2,2,0,0,0,1.65-1c.38-.58,1.19-2.2.13-2.57-.88-.31-1.86.79-2,1.69a.28.28,0,0,1-.22-.31,2.54,2.54,0,0,1,1.37-2.17.08.08,0,0,0,0,0c.19-.47.4-.93.6-1.4a5.68,5.68,0,0,0,1-2,5.43,5.43,0,0,0,.12-1.18h0c0-.12,0-.24,0-.36a1.93,1.93,0,0,0,0-.27,9.15,9.15,0,0,0-.73-2.43v-.05c.34.22.76.37,1.07.57a.39.39,0,0,0,.14,0l0,0,0,0a.63.63,0,0,0,.39-.15L121,80a.72.72,0,0,0,.24-.48l.12-.11A6.66,6.66,0,0,0,119.32,77.8Z"/></g><path class="cls-2" d="M69,30.25a.43.43,0,0,1,.26.13l0,0a4.35,4.35,0,0,0,2.46.8,6,6,0,0,0,2-.61.42.42,0,0,1,.47,0,6.18,6.18,0,0,0,1.27.82l1.3.49a3.47,3.47,0,0,1,.55.27c.64.21,1.29.39,1.91.54a10.37,10.37,0,0,0,.65-2,16.83,16.83,0,0,0,.39-2.53c-.86-.44-1.72-.88-2.54-1.37A16.29,16.29,0,0,1,76,26l0,0a4.74,4.74,0,0,0-1.6-3c-.37-.45-.77-.89-1.18-1.31-1.08-1.13-1.62-1.86-3.26-1.91s-3.55.89-5.09,1.61c-2,.49-4.48,1.28-4.53,3.53,0,1.11,1.18,1.92,2,2.43.64.41,1.29,1.44,2,1.61a3.65,3.65,0,0,0-.73.89c-.67,1.14,1.29,1.73,2,1.56S68,29.93,69,30.25Z"/><path class="cls-5" d="M65.53,30.81c-1.82.33-1.42-1.45,0-1.91.27-.16.55-.31.83-.46a12,12,0,0,0,2.15-1.38l.31-.19a2.9,2.9,0,0,0,.86-2.71,5.4,5.4,0,0,1-.27,1l0,.09a1.86,1.86,0,0,0-.92-.9c-.92-.32-1.94.51-2.6,1.18q-.09-.18-.18-.33a2.06,2.06,0,0,0-1.54-1.08H64a6,6,0,0,1,2,3.1.46.46,0,0,1,0,.2.55.55,0,0,0,.3-.4A2.22,2.22,0,0,0,66,25.93c.56-.37,1.55-1,2.11-.63.32.18.32.56.44.85-.24.2-.51.38-.73.57a.53.53,0,0,0-.11.15c-.84.47-1.75.87-2.54,1.39a.4.4,0,0,0-.13-.13,16.75,16.75,0,0,1-1.75-1.55,8.35,8.35,0,0,1-1.86-1.49c-.63-.85.32-1.63,1.56-2.27a4.15,4.15,0,0,1,1.64-.7c.92-.2,1.86-.46,2.81-.65,1.69-.52,3.36-.81,4.82.41A18.07,18.07,0,0,1,74,23.52c.2.54.58,1,.79,1.57a5.39,5.39,0,0,1,.3,1.82c0,.23.24.29.41.16a1.13,1.13,0,0,0,.42-.63,18.72,18.72,0,0,0,1.61,1.07c.68.41,1.33.84,2,1.25A12.06,12.06,0,0,1,79,31.63a14.51,14.51,0,0,0-2.56-1,5.79,5.79,0,0,0-2.65-.59c0-.27.1-.53.16-.8a3,3,0,0,1-2.93.68c-.56-.05-1.13-.19-1.76-.29C67.56,29.39,67,30.54,65.53,30.81Z"/><path class="cls-6" d="M65,28.09l.08,0a.4.4,0,0,1,.13.13c.79-.52,1.7-.92,2.54-1.39a.53.53,0,0,1,.11-.15c.22-.19.49-.37.73-.57-.12-.29-.12-.67-.44-.85-.56-.33-1.55.26-2.11.63A2.22,2.22,0,0,1,66.27,27a.55.55,0,0,1-.3.4.46.46,0,0,0,0-.2,6,6,0,0,0-2-3.1h.09a2.06,2.06,0,0,1,1.54,1.08q.09.15.18.33c.66-.67,1.68-1.5,2.6-1.18a1.86,1.86,0,0,1,.92.9l0-.09a6.79,6.79,0,0,0,.2-.66,1.33,1.33,0,0,0-1.37-.84c-.43,0-.86,0-1.29,0a4.86,4.86,0,0,1-.55-.07c-1.33-.09-2.77-.37-3.4,1.15a9.89,9.89,0,0,0,1.9,3.1A.44.44,0,0,1,65,28.09Z"/><path class="cls-6" d="M78.93,28.38a1.52,1.52,0,0,1-1.14.15c-.85-.21-2.65-.64-3.26-1.54a3.42,3.42,0,0,1-1.25,1.19c-1.3.75-2.32.3-3.72.26a6,6,0,0,0-4.32,2.32l-.07.08.36,0c1.51-.27,2-1.42,3.77-1.14.63.1,1.2.24,1.76.29A3,3,0,0,0,74,29.28c-.06.27-.11.53-.16.8a5.79,5.79,0,0,1,2.65.59,14.51,14.51,0,0,1,2.56,1,12.06,12.06,0,0,0,.49-2.87Z"/><path class="cls-2" d="M33.34,22.39a18,18,0,0,0-2.53-2.15c-.18-.14-1.93-1-1.91-1l0,0c-.12-.24-.25-.49-.39-.73C27,16,23.89,15.92,21.63,14.58S17.79,11,15.29,9.86a7.36,7.36,0,0,0-2.78-.58,6,6,0,0,0-1-.24A20.13,20.13,0,0,1,8,7.91a3.64,3.64,0,0,0-3.57.39A1.07,1.07,0,0,0,4,9.49a1.4,1.4,0,0,0-1.22,2.09,1.45,1.45,0,0,0-1,1.79,1.8,1.8,0,0,0,.23.46,2.27,2.27,0,0,0-.66.26,1.5,1.5,0,0,0-.66,1.85c-1.18.66-.6,2.24.51,3.2a4.16,4.16,0,0,0,3.27.79,3.39,3.39,0,0,0,1.23-.42,2.38,2.38,0,0,1,1.59-.44s0,0,0,.05c3.69,1.38,7.37,2.71,11,4.34a30.16,30.16,0,0,0,6.35,2.47,20.51,20.51,0,0,0,3,2.27c.69.52,1.41,1,2.12,1.46a4.74,4.74,0,0,0,1.14.79l.18,0a.26.26,0,0,0,.21.09h.07a.57.57,0,0,0,.55-.45c.21-1.14.22-2.32.45-3.48s.71-2.33.86-3.5C33.39,22.94,33.53,22.6,33.34,22.39Z"/><path class="cls-5" d="M31.46,26.58c-.16.69-.29,1.38-.41,2.08a4.11,4.11,0,0,0,0,.53c-.34-.23-.66-.55-1-.79-.7-.49-1.43-.94-2.14-1.43a18.7,18.7,0,0,0-2.5-1.54l.21-.47a9.61,9.61,0,0,1-4-.89c-2-.82-4-1.83-6-2.76l-1.08-.48a.31.31,0,0,1-.13,0c-.47-.19-1-.42-1.47-.66q-1.68-.69-3.39-1.26a.29.29,0,0,0-.16-.19l-.11-.06a6.5,6.5,0,0,0-3.9-.1,2.14,2.14,0,0,1-1.3.36,5.06,5.06,0,0,1-1.39-.19l-.81-.39a1.27,1.27,0,0,1-.54-1.72c1,.72,2.57,1.32,3.26.41a.28.28,0,0,0,.07-.13A2.4,2.4,0,0,1,2.29,16a4.73,4.73,0,0,1-.46-.32c-.6-.5-.08-.81.46-.91.29,0,.57-.06.85-.09a3.62,3.62,0,0,0,2,.24.27.27,0,0,0,.1-.06,3.85,3.85,0,0,1-2.52-1.57c-.29-.42.3-1.1.75-.83l.34.19h0l.17.08c.2.09.39.18.59.25A3.77,3.77,0,0,0,6,13.17a.44.44,0,0,0,.31-.24,3.64,3.64,0,0,1-2.78-1.87c-.15-.38.44-1.06.8-.73l.25.2.08-.07a2.31,2.31,0,0,0,1.58.37.53.53,0,0,0,.37.1h.07a4.49,4.49,0,0,1-1.49-1c-.34-.34,0-.81.33-1,0,0,0,0,.07,0A.59.59,0,0,1,6,8.77c1.36-.27,2.72.61,4,.87a22.19,22.19,0,0,1,3.73.86,8.42,8.42,0,0,1,1.08.25c2.14.66,3.92,2.72,5.68,4.05s3.9,1.55,5.63,2.75a4.62,4.62,0,0,1,1.45,1.61c-.54-.21-1-.85-1.61-1a2.29,2.29,0,0,0-1.87.76.3.3,0,0,0-.05.39c.76-.95,1.9-.85,2.91,0,.41.34.82.65,1.22.94l.08-.12h0a15,15,0,0,0,1.36.73,29.25,29.25,0,0,1,2.89,2.31l0,0A19.24,19.24,0,0,0,31.46,26.58Z"/><path class="cls-6" d="M26.16,17.55c-1.73-1.2-3.92-1.46-5.63-2.75S17,11.41,14.85,10.75a8.42,8.42,0,0,0-1.08-.25A22.19,22.19,0,0,0,10,9.64c-1-.2-2-.75-3-.89a1.52,1.52,0,0,1,.33.39.93.93,0,0,1-.86,1.32,1.9,1.9,0,0,1-1.29-.6v0a4.49,4.49,0,0,0,1.49,1H6.62a.53.53,0,0,1-.37-.1,3.13,3.13,0,0,1-.81,0c.38.42.5,1.21-.1,1.51a1,1,0,0,1-.51.1,5.09,5.09,0,0,0,1.49.53.44.44,0,0,1-.31.24A3.77,3.77,0,0,1,4.54,13l-.18-.08a.54.54,0,0,1,.15.15l.06,0a.65.65,0,0,1-.34,1.25,6.69,6.69,0,0,1-.86-.29,4.28,4.28,0,0,0,1.84.83.27.27,0,0,1-.1.06,3.61,3.61,0,0,1-1.64-.13,3,3,0,0,0,.8.58.55.55,0,0,1,.29.71.53.53,0,0,1-.61.55,4,4,0,0,1-1.45-.43,2.33,2.33,0,0,0,2.12.65.28.28,0,0,1-.07.13c-.61.79-1.91.44-2.87-.14a2.41,2.41,0,0,0,1.26,1H3A2.1,2.1,0,0,0,4.3,17.7a3,3,0,0,0,1.22-1.84v0A8.9,8.9,0,0,1,6,14.45q.23-.62.48-1.23c.12-.43.24-.83.38-1.2,1.1-2.93,3.54-1,5.74-.7a7,7,0,0,1,3.77,1.51,18.28,18.28,0,0,0,5.24,3.39c1.2.46,2.51,1.34,2.73,2.56a2.07,2.07,0,0,1,1.7-.62c.62.15,1.07.79,1.61,1A4.62,4.62,0,0,0,26.16,17.55Z"/><path class="cls-6" d="M32.55,23.17a29.25,29.25,0,0,0-2.89-2.31,15,15,0,0,1-1.36-.73h0l-.08.12c-.4-.29-.81-.6-1.22-.94a1.93,1.93,0,0,0-2.66-.24v.14a3.3,3.3,0,0,1,1.32.12,4.68,4.68,0,0,1,1.24.63A3.6,3.6,0,0,1,28,21.21a3.35,3.35,0,0,1,2.9,4.17,6.76,6.76,0,0,1-1.24,2.74l.43.28c.33.24.65.56,1,.79a4.11,4.11,0,0,1,0-.53c.12-.7.25-1.39.41-2.08a19.24,19.24,0,0,1,1.12-3.39Z"/><path class="cls-2" d="M89.33,152.64c0-.33.09-.66.15-1a4.5,4.5,0,0,0,.29-1.62.31.31,0,0,0,0-.21c-.44-.7-1.35-1.13-1.93-1.72A12.06,12.06,0,0,0,86,146.26a.14.14,0,0,0-.18,0,.07.07,0,0,0-.06,0l-.1.08c-.07.07-.07.21.06.19-.27,0-.77,1.48-.88,1.7-.36.74-.69,1.5-1,2.25A25.73,25.73,0,0,1,82,154.88a.69.69,0,0,0-.09.25c-.24.29-.41.52-.49.62a70.13,70.13,0,0,0-6.3,9.86l-.3.17a5.6,5.6,0,0,0-2.09,1.83,2,2,0,0,0-.35,0,3.92,3.92,0,0,0-1.47.32,2.43,2.43,0,0,0-1.6,2.34c0,2.6,2.86,2.25,4.68,1.4a2,2,0,0,0,.16.47,1.55,1.55,0,0,0,1.78.52,3.33,3.33,0,0,0,1-.54h0c.41.93,1.67.89,2.48.39.33.67,1.25.66,1.93.26h0a1.25,1.25,0,0,0,1.14.3c2.76-.74,3.64-3.91,4-6.49,1.24-2.18,1.35-5.44,1.93-7.73l0-.14.07-.07c.65-.85,1.64-1.56,2-2.62S89.81,153.67,89.33,152.64Z"/><path class="cls-5" d="M89.25,156.36c-.18.22-.4.45-.61.68a4.18,4.18,0,0,0-.13-.94q-.7-.21-1.41-.45c.74,1.39.25,3-.12,4.45-.49,1.91-.67,3.84-1.24,5.71-.74,1.37-.59,3.05-1.36,4.46a2.61,2.61,0,0,1-.17.28c-.31.52-1,1.6-1.71,1.51-1.58-.19-.41-1.83.46-2.69a.22.22,0,0,0-.11,0A3.44,3.44,0,0,0,81,171.54a1,1,0,0,0,0,.3l-.27,0c-.31,0-.29-.38-.26-.59a6.62,6.62,0,0,1,.68-1.63.26.26,0,0,0,0-.17,4.33,4.33,0,0,0-1.11.72,3.2,3.2,0,0,0-.6,1.21l-.42.14a.8.8,0,0,1-.77.13l-.09-.06-.11-.08,0,0a.18.18,0,0,1,0-.07,1.15,1.15,0,0,1-.21-.61,2.19,2.19,0,0,1,.61-1.57.2.2,0,0,0-.09.05c-.18.16-.4.25-.59.4a2.39,2.39,0,0,0-.5.72,3.07,3.07,0,0,0-.2.5c-.48.33-1,.82-1.54.69-.7-.06-.55-.94-.28-1.44a3.48,3.48,0,0,1,.54-.83,4.87,4.87,0,0,1,.74-.62.2.2,0,0,0-.23,0A2.85,2.85,0,0,0,74.4,170a3.28,3.28,0,0,0-.36.84c-.27.1-.58.21-.91.31a3,3,0,0,1-2,.57,1.47,1.47,0,0,1-1.25-2A2.77,2.77,0,0,1,72,168.18a2.62,2.62,0,0,1,1.81.23.14.14,0,0,0-.07-.1,3.06,3.06,0,0,1-.35-.31c.39-.32.73-.68,1.11-1a6.59,6.59,0,0,1,3.06-1.9c.05-.14,0-.31-.23-.24s-.65.1-1,.2a111.47,111.47,0,0,1,6.15-9.54.53.53,0,0,0,.12-.1,4.09,4.09,0,0,0,.51-.67l.26-.3-.06,0a16.8,16.8,0,0,0,1.1-3.1,31.92,31.92,0,0,0,1.42-4.58,9.11,9.11,0,0,0,1.32,2,7.11,7.11,0,0,0,1.89,1.6,5.41,5.41,0,0,0-.48,1.31,7.06,7.06,0,0,0-.41,2.55c.07.4.54.15.66,0a3,3,0,0,0,.2-.4C89.39,154.67,89.78,155.72,89.25,156.36Z"/><path class="cls-6" d="M76.22,168.67h0c-1.18.09-2.13,1.25-3.23,1.64a3.58,3.58,0,0,1-2.37.18,2.84,2.84,0,0,1-.81-.5,1.52,1.52,0,0,0,1.35,1.69,3,3,0,0,0,2-.57c.33-.1.64-.21.91-.31a3.28,3.28,0,0,1,.36-.84,2.85,2.85,0,0,1,1.78-1.27Z"/><path class="cls-6" d="M79.46,169.85a2.84,2.84,0,0,0-.55.61c-.14.26,0,.71.35.72a.64.64,0,0,1,.2,0,3.35,3.35,0,0,1,.54-1,4.07,4.07,0,0,1,1-.69A1.56,1.56,0,0,0,79.46,169.85Z"/><path class="cls-6" d="M89.07,153.73a3,3,0,0,1-.2.4c-.12.19-.59.44-.66,0a7.06,7.06,0,0,1,.41-2.55,5.41,5.41,0,0,1,.48-1.31,7.11,7.11,0,0,1-1.89-1.6,9.11,9.11,0,0,1-1.32-2,8.13,8.13,0,0,1-.21,1l.39.61a5.29,5.29,0,0,1,1.56,4,4.76,4.76,0,0,1-1.26,2.85,40,40,0,0,1-1.76,12.3,4.73,4.73,0,0,1-.6,2.68c-.36.66-1,1.67-1.79,1.86v0a1.15,1.15,0,0,0,.28.06c.72.09,1.4-1,1.71-1.51a2.61,2.61,0,0,0,.17-.28c.77-1.41.62-3.09,1.36-4.46.57-1.87.75-3.8,1.24-5.71.37-1.45.86-3.06.12-4.45q.7.24,1.41.45a4.18,4.18,0,0,1,.13.94c.21-.23.43-.46.61-.68C89.78,155.72,89.39,154.67,89.07,153.73Z"/><path class="cls-6" d="M82.86,169.38c-.7-.16-1.2.34-1.61.85l0,0c-.3.52-.8,1.49-.29,1.56h0a1,1,0,0,1,0-.3,3.38,3.38,0,0,1,1.85-2.12Z"/><path class="cls-6" d="M77.33,169.42a4.9,4.9,0,0,0-.55.79c-.09.18-.17.28-.12.47h0a1,1,0,0,1,.15.14l.14.07a2.53,2.53,0,0,1,.19-.48,2.39,2.39,0,0,1,.5-.72l.35-.23.16-.2A1.19,1.19,0,0,0,77.33,169.42Z"/><path class="cls-2" d="M27.16,9.62a38,38,0,0,1,5.16,2.63c2.75,1.44,5.45,2.94,8.16,4.44,5.74,3.19,11.34,6.55,16.91,10,.28.17.8-.19.47-.43A192.57,192.57,0,0,0,41.4,15.62C38.68,14,36,12.44,33.2,10.93c-1.63-.89-3.68-2.66-5.63-2.58C27,8.38,26.37,9.35,27.16,9.62Z"/><path class="cls-2" d="M17.86,7.3a61.55,61.55,0,0,0,7,3.76c2.59,1.37,5.14,2.8,7.7,4.23,4.85,2.7,10,5,14.77,7.78.19.12.5-.18.29-.33-4.32-3-9.15-5.33-13.7-7.94-2.53-1.45-5.09-2.87-7.66-4.27s-5.16-3-7.92-3.84C18.05,6.6,17.43,7,17.86,7.3Z"/><path class="cls-2" d="M23.38,12.07a35.21,35.21,0,0,0,5.25,2.62c.34.16.76-.34.36-.54-1.72-.85-3.42-1.79-5.16-2.6C23.53,11.41,23,11.84,23.38,12.07Z"/><path class="cls-2" d="M12.16,32.39c2,1.59,4.25,2.84,6.33,4.29,1.91,1.32,3.81,2.67,5.75,4C29.17,43.85,34.16,47,39,50.39c.19.14.58-.1.35-.28-4.4-3.43-9-6.55-13.63-9.72-4.13-2.84-8.16-6.74-12.78-8.76C12.47,31.44,11.63,32,12.16,32.39Z"/><path class="cls-2" d="M9.3,33.43c3.92,2.79,8.15,5.17,12.14,7.87.32.22.91-.29.54-.55a100.14,100.14,0,0,0-12.2-7.81C9.49,32.8,9,33.18,9.3,33.43Z"/><path class="cls-2" d="M140.19,43.29c-1.06-1.66-3.44.78-3.84,1.86a.07.07,0,0,0,.1.09,4,4,0,0,0,1-.91h0a.89.89,0,0,1,.63.18c.17.14.19.37.26.56a.17.17,0,0,0,.29.07.7.7,0,0,0-.15-1,1,1,0,0,0-.7-.21h0a2.27,2.27,0,0,1,1.14-.63c.37-.07.68.18,1,.3C140.14,43.67,140.28,43.43,140.19,43.29Z"/><path class="cls-4" d="M106.2,14.6c-1.38.89-2.52,2.66-1.4,4.09a3.26,3.26,0,0,0,.76.73l0,0s0,0,0,0l.06.06a.27.27,0,0,0,.16.08l.17.07s0,0,0,0a4.91,4.91,0,0,0,4-.3H110a4.83,4.83,0,0,1,1.58-1.84C109.85,18.31,105.39,19.94,106.2,14.6Z"/><path class="cls-4" d="M102.79,19.31c.46,2.29-1.39,3.2-2.82,2.15.66,1.47,2.2,2,3.76,2.46A18.74,18.74,0,0,1,105.2,20a3.17,3.17,0,0,1-1.34-1.9,3.48,3.48,0,0,1,.6-2.35,6.3,6.3,0,0,1,1.74-1.16S102,15.35,102.79,19.31Z"/><path class="cls-4" d="M112.24,17.16l-.37.19a4.08,4.08,0,0,0-1,1.67,1.64,1.64,0,0,0,0,1.64,3.43,3.43,0,0,0,2.61,1.86,13.37,13.37,0,0,0,7.9-1.18C118.83,21.92,111.82,23,112.24,17.16Z"/><path class="cls-4" d="M122.3,21.1l-.49.14a9.78,9.78,0,0,1-1.37.94,4.23,4.23,0,0,0,4,2.53h.29a4.52,4.52,0,0,0,3.54-.87,7.5,7.5,0,0,0,1.49-1.25.37.37,0,0,1,0,.33,6.65,6.65,0,0,1-1.47,1.74,5,5,0,0,0,.26,5.23,4.71,4.71,0,0,0,2.2,1.59,5.74,5.74,0,0,0,1.27.16c-4-2.07-2.06-8.74.75-11.8C132.74,19.84,126.87,26.23,122.3,21.1Z"/><path class="cls-7" d="M103.51,14.27c-2.38.66-3.5,3.7-3.24,5.93a0,0,0,1,0,0,0,7.71,7.71,0,0,1,.88-3.33,7.54,7.54,0,0,1,2.47-2.3A.17.17,0,0,0,103.51,14.27Z"/><path class="cls-7" d="M106,8.64c-2.42-.64-6.39,1.58-4.61,4.4h0a4.14,4.14,0,0,1,0-2,2.66,2.66,0,0,1,1.24-1.26c1.07-.59,2.26-.45,3.39-.71C106.22,9,106.17,8.69,106,8.64Z"/><path class="cls-7" d="M113.74,5.94A4.52,4.52,0,0,0,106,6.5s0,.06,0,0a4.47,4.47,0,0,1,3.56-1.94,4,4,0,0,1,2.31.55c.57.33,1,.89,1.59,1.11A.22.22,0,0,0,113.74,5.94Z"/><path class="cls-7" d="M124.11,4.4a4.65,4.65,0,0,0-4.21-3.1,6.31,6.31,0,0,0-4.83,2.89,0,0,0,0,0,.06,0A6.81,6.81,0,0,1,119.6,2a3.63,3.63,0,0,1,2.71,1c.54.5.83,1.2,1.36,1.7A.27.27,0,0,0,124.11,4.4Z"/><path class="cls-7" d="M131.6,2.1c-1.91-.56-4,.58-5.46,1.76,0,0,0,0,0,0a7.65,7.65,0,0,1,5-1.25,4.05,4.05,0,0,1,2.38,1.54c.5.64.7,1.46,1.17,2.11.15.21.56.14.52-.16A5.08,5.08,0,0,0,131.6,2.1Z"/><path class="cls-7" d="M144.36,5.29a9.3,9.3,0,0,0-6.49.21s0,.07,0,.06c2-.18,3.9-.5,5.87.23,2.33.86,2.67,2.91,3.76,4.84.14.24.59.12.54-.17A6.68,6.68,0,0,0,144.36,5.29Z"/><path class="cls-7" d="M151,13.61a5.42,5.42,0,0,0-4.68-.52s0,.05,0,0a5.71,5.71,0,0,1,3.88.68,3.3,3.3,0,0,1,1.38,1.68c.38,1,0,1.9.1,2.87a.22.22,0,0,0,.41.09A3.91,3.91,0,0,0,151,13.61Z"/><path class="cls-13" d="M140.76,42.91c-.06-1.14-1-1.47-2-1.27,0,0,0,0,0,0,1.15-.09,1.57.94,1.4,1.91s-1.34,1.68-1.93,2.55c-.11.15.12.31.26.23A4.05,4.05,0,0,0,140.76,42.91Z"/><path class="cls-14" d="M119.55,30.25a.56.56,0,0,0-.58-.12c-.54.13-.69,1-.54,1.58a.87.87,0,0,0,.1.31.18.18,0,0,0,.11.1l-.06.09a.25.25,0,0,0,.29.34c.41-.13.63-.7.78-1.06S119.92,30.55,119.55,30.25Z"/><path class="cls-14" d="M105.47,25.64a.27.27,0,0,0-.23-.08c-.3,0-.54.21-.7.54a1.42,1.42,0,0,0-.23.7,1.84,1.84,0,0,0,0,.78.31.31,0,0,0,.45.17l.14-.12C105.48,27.24,106.21,26,105.47,25.64Z"/><path class="cls-14" d="M105,33.13c-.18,0-.36.25-.22.42s0,0,.06,0a.48.48,0,0,0,.28-.31A.11.11,0,0,0,105,33.13Z"/><path class="cls-13" d="M110.08,33.36a6.84,6.84,0,0,1-2.45-.39,3.5,3.5,0,0,0-1.7.11,0,0,0,0,0,0,.07,19,19,0,0,0,2.15.39,4.23,4.23,0,0,0,2-.13A0,0,0,1,0,110.08,33.36Z"/><path class="cls-13" d="M106.11,40.27s0,0,0,0c2.6.48,3.29,2.74,4.86,4.48a.15.15,0,0,0,.24-.15A6.67,6.67,0,0,0,106.11,40.27Z"/><path class="cls-2" d="M117.92,31.53c-.48,1.52-.26,2.95.5,3.19s1.77-.79,2.25-2.31.27-2.95-.49-3.19S118.41,30,117.92,31.53Zm1.31-1.39c.24.08.31.53.15,1s-.47.81-.71.73-.31-.53-.16-1S119,30.06,119.23,30.14Z"/><path class="cls-2" d="M103.77,27.16c-.49,1.52-.26,2.95.5,3.19s1.77-.79,2.25-2.31.26-2.95-.5-3.2S104.25,25.64,103.77,27.16Zm1.3-1.4c.24.08.31.53.16,1s-.47.81-.71.74-.31-.53-.16-1S104.83,25.69,105.07,25.76Z"/><path class="cls-13" d="M71.44,21.83a4.88,4.88,0,0,0-2.39-.41,11.38,11.38,0,0,0-2.94.54,8.1,8.1,0,0,0-2.51.9s0,.09,0,.09a12,12,0,0,0,1.65-.48,13,13,0,0,1,2.85-.42,6.38,6.38,0,0,1,5.09,1.74s0,0,0,0A6.68,6.68,0,0,0,71.44,21.83Z"/><path class="cls-13" d="M69.89,26.07a14.79,14.79,0,0,1-2.1,1.86c-.79.55-1.72.86-2.49,1.42,0,0,0,.09,0,.07,1.68-.54,3.86-1.62,4.77-3.21C70.17,26.09,70,26,69.89,26.07Z"/><path class="cls-13" d="M117,85.39a9.38,9.38,0,0,1-4.15.08,8.14,8.14,0,0,1-3.56-1.8s-.05,0,0,0a7.1,7.1,0,0,0,7.84,2A.17.17,0,0,0,117,85.39Z"/><path class="cls-13" d="M113.05,88.65a13.84,13.84,0,0,1-.3-1.56s0,0,0,0a5.17,5.17,0,0,0,.73,2.92.06.06,0,0,0,.11-.05C113.38,89.52,113.19,89.1,113.05,88.65Z"/><path class="cls-13" d="M116,91a6.51,6.51,0,0,1-.77-2.83,0,0,0,1,0,0,0,4.77,4.77,0,0,0,.7,2.9C116,91.11,116.07,91.05,116,91Z"/><path class="cls-13" d="M111.15,88.94a6.22,6.22,0,0,1-.66-2.55s0,0,0,0A3.71,3.71,0,0,0,111.1,89S111.17,89,111.15,88.94Z"/><path class="cls-13" d="M108.3,86.3a11,11,0,0,1-.11-1.4s0,0,0,0a3.91,3.91,0,0,0,.36,2.79.07.07,0,0,0,.12,0C108.53,87.19,108.37,86.75,108.3,86.3Z"/><path class="cls-13" d="M23.46,19.22a6.11,6.11,0,0,0-2.41-2.32c-1.26-.79-2.6-1.45-3.86-2.23-2.4-1.5-4.84-3-7.75-3.23,0,0,0,0,0,0,2.71.4,5,1.94,7.23,3.44a31.07,31.07,0,0,0,3.25,2,11.92,11.92,0,0,1,3.22,2.6C23.32,19.67,23.56,19.42,23.46,19.22Z"/><path class="cls-13" d="M6.58,10A5.14,5.14,0,0,0,6,9.79a1.1,1.1,0,0,1-.43-.45.14.14,0,0,0-.25.08c0,.56.7,1.16,1.24.85A.16.16,0,0,0,6.58,10Z"/><path class="cls-13" d="M4.55,11.36a3.44,3.44,0,0,1-.5-.76.17.17,0,0,0-.32.1,1.53,1.53,0,0,0,.44,1c.19.21.56.59.87.47a.15.15,0,0,0,.1-.19C5.08,11.69,4.72,11.52,4.55,11.36Z"/><path class="cls-13" d="M4.43,13.59a2.11,2.11,0,0,0-.64-.31,2.71,2.71,0,0,1-.67-.42c-.15-.13-.41.06-.28.23a2.21,2.21,0,0,0,.65.57,1.16,1.16,0,0,0,.87.21A.17.17,0,0,0,4.43,13.59Z"/><path class="cls-13" d="M3.63,16c-.27-.13-.57-.19-.84-.31A2.59,2.59,0,0,1,2,15.11c-.12-.12-.32.05-.23.19a2.24,2.24,0,0,0,1.83,1A.15.15,0,0,0,3.63,16Z"/><path class="cls-13" d="M4.61,18.27a4.28,4.28,0,0,1-1.47.06,4,4,0,0,1-1.51-.73.1.1,0,0,0-.13.14c.7.79,2.27,1.59,3.23.79A.16.16,0,0,0,4.61,18.27Z"/><path class="cls-13" d="M73.27,168.75c-.22-.51-1-.34-1.42-.22a2.41,2.41,0,0,0-1.45,1c-.07.12.09.28.21.19a5,5,0,0,1,1.24-.74,1.8,1.8,0,0,1,.83-.08c.2,0,.27.11.47,0A.18.18,0,0,0,73.27,168.75Z"/><path class="cls-13" d="M76.67,169c-.48-.11-.93.37-1.17.74a1.43,1.43,0,0,0-.08,1.44c.2.35.72,0,.53-.33a1,1,0,0,1,.12-.93,2.85,2.85,0,0,1,.69-.65C76.86,169.21,76.78,169.05,76.67,169Z"/><path class="cls-13" d="M78.9,169.66c.12-.11,0-.27-.15-.24-1,.18-1.45,1.87-.32,2.18a.27.27,0,0,0,.24-.46.59.59,0,0,1-.29-.71A1.71,1.71,0,0,1,78.9,169.66Z"/><path class="cls-13" d="M83.13,169.62a1.44,1.44,0,0,0-.9.87c-.14.33-.27.92,0,1.19a.22.22,0,0,0,.33-.07c.15-.23.07-.57.13-.84a2.51,2.51,0,0,1,.53-.94A.13.13,0,0,0,83.13,169.62Z"/><path class="cls-13" d="M78.08,165.45a6.56,6.56,0,0,0-3.7,2.45c0,.07.05.15.12.11.56-.41,1-.88,1.63-1.27s1.38-.68,2-1.08C78.29,165.59,78.2,165.43,78.08,165.45Z"/><path class="cls-13" d="M83.68,155.15a30.13,30.13,0,0,0-3.59,4.37,23,23,0,0,0-2.75,4.56.1.1,0,0,0,.18.09c1-1.57,2-3.13,3.18-4.63s2.34-2.7,3.25-4.19C84.06,155.17,83.81,155,83.68,155.15Z"/><path class="cls-14" d="M101.46,30.45c.1-.13-.06-.37-.21-.25a7.25,7.25,0,0,0-2.64,4.43,8,8,0,0,0,1,5.23,0,0,0,0,0,0,0c-.38-1.79-1-3.26-.66-5.14S100.43,31.81,101.46,30.45Z"/><path class="cls-14" d="M102.75,29.93s-.08.05,0,.07a2,2,0,0,1,1.08,1.32.11.11,0,0,0,.21,0C104,30.56,103.34,30.15,102.75,29.93Z"/><path class="cls-14" d="M120.43,35.52a1.42,1.42,0,0,0-2.07.15s0,.09.06.09a3.85,3.85,0,0,0,.75-.16,1.39,1.39,0,0,1,1,.22C120.41,35.94,120.56,35.67,120.43,35.52Z"/><path class="cls-14" d="M121.12,35.69c-.35,0-.32.54,0,.54S121.47,35.69,121.12,35.69Z"/><path class="cls-14" d="M94.12,34.11a12,12,0,0,0-5.36-4.75,18.51,18.51,0,0,0-7.29-2.43s0,0,0,0c2.24.93,4.5,1.69,6.66,2.81a17.9,17.9,0,0,1,3.09,1.87,37.35,37.35,0,0,1,2.54,2.79C94,34.63,94.24,34.35,94.12,34.11Z"/><path class="cls-14" d="M94.18,48.19a24.06,24.06,0,0,0-6.74,5.2c-1.69,1.84-3.32,4.27-3.61,6.8a.07.07,0,0,0,.13.05,31,31,0,0,1,4-6.42c1.91-2.14,4.3-3.47,6.51-5.24A.23.23,0,0,0,94.18,48.19Z"/><path class="cls-14" d="M102.32,49.17c-3.48,1.9-6,5.75-7.49,9.31-1.67,3.94-3.26,8-3.44,12.29,0,.17.25.18.29,0a55,55,0,0,1,1.5-6.24c.7-1.93,1.5-3.86,2.29-5.75a28.65,28.65,0,0,1,6.94-9.53C102.48,49.22,102.39,49.13,102.32,49.17Z"/><path class="cls-14" d="M111.59,53.12A33.31,33.31,0,0,0,106,55.46a40.24,40.24,0,0,0-6.38,3.24,0,0,0,0,0,0,.08,37.88,37.88,0,0,0,5.88-2.38,41.64,41.64,0,0,0,6.16-3A.17.17,0,0,0,111.59,53.12Z"/><path class="cls-14" d="M132.26,67.77A26.68,26.68,0,0,0,126,58.05s0,0,0,0c2.47,3,4,6.53,5.86,9.91C132,68.2,132.34,68,132.26,67.77Z"/><path class="cls-14" d="M132.33,69.59a18.06,18.06,0,0,1-3.22,5.78,32.24,32.24,0,0,1-4.47,3.87c-.17.14,0,.39.21.34,2-.53,3.76-2.48,5-4a13.09,13.09,0,0,0,2.6-5.93C132.43,69.55,132.34,69.53,132.33,69.59Z"/><path class="cls-14" d="M106.37,60c-3.59,1.52-6.7,3.24-8.86,6.58-1.78,2.75-3.12,6.55-1.82,9.74a.09.09,0,1,0,.17,0c-.82-3.2.57-6.69,2.23-9.39,2-3.23,5.25-4.76,8.39-6.65C106.6,60.18,106.51,60,106.37,60Z"/><path class="cls-14" d="M78.08,67.51a23.56,23.56,0,0,1-1.47-6.31c0-.09-.17-.12-.18,0a15.16,15.16,0,0,0,.86,6.15,14.55,14.55,0,0,0,3,5.45.14.14,0,0,0,.23-.15C79.76,70.89,78.76,69.28,78.08,67.51Z"/><path class="cls-14" d="M99.75,89.8c-.9-1-2-1.9-2.86-3S95.05,84.52,94,83.42c0-.06-.15,0-.1.09.93,1.16,1.78,2.39,2.66,3.59a9.06,9.06,0,0,0,3,3C99.74,90.15,99.86,89.93,99.75,89.8Z"/><path class="cls-14" d="M103.31,84.93c-.06-.07-.15,0-.11.09a12.75,12.75,0,0,0,1.29,2c.52.71,1,1.46,1.44,2.2.06.09.22,0,.18-.08A14.35,14.35,0,0,0,103.31,84.93Z"/><path class="cls-13" d="M87.48,70.86A26,26,0,0,1,84,67.42a23.27,23.27,0,0,1-2.33-4c0-.08-.16,0-.13.06a14.19,14.19,0,0,0,5.76,7.71C87.44,71.3,87.64,71,87.48,70.86Z"/><path class="cls-13" d="M97.23,91.26a27.49,27.49,0,0,1-5.45-6.74A26.5,26.5,0,0,1,89,76.25c0-.09-.15-.06-.15,0a21.74,21.74,0,0,0,2.41,8.55c1.25,2.54,3.21,5.32,5.74,6.71A.17.17,0,0,0,97.23,91.26Z"/><path class="cls-13" d="M106.26,95.13a26.91,26.91,0,0,0-4.8-8.29,39.7,39.7,0,0,0-7-7.12s-.08,0,0,.06A54.1,54.1,0,0,1,101.2,87,51.31,51.31,0,0,1,106,95.27C106,95.44,106.31,95.31,106.26,95.13Z"/><path class="cls-14" d="M70.46,53.34c-2.36-2.76-4.66-5.57-7.26-8.11s-5.63-5.12-8.54-7.56-5.91-4.84-8.89-7.22-5.9-4.86-8.92-7.19a.1.1,0,1,0-.13.14C39.31,26,42.19,28.32,45,30.67s5.89,4.86,8.82,7.31,5.78,5,8.59,7.51,5.28,5.34,7.9,8C70.41,53.61,70.55,53.44,70.46,53.34Z"/><path class="cls-14" d="M103.24,106c.78-1.22,1.74-2.5,1.59-4,0-.12-.19-.11-.2,0-.11,1.71-1.13,3-2,4.39a6.06,6.06,0,0,0-.9,4.35c.24,2-1.61,3-2.55,4.59s-.44,3.36-.14,4.9c.85,4.35-1.1,8.77-2.29,12.89a84.65,84.65,0,0,1-4.63,12.42.11.11,0,0,0,.19.1A68.42,68.42,0,0,0,97,134c.67-2.07,1.34-4.15,1.93-6.25a17.66,17.66,0,0,0,.9-6.11c-.17-2.15-1.21-4.27,0-6.32.74-1.3,2.31-2.21,2.28-3.88a12,12,0,0,1,0-3A8.22,8.22,0,0,1,103.24,106Z"/></g></g></g></svg>