<svg xmlns="http://www.w3.org/2000/svg" viewBox="0 0 132.84 177.44"><defs><style>.cls-1{isolation:isolate;}.cls-2{fill:#4b1e0a;}.cls-3,.cls-4,.cls-5{fill:#fdcc01;}.cls-4{mix-blend-mode:screen;}.cls-10,.cls-13,.cls-15,.cls-5,.cls-7{mix-blend-mode:multiply;}.cls-6,.cls-7{fill:#f2decb;}.cls-16,.cls-17,.cls-8{fill:#fff;}.cls-10,.cls-9{fill:#ee5d69;}.cls-11{fill:#22241d;}.cls-12,.cls-13{fill:#47494c;}.cls-13,.cls-17{opacity:0.5;}.cls-14,.cls-15{fill:#ede2d9;}.cls-16{opacity:0.7;}</style></defs><g class="cls-1"><g id="Layer_2" data-name="Layer 2"><g id="Layer_1-2" data-name="Layer 1"><path class="cls-2" d="M86.11,30.71c-.86-3-4.34-4.33-5.4-7.36a24,24,0,0,1-.95-3.87.52.52,0,0,0,.19-.24,24.87,24.87,0,0,0,.83-3.38A9.7,9.7,0,0,0,81,12.45h0a20.53,20.53,0,0,0-.48-2.78,10.88,10.88,0,0,0-5.7-7.39A22.57,22.57,0,0,0,63.32,0a16.75,16.75,0,0,0-10,3.65.21.21,0,0,0-.09.17c-.68.1-1.32.22-1.91.34A27.12,27.12,0,0,0,34.57,14.63C32.9,13.4,29.23,15,27.9,16a7,7,0,0,0-2.81,3.68c-.67,1.93-1.26,3-3.4,3.51-1.11.28-2.22.61-3.33.92-3.92,1.1-7.9,2.46-10.82,5.45C5.26,31.86,2.83,35.64,6.24,38a3.89,3.89,0,0,1-1.63,1.32,3.42,3.42,0,0,1-2.8.34A3.31,3.31,0,0,1,0,39a.15.15,0,0,0,0,.07c.62,1.67,1.28,2.73,3,3.36a5.08,5.08,0,0,0,2.86.2,10.44,10.44,0,0,0-.66,1.06c-1,1.93-1.6,4.82-.29,6.5a8.56,8.56,0,0,0-1.07,3.44c-.18,2,1.25,4.14,3,5.37a5.46,5.46,0,0,1,.44-3,1.59,1.59,0,0,1,.15-.29,7.59,7.59,0,0,1,3.18-3.38,32.46,32.46,0,0,1,3.95-1.75c3.3-1.35,6.57-2.77,9.93-4,2.71-1,5.84-2.16,7.39-4.77a7.84,7.84,0,0,0,1-3.8,41.9,41.9,0,0,0,1.75,4.09C38.38,49.71,47.49,56.34,56.21,54a.56.56,0,0,0,.17-.09,32.79,32.79,0,0,0,10.06.49c6.08-.52,11.13-3.84,15-8.43C84.55,42.18,87.51,35.7,86.11,30.71Z"/><path class="cls-3" d="M31.63,39.79c-.4,2.78-3.74,4.19-6,5.09-3.81,1.51-7.63,2.93-11.4,4.54C11.51,50.6,8.66,51.65,6.9,54.2a4.46,4.46,0,0,0-.82,2.45,5.65,5.65,0,0,1-1.23-2,5.29,5.29,0,0,1,.44-4.07,3.37,3.37,0,0,0,1.35.73,4.56,4.56,0,0,1-.82-1.47,7.2,7.2,0,0,1-.51-4.52A9,9,0,0,1,7,42.25a8.93,8.93,0,0,1,3.68-3.13l.24-.14a8.69,8.69,0,0,0-4.24,2.74,5.87,5.87,0,0,1-2.8.05A4.38,4.38,0,0,1,2,40.87a4.11,4.11,0,0,0,1.5-.14.16.16,0,0,1,.08-.06,5.41,5.41,0,0,0,2.66-1.51,2.67,2.67,0,0,0,.32-2.4,2.24,2.24,0,0,1,0,.52C2.8,33.39,8.74,28.76,12.08,27c2.92-1.53,6.44-2.21,9.62-3a4.71,4.71,0,0,0,3.86-3.22,7.07,7.07,0,0,1,4-4.88c1.07-.54,3.4-1.28,4.7-.82a23,23,0,0,0-1.36,2.31c-2.83,5.54-2.56,12.11-.82,18.11C32,37,31.84,38.38,31.63,39.79Z"/><path class="cls-4" d="M11.88,27.12a2.57,2.57,0,0,0-.57.76c-.59,1.19.9,1.2,1.69,1,1.77-.42,3.33-1.47,5.15-1.73,1.34-.19,1.84.8,1.09,1.91a28,28,0,0,1-1.89,2.34c-.61.73-2.11,2.14-1.79,3.23s5.4-2.26,6.14-2.59c.47-.2,1.4-.62,1.69.07.39.89-.48,2.22-.84,3s-2.48,6,.26,5.1c1.91-.66,2.48-3.17,4.44-3.79a.22.22,0,0,1,.28.16,10.26,10.26,0,0,1,.29,2.48c0,.37.07,1.27.49,1.47.72.33,1.32-.57,1.8-.94a1.12,1.12,0,0,1,1.54.07c.19-1.38.31-2.77.41-4.16-.14-.49-.27-1-.39-1.48-.39,0-.8,0-1.24,0a1.27,1.27,0,0,1-.81-.32,2.43,2.43,0,0,1-.58-2c0-.78.27-2.57-1.07-1.61-.51.37-2.38,2.57-2.7.94-.44-2.17,2.16-4.05,1.66-6.12-1.55.62-2.35,3.53-4.18,3.33a1.3,1.3,0,0,1-1.3-1.11c-.06-.72.83-1.48,1.28-1.91s1.56-1.48.92-1.93A7.07,7.07,0,0,1,21.7,24c-3.18.78-6.7,1.46-9.62,3Z"/><path class="cls-3" d="M35.75,42.18a33.26,33.26,0,0,1-3.24-8.27c0-.08,0-.17,0-.24l0-.07a25.19,25.19,0,0,1,.89-15.28C36.29,11.23,43.52,7,50.67,5.19a32.11,32.11,0,0,1,8.84-1,30.51,30.51,0,0,1,4.06-.07c.79,0,1.59.11,2.39.22C62.29,3.1,57.7,3.23,54,3.73A24.18,24.18,0,0,1,61.63,1.1a23.68,23.68,0,0,1,10,1,11.18,11.18,0,0,1,7,5.32,13.73,13.73,0,0,1,1.57,6.36c-.12,1-.22,2-.37,3,0,.13-.07.25-.11.37s0,.08,0,.13-.35.45-.42.18c-.12-.45-.27-.89-.41-1.33a11.85,11.85,0,0,0-1.33-1.32c-1.83-1.61-4.2-2.29-6.08-3.76a9.92,9.92,0,0,0,.16-1.25c-.11-.29-.23-.59-.32-.9a8.57,8.57,0,0,1-.64,1.95,11.72,11.72,0,0,1-3.48,5.59,26.81,26.81,0,0,1-8.08,4.81A32.51,32.51,0,0,1,39.56,23c-.33-.08-.61.39-.28.57,2.81,1.6,6.54,1.2,9.63.91a44.39,44.39,0,0,0,5.75-.91,43.87,43.87,0,0,1-2.89,10.67,38.21,38.21,0,0,1-5.44,8.41c-.67-.8-1.1-1.36-2.23-1.4a4.19,4.19,0,0,0-2.58,1c-1.84,1.47-.61,4.35.31,5.94,1,1.79,3.13,3.68,5.35,3.4a5.11,5.11,0,0,0,2.9-1.29,10,10,0,0,0,4.52,3C46.85,54.48,39.37,48.62,35.75,42.18Z"/><path class="cls-4" d="M33.9,33.59C35.69,32.27,35,29,37,27.94a.24.24,0,0,1,.31.08A5.62,5.62,0,0,1,38,31a7.43,7.43,0,0,0,.3,2c.22.57.86,1.54,1.62,1.22.94-.39,1.41-1.76,1.88-2.58a4,4,0,0,1,1.65-1.83.24.24,0,0,1,.31.08c.62,1,.09,4.07,1.53,4.32.66.12,1-1.36,1.25-1.73a1.93,1.93,0,0,1,1-.74c1.22-.4,1.49,1.82,2.1,2.33.85.72,1.85-.28,2.66-1.3a44.36,44.36,0,0,0,2-7.35l-.08,0c-1.2.47-1.95,1.72-2.69,2.71-.43.59-1.05,1.68-1.83,1.85-2.17.49-2.1-3.34-2.05-4.56l0-.79c-.91.08-1.85.14-2.79.15a35,35,0,0,1-2.08,3.81c-1,1.27-2.22.48-2.45-1a10.82,10.82,0,0,1,.11-3.41,7.49,7.49,0,0,1-1.26-.57c-.33-.18-.05-.65.28-.57s.75.18,1.13.25c.11-.66.22-1.33.28-2s0-3-1.42-2.16a5.57,5.57,0,0,0-1.64,2c-.81,1.43-1.36,3-2,4.45-.22.49-1.56,3-2.16,1.39-1-2.69.44-5.63-.36-8.36l-.15.09a25.22,25.22,0,0,0-.8,14.76A1.07,1.07,0,0,0,33.9,33.59Z"/><path class="cls-5" d="M10.89,39c-1.73-.31-3.63,1.38-5.18,1.91a5.08,5.08,0,0,1-3.44.18,4.32,4.32,0,0,0,1.56.71,5.87,5.87,0,0,0,2.8-.05A8.78,8.78,0,0,1,10.86,39Z"/><path class="cls-5" d="M26.15,19.26A10.39,10.39,0,0,1,27,17.84,6.75,6.75,0,0,0,26.15,19.26Z"/><path class="cls-5" d="M6.76,50.89C6,46,10.38,42.55,14.34,40.43c1.54-.83,3.5-1.71,5.21-2.84C15.62,39.66,10.62,39,7.21,42.13c-.21.19-.41.39-.61.59a9.08,9.08,0,0,0-1.29,2.63,4.69,4.69,0,0,0-.16.91A6.92,6.92,0,0,0,6.76,50.89Z"/><path class="cls-5" d="M8.74,50.05A17.54,17.54,0,0,1,16,46.16a36.69,36.69,0,0,1,8.36-.79l1.27-.49c2.25-.9,5.59-2.31,6-5.09.21-1.41.33-2.84.43-4.27a29.49,29.49,0,0,1-1.16-11.4,9.55,9.55,0,0,0-1.47,3.63c-.69,3.46-1.46,7.24-4,9.86-2.72,2.77-6.61,3-9.8,4.89A19,19,0,0,0,7.85,51,8.47,8.47,0,0,1,8.74,50.05Z"/><path class="cls-5" d="M19,46.08a17.86,17.86,0,0,0-8.85,3.39A8.57,8.57,0,0,0,6.6,54.71q.14-.26.3-.51c1.76-2.55,4.61-3.6,7.34-4.78,2.94-1.25,5.9-2.39,8.86-3.55A34.35,34.35,0,0,0,19,46.08Z"/><path class="cls-5" d="M51.22,35.43c.19-.39.37-.79.55-1.19a43.87,43.87,0,0,0,2.89-10.67,44.39,44.39,0,0,1-5.75.91,31.16,31.16,0,0,1-6,.18c1,.29,2,.48,2.93.82a11.1,11.1,0,0,1,3.53,1.79c1.84,1.57,2.2,3.88,2,6.19C51.37,34.12,51.3,34.78,51.22,35.43Z"/><path class="cls-5" d="M50.08,50.34a5.11,5.11,0,0,1-2.9,1.29c-2.22.28-4.32-1.61-5.35-3.4-.92-1.59-2.15-4.47-.31-5.94a4.19,4.19,0,0,1,2.58-1,2.26,2.26,0,0,1,1.74.83,0,0,0,0,0,0,0,3.06,3.06,0,0,0-4.9-1.31c-1.16.86-2.61,2.17-4.2,1.82a2.86,2.86,0,0,1-1-.4v0c3.62,6.44,11.1,12.3,18.85,11.2A10,10,0,0,1,50.08,50.34Z"/><path class="cls-5" d="M80.19,13.75A13.49,13.49,0,0,0,80,11.21a9.93,9.93,0,0,1-9-4.85c-1.73,5.1-6.12,9.11-10.66,11.76-4.9,2.87-10.37,5.24-16.09,5.6a34,34,0,0,0,14.94-2.48,26.81,26.81,0,0,0,8.08-4.81,11.72,11.72,0,0,0,3.48-5.59,8.57,8.57,0,0,0,.64-1.95c.09.31.21.61.32.9A9.92,9.92,0,0,1,71.48,11c1.88,1.47,4.25,2.15,6.08,3.76a11.85,11.85,0,0,1,1.33,1.32c.14.44.29.88.41,1.33.07.27.44,0,.42-.18s0-.08,0-.13.08-.24.11-.37C80,15.77,80.07,14.76,80.19,13.75Z"/><path class="cls-6" d="M85.34,34.9a22.08,22.08,0,0,1-3,8.22A21.25,21.25,0,0,1,68,53.22a27.8,27.8,0,0,1-8.78.07A21.83,21.83,0,0,1,50.42,50a3.5,3.5,0,0,0,.7-1.55c.08-.4-.46-.47-.6-.13-1.25,3.08-4.42,3.07-6.72,1.21a8.08,8.08,0,0,1-2.41-3.79C40.27,42.36,44,41.08,46,43.06l-.29.38a.34.34,0,1,0,.53.42,45.94,45.94,0,0,0,6.26-9.34,26.19,26.19,0,0,0,2.55-11.05,36.49,36.49,0,0,0,5.08-1.6c4.61-1.82,9.78-5.18,11.17-10.1,1,1.13,3,1.8,4.19,2.57a14.26,14.26,0,0,1,2.89,2.48c.61.71.5,1.8.93,2.63a.38.38,0,0,0,.11.11c.06.64.13,1.29.19,1.93a8.81,8.81,0,0,0,2.3,5.36,20.89,20.89,0,0,1,3,3.13C85.75,31.36,85.54,33.37,85.34,34.9Z"/><path class="cls-7" d="M79.33,19.58a2.33,2.33,0,0,0-.07-.25,5.23,5.23,0,0,1-.23-.77,3.94,3.94,0,0,0-.64-1.74,14.26,14.26,0,0,0-2.89-2.48c-1.17-.77-3.14-1.44-4.19-2.57-1.39,4.92-6.56,8.28-11.17,10.1a36.49,36.49,0,0,1-5.08,1.6,26.19,26.19,0,0,1-2.55,11.05,45.94,45.94,0,0,1-6.26,9.34.34.34,0,0,1-.61-.29A5.45,5.45,0,0,0,43.56,43a1.46,1.46,0,0,0-1,.65,3.62,3.62,0,0,0-.31,2.27,18.11,18.11,0,0,0,1,1.7,7.68,7.68,0,0,0,1.62,1.88c1.39.8,3.4,1.41,4.56.38a.35.35,0,0,1,.13-.08,4.33,4.33,0,0,0,1-1.49c.14-.34.68-.27.6.13a3.5,3.5,0,0,1-.7,1.55,23.78,23.78,0,0,0,6.64,2.91,11.38,11.38,0,0,1-3.29-3.09A10.35,10.35,0,0,1,53.13,39c.77-1.61,1.58-3.19,2.3-4.83a43.8,43.8,0,0,0,1.7-4.95,14.24,14.24,0,0,1,1.1-2.78.34.34,0,0,1,.34-.29c2.92-.05,5.6-1.8,7.76-3.62C67,22,67.6,21.44,68.2,20.83a18.76,18.76,0,0,0,3.33-3.91c.11-.2.69-1.72,1-1.55.84.45,1.78.76,2.62,1.25a36.24,36.24,0,0,1,4.33,3.48A2.74,2.74,0,0,1,79.33,19.58Z"/><path class="cls-7" d="M76.38,37.73a4.49,4.49,0,0,0-1.12.69.17.17,0,0,1-.05.13c-1.9,2.17-4.2,4-5.7,6.52a13.12,13.12,0,0,0-1.63,4c-.33,1.71,1.5,1.61,2.5,1.12.49-.24,1-.51,1.46-.8a11.57,11.57,0,0,0,5.27-6.56A10.1,10.1,0,0,0,77.55,39C77.49,38.39,77.29,37.35,76.38,37.73Z"/><path class="cls-7" d="M62.47,26.63a.19.19,0,0,1-.18.08c-1.39,1.52-.83,5.41,1.74,5.16,2.11-.21,1.78-2.64.84-3.93C64.61,27.58,63,26,62.47,26.63Z"/><path class="cls-7" d="M76.28,27.09a2.81,2.81,0,0,0,1.62.41c1.46-.18,1-1.81.84-2.61C78.48,23.56,77.67,22,76.09,22,74.75,23.13,74.73,26.15,76.28,27.09Z"/><path class="cls-7" d="M78.63,29.14a3,3,0,0,0-1-.28c1.79,1.34-1.21,6.4-3.42,6.14-.12.8.22,1.37,1.28,1.27a4.87,4.87,0,0,0,2.34-.84c1.25-.9,2.51-2.55,2.11-4.2A3.08,3.08,0,0,0,78.63,29.14Z"/><path class="cls-2" d="M47.63,46.66c-.68-.78-1.62-1.85-2.78-1.72a1.29,1.29,0,0,0-1.16,1.81c.1.24.41,0,.37-.17-.31-1.32,1.19-.81,1.75-.45s.75.94,1.37,1.1C47.44,47.29,47.87,46.93,47.63,46.66Z"/><path class="cls-2" d="M63.64,22.72a4.45,4.45,0,0,0-4.08.29.26.26,0,0,0-.09.09h0c-.3.18-.38.78.1.7h0a4.65,4.65,0,0,0,1.58.15h0a7.62,7.62,0,0,0,1.92.39C63.84,24.35,64.55,23.09,63.64,22.72Z"/><path class="cls-2" d="M75.88,17a6.3,6.3,0,0,0-2,3.27c-.15,1.22,1.4,1.15,1.64.11a7.17,7.17,0,0,1,.58-1.54,8.06,8.06,0,0,0,.5-1.58C76.69,16.75,76.13,16.72,75.88,17Z"/><path class="cls-2" d="M78.81,29.44c-.25-1.37-2-1.3-3-1a8,8,0,0,0-3.49,3.13c-.15.22.1.43.28.23a12.47,12.47,0,0,1,2-1.89c.76-.54,3.2-1.82,3.4,0a3.85,3.85,0,0,1-1,2.3,7.18,7.18,0,0,1-2.52,2.19c-.27.15-.48.79,0,.79C76.76,35.23,79.22,31.62,78.81,29.44Z"/><path class="cls-2" d="M77.54,39.49c0-1.58-.07-3.16-2-1.51a26.06,26.06,0,0,0-4.2,4.76A21.21,21.21,0,0,0,68,48.24c-1.14,3.58,1.94,1.83,3.56.45.53-.46,1.11-1,1.69-1.49A16.24,16.24,0,0,0,76,44.07a11,11,0,0,0,1.57-4.57Z"/><path class="cls-8" d="M73.8,40.73a17.77,17.77,0,0,1,2.12-2.13,6,6,0,0,1-.44,1.83,5.69,5.69,0,0,1-1,2.18,5.38,5.38,0,0,1-2.13,1.32,2.3,2.3,0,0,1-1,0C72.12,42.8,73,41.74,73.8,40.73Z"/><path class="cls-9" d="M69.13,49.44c-1,.58.14-2.15.29-2.44s.39-.74.61-1.11a2.37,2.37,0,0,1,.48,1c.11.42,0,1,.2,1.41l-.11.09A7.43,7.43,0,0,1,69.13,49.44Z"/><path class="cls-10" d="M69.13,49.44c-1,.58.14-2.15.29-2.44s.39-.74.61-1.11a2.37,2.37,0,0,1,.48,1c.11.42,0,1,.2,1.41l-.11.09A7.43,7.43,0,0,1,69.13,49.44Z"/><path class="cls-9" d="M72.72,46.6c-.5.46-1,.89-1.53,1.33a2.72,2.72,0,0,0-.93-2.41c.22-.36.45-.73.7-1.08.94.72,2.73-.07,3.4-.82a12.56,12.56,0,0,0,1.53-2.57,5.37,5.37,0,0,0,.76-2.59,5,5,0,0,1,.4,1.64C76.48,42.52,74.51,45,72.72,46.6Z"/><path class="cls-2" d="M132.76,73.1c-.66-1.9.42-6.2-2.12-6.95a22,22,0,0,0-4.52-.4c-1.19-.08-2.2-.27-3.16.51a4.64,4.64,0,0,0-1.16,1.45l-.14,0c-.38,0-.76-.07-1.15-.09s-1,0-1.18-.27c.17-1,.35-2.08.59-3.12a.42.42,0,0,0-.36-.55c-2.32-.33-4.67-.55-7-.92-.88-.14-2.9.18-3.86-.27.9-1.17,1.8-2.34,2.72-3.5a18,18,0,0,0,.87-4c0-.23,0-.47,0-.7s0-.32,0-.49a.36.36,0,0,1,0-.1c0-.87-.13-1.73-.24-2.52a30.45,30.45,0,0,0-1.39-6.18c.34-.61.69-1.21,1.07-1.8.23-.34.38-.75.6-1.11a1.91,1.91,0,0,0,.88-.22,5.43,5.43,0,0,0,2.31-1.38c1.75-1.59,3.07-3.93,2-6.25a84.89,84.89,0,0,1-3.85-11.33c-.82-2.78-1.81-6.12-4.21-8a.61.61,0,0,0-.26-.18l-.12-.09a.37.37,0,0,0-.33-.06,2.37,2.37,0,0,0-.32-2.64,1.72,1.72,0,0,0-2.14-.45l0-.05a1.64,1.64,0,0,0-1.07-.31,1.24,1.24,0,0,0-.72.24,1.18,1.18,0,0,0-.6-.37,1.66,1.66,0,0,0-1.59.53l-.15-.08a2.17,2.17,0,0,0-1.46-.17.88.88,0,0,0-.59.55,2.78,2.78,0,0,0-3.13.28c-.93.78-.68,2.09-.31,3.08a4,4,0,0,0,2.59,2.55,2.56,2.56,0,0,0,.24.57c.24.43.59.83.87,1.25q2.42,4.92,4.78,9.88c1,2.11,1.82,4.3,2.7,6.46a.09.09,0,0,0,0,.05,24.9,24.9,0,0,1-.08,3.67c-.71-.67-1.73-1.46-2.23-1.23-1.87,2.44-3.7,4.93-5.55,7.41-2.63,3.51-5.19,7.06-7.72,10.64a.35.35,0,0,0-.07-.42,16.07,16.07,0,0,0-4-2c-1.94-.86-3.87-1.72-5.9-2.39a3.82,3.82,0,0,0-3.55.22,3.11,3.11,0,0,0-1.49,0c-.6,0-1.19.14-1.78.21,0-.14,0-.27,0-.41a.37.37,0,0,0-.34-.27c-1.9.06-3.29,1.64-5.13,2-.52-.31-2.33.33-2.88.38a37.83,37.83,0,0,1-7.13.28,8,8,0,0,0-1.09-.45c-.08-.2-.29-.32-.62-.18A5.34,5.34,0,0,0,56.35,55a22.91,22.91,0,0,0-1.45,2.05h0l0,0c-1-.44-2-.26-3.4.8a67.9,67.9,0,0,0-7.84,7.52A51.25,51.25,0,0,0,32.51,84.34c-.54,1.66-.7,3.73,1.73,3.45,3.64-.42,7.3-1.74,10.85-2.62l2-.53c-.75,2-.13,3.25,1.11,4.07a3.72,3.72,0,0,0,.17,2.51c-1.83.16-3.75,1.83-5.34,2.55-.58.27-2.09.94-1.5,1.86.74,1.15,2.74,1.74,4.44,2.17-.37,5.46,1.87,10.65,3.15,15.88.41,1.69.76,3.37,1.27,5,.26.88.71,2-.19,2.6a5.66,5.66,0,0,0-.8.74c-1,1,.24,1.85,1,2.5a2.58,2.58,0,0,0-.07.68c.15,2.33-1.27,4.79-1.77,7.08C47.31,138,45.84,143.8,45,149.6c-.2,1.31-.33,2.63-.6,3.93a5.36,5.36,0,0,0-.17,2.41c.46,1.3,1.85,1.95,3,2.6a17.62,17.62,0,0,0,3.3,1.43,15.43,15.43,0,0,1-.43,3.82c-.13.8-.31,1.64-.4,2.47a2.53,2.53,0,0,0-.57,1.4c-.14,1.62-.65,5,1.6,5.43,3.3.6,5.36,3.65,8.65,4.22a8.46,8.46,0,0,0,1.53.13.28.28,0,0,1,.28-.16,5.65,5.65,0,0,0,3.9-.85c.66-.39,2.26-.91,2.59-1.52,0-.08.14-.19.24-.18.74.09,1.19-.49,1.76-.81.27-.16.88-.07,1.13-.14h.09c1.46-.75,2.52-2.74,1.47-4.11-.92-1.21-2.95-.61-4,.32-2.46-.72-5.24-.46-7.74-1.07a21.94,21.94,0,0,1-6.55-3c-.09-1.66.35-3.36.43-5a62.53,62.53,0,0,0,6.74.42.63.63,0,0,0,.46-.2c.16.24.64.11.76-.25A85.62,85.62,0,0,0,65.19,147q1.05-7.09,2.2-14.18c.75-4.55,1.35-9.12,1.93-13.69.29-2.3.61-4.63.77-7,1.8.23,4-1.62,5.34-2.53a14.31,14.31,0,0,0,4.65-5.18c2.62-3.58,5.32-7.11,7.85-10.77,1.61-2.34,3.19-4.69,4.77-7.06a63.71,63.71,0,0,0,3.87-5.81c1.6-.8,4-2,2.94-3.63a1.64,1.64,0,0,1-.14-1.43,22.68,22.68,0,0,1,2.67.57,36.35,36.35,0,0,0,4.76.56,54.77,54.77,0,0,0,8.4-.1c1.85-.2,2.42-1.3,2.89-3,.16-.58.29-1.16.41-1.74.94.31,2,.24,2.94.49v0a27.06,27.06,0,0,0,.55,3.52.32.32,0,0,0,.23.25,7.29,7.29,0,0,1,4,1.74c.45.43,1.12.92,1.64.27a2.65,2.65,0,0,0,.41-1.84l.15,0a.21.21,0,0,0,.27.1C129.94,76.39,133.42,75,132.76,73.1Z"/><path class="cls-11" d="M110.67,46.81A21,21,0,0,1,111.34,57,11.91,11.91,0,0,1,110,54.52,42.63,42.63,0,0,1,108.14,50c.69-1.44,1.35-2.9,2.09-4.32l0,0C110.48,46.27,110.63,46.69,110.67,46.81Z"/><path class="cls-6" d="M105.72,28a34.84,34.84,0,0,0-4.41-8.49q-.18-.39-.39-.75c-.44-.85-1.47-1.44-.71-2.52a3.7,3.7,0,0,1,2.85-1.42,7.48,7.48,0,0,0-3.27.83,3.93,3.93,0,0,0-.31.38,1.76,1.76,0,0,0-.33,1A4,4,0,0,1,97,13.16c.2-1.38,2.11-1.07,2.86-.59a2,2,0,0,1,.35.3,3.07,3.07,0,0,1,1.19,1.54c.52-.45-.46-1.8-.84-2.11a.25.25,0,0,1,0-.35.33.33,0,0,1,.23-.17c1.21-.18,1.92,1,2.32,2l0,0c0-.52-.4-.93-.45-1.45,0-.32,0-.85.42-.93.83-.17,1.17.76,1.43,1.38a.22.22,0,0,1,0,.22,4.62,4.62,0,0,1,.11.61c.29.06.32-1,.31-1.17s-.08-.32-.09-.47h0v0h0c0-.13.05-.24.26-.3.55-.17,1,.39,1.19.83a2.51,2.51,0,0,1,.22,1.46.62.62,0,0,0,.39-.31,1.81,1.81,0,0,0-.17-1.55,2.16,2.16,0,0,1,1,.77,1.3,1.3,0,0,1,.22.87,2.66,2.66,0,0,0,.31,1.28c.31.39.69.72,1,1.11a10.77,10.77,0,0,1,.88,1.35c2.21,3.29,3.15,7.41,4.08,11.24a25.86,25.86,0,0,0,2.16,5.55c1.17,2.32-.24,4.3-1.92,5.81a2.57,2.57,0,0,1-1.63.73v0a2.89,2.89,0,0,1-1.91-.74c-.21-.25-.51,0-.48.29a1.82,1.82,0,0,0,.91,1.43c-.43.62-.75,1.43-1,1.91a19.81,19.81,0,0,0-2.47,5.48,39.31,39.31,0,0,1-1.25-4.34,11.34,11.34,0,0,0,2.17-6.74l0,.05c.1.21.19.43.29.64a15,15,0,0,0-1-5C107.3,31.85,106.44,30,105.72,28Z"/><path class="cls-7" d="M112.86,36.85a7.85,7.85,0,0,1-2.72-4.24A17.8,17.8,0,0,0,106.59,25a28.69,28.69,0,0,1-3.48-5c-.55-1-1.42-2.45-1.19-3.68a2.14,2.14,0,0,1,.93-1.41,3.53,3.53,0,0,0-2.64,1.39c-.76,1.08.27,1.67.71,2.52q.21.36.39.75A34.84,34.84,0,0,1,105.72,28c.72,1.91,1.58,3.81,2.42,5.69a15,15,0,0,1,1,5c-.1-.21-.19-.43-.29-.64l0-.05a11.34,11.34,0,0,1-2.17,6.74,39.31,39.31,0,0,0,1.25,4.34,19.81,19.81,0,0,1,2.47-5.48c.29-.48.61-1.29,1-1.91a1.82,1.82,0,0,1-.91-1.43c0-.25.27-.54.48-.29a2.89,2.89,0,0,0,1.91.74v0a2.57,2.57,0,0,0,1.63-.73,7.17,7.17,0,0,0,2.17-3A3.27,3.27,0,0,1,112.86,36.85Z"/><path class="cls-7" d="M108,14.56a.24.24,0,0,1-.08-.15,4.82,4.82,0,0,0-.54-1.47c-.16-.23-.35-.45-.5-.68a1.71,1.71,0,0,1,.07,1.35.62.62,0,0,1-.39.31.28.28,0,0,1,0-.09.32.32,0,0,1-.22.06,1.18,1.18,0,0,1-1-.9c-.09-.23-.07-.66-.24-.84l-.22-.21h0c0,.15.09.32.09.47s0,1.23-.31,1.17a.38.38,0,0,1-.46,0c-.53,0-1.08-.72-1.29-1.08-.06-.12-.12-.24-.17-.36a.86.86,0,0,0,0,.16,4.3,4.3,0,0,0,.37,1.06l0,0a.41.41,0,0,1,0,.26s0,.06,0,.09l0,0v0a.4.4,0,0,1-.43.2c-.54-.11-.82-.69-1.11-1.1a1.66,1.66,0,0,0-.76-.61h-.08a.35.35,0,0,1-.23,0,.21.21,0,0,0,0,.06c.35.29,1.23,1.48.93,2a.38.38,0,0,1-.12.18,1.76,1.76,0,0,1-.66.35l-.21.08A1.83,1.83,0,0,1,99,15a3.1,3.1,0,0,1-1.56-1.3,1.31,1.31,0,0,1-.33-.86,1.2,1.2,0,0,0-.11.35,4,4,0,0,0,2.12,3.92,1.76,1.76,0,0,1,.33-1,3.93,3.93,0,0,1,.31-.38,7.42,7.42,0,0,1,3.09-.82C104.14,14,106.34,14.14,108,14.56Z"/><path class="cls-11" d="M106,39.32c.42-.33,1,.16,1.58,1v0a15.65,15.65,0,0,1-1.27,3.24,24.45,24.45,0,0,1-.4-4.25Z"/><path class="cls-12" d="M75.17,58.56a26.25,26.25,0,0,0,.33-6,7.33,7.33,0,0,0,1.49.21,9.38,9.38,0,0,0,1.06,0,3,3,0,0,0-.18.72c-.05.31.34.36.46.1,1.24-2.76,5.19-.49,7.16.33s4.13,1.9,6.23,2.76a.38.38,0,0,0,.39-.09q-2.4,3.42-4.76,6.88L86.3,65c-.1-.51-.21-1-.34-1.51a.34.34,0,0,0,.11-.17c.38-1.21.55-2.46.81-3.7.07-.37-.4-.32-.49,0a19.6,19.6,0,0,0-.79,2.66,23.92,23.92,0,0,0-1.46-3.59c-.09-.18-.38,0-.32.2a30.22,30.22,0,0,1,1.29,3.6c.31,1.08.4,2.22.66,3.31C83.89,68.53,82,71.23,80.19,74a51.91,51.91,0,0,0-3.25-4.63c-.29-.41-.59-.79-.89-1.19a5,5,0,0,0,.35-1c.18-.94.33-2.26-.3-2.84A2.72,2.72,0,0,0,75,62.38a1.68,1.68,0,0,0-.32-.33l0-.09C74.87,60.8,75,59.62,75.17,58.56Z"/><path class="cls-6" d="M68.08,72.33a.3.3,0,0,0-.27-.1l-.15,0a2,2,0,0,1-.39-.14l-.13-.06a1.05,1.05,0,0,0,.18.25,12.72,12.72,0,0,0-1.32.34,4.43,4.43,0,0,0-1.12.52c-.06-.36-.12-.73-.17-1.1s-.1-.89-.14-1.6a5.08,5.08,0,0,0,1.19-.32,3.37,3.37,0,0,0,1.16-.51,7.81,7.81,0,0,0,.25,1,3.48,3.48,0,0,0,0-.72.21.21,0,0,0,.08-.15,2.88,2.88,0,0,1,0-.42.56.56,0,0,0,0-.52,19.88,19.88,0,0,1,.9-3.9A3.85,3.85,0,0,1,70.33,62c.73-.36,1.55-.51,2.31-.81a1.41,1.41,0,0,1,.71.42,3.68,3.68,0,0,0-2.29,1c-.21.19,0,.52.22.34a3.25,3.25,0,0,1,2.15-.52h0a4.64,4.64,0,0,0-.89.37c-.35.2-.62.51-1,.55-.26,0-.36.47-.06.51.92.11,1.8-.67,2.74-.7h.09a.38.38,0,0,0,.13.06c.11.22.2.46.28.65A.25.25,0,0,0,75,64h0a4.25,4.25,0,0,0-2.94,1.67.39.39,0,0,0,.51.56c.51-.2,1-.52,1.46-.75a4.06,4.06,0,0,1,1-.33c.43-.07.34.29.33.62,0,1.22,0,2.22-.81,3.18-.09.11-.28.35-.45.24-.46-.29,0-1.18.15-1.48h0c.21-.21.44-.41.66-.65s.07-.56-.23-.5a2.17,2.17,0,0,0-2,2.46c.13,1.47-.32,1.86-1.53,2.63a3.79,3.79,0,0,1-2.83.68A1.13,1.13,0,0,1,68.08,72.33Z"/><path class="cls-7" d="M73.32,61.58a2,2,0,0,0-1.56.11.92.92,0,0,0-.64.82,3.63,3.63,0,0,1,2.23-.9s0,0,0,0Z"/><path class="cls-7" d="M72.82,62.43a3.65,3.65,0,0,0-.74.28c-.26.13-.6.28-.66.59v0h.06c.42,0,.69-.35,1-.55a4.64,4.64,0,0,1,.89-.37h-.21C73.07,62.39,72.94,62.4,72.82,62.43Z"/><path class="cls-7" d="M73.26,63.89c-.48.1-1.4.33-1.36,1a5.14,5.14,0,0,0,.16.8h0a4.1,4.1,0,0,1,2.75-1.63A3.32,3.32,0,0,0,73.26,63.89Z"/><path class="cls-7" d="M73.06,66.61c-1,.67-.45,2.52-1.15,3.45a2.78,2.78,0,0,1-1.5,1,3.32,3.32,0,0,1-3,.13,1.43,1.43,0,0,1-1.43,0,1.24,1.24,0,0,1-.52-1,3.42,3.42,0,0,1-.93.23c0,.71.1,1.32.14,1.6s.11.74.17,1.1A4.43,4.43,0,0,1,66,72.64a12.72,12.72,0,0,1,1.32-.34,1.05,1.05,0,0,1-.18-.25l.13.06a2,2,0,0,0,.39.14l.15,0a.3.3,0,0,1,.27.1,1.13,1.13,0,0,0,.26,0,3.79,3.79,0,0,0,2.83-.68c1.21-.77,1.66-1.16,1.53-2.63a2.17,2.17,0,0,1,2-2.46c.3-.06.41.3.23.5s-.45.44-.66.65h0c-.14.3-.61,1.19-.15,1.48.17.11.36-.13.45-.24.85-1,.76-2,.81-3.18v0A9.5,9.5,0,0,0,73.06,66.61Z"/><path class="cls-11" d="M66.17,77.62h0A28.63,28.63,0,0,1,65,73.74c.34-.09.67-.23,1-.32l.27-.08C66.56,74.88,66.76,76.67,66.17,77.62Z"/><path class="cls-11" d="M64.89,66.93l.07,0h0a4.87,4.87,0,0,1,.47,1.59c0,.3.11.59.16.89-.18.07-.35.13-.52.21s-.35.19-.52.28A7.12,7.12,0,0,1,64.89,66.93Z"/><path class="cls-12" d="M73.38,70.82a4.6,4.6,0,0,0,.21-1,1.38,1.38,0,0,0,.33.2c.69.21,1.3-.35,1.74-1.06l.18.24a33.32,33.32,0,0,1,3.85,5.58c-.57.88-1.13,1.77-1.68,2.66a45.44,45.44,0,0,0-4.78-6.3A1.59,1.59,0,0,0,73.38,70.82Z"/><path class="cls-12" d="M69.77,61.16c.27-1.62.48-3.28.62-4.92a5.34,5.34,0,0,0-.06-2.45,4.18,4.18,0,0,0,1.56-.36c.51-.24,1-.49,1.52-.75,1.69-.88,1.14,2.34,1.11,2.79-.14,1.77-.29,3.62-.55,5.45a1.67,1.67,0,0,0-1.14-.38h0a5.76,5.76,0,0,0-.82.06h0a6.75,6.75,0,0,0-2.17.75l-.1-.09A.3.3,0,0,0,69.77,61.16Z"/><path class="cls-6" d="M67.78,54.5c1.74-.14,1.89.08,1.82,1.9-.06,1.49-.33,3-.35,4.45-1.23-1-2.53-2-3.88-2.89s-2.74-2.26-4.2-3.26A27.81,27.81,0,0,0,67.78,54.5Z"/><path class="cls-7" d="M67.78,54.5c1.74-.14,1.89.08,1.82,1.9-.06,1.49-.33,3-.35,4.45-1.23-1-2.53-2-3.88-2.89s-2.74-2.26-4.2-3.26A27.81,27.81,0,0,0,67.78,54.5Z"/><path class="cls-12" d="M56.64,56c.63-.58,1.31-1.12,1.94-1.71,1.93,1.25,3.67,2.74,5.5,4.13,1.6,1.22,3.3,2.26,4.9,3.49a4.74,4.74,0,0,0-1.38,1.7,8.25,8.25,0,0,0-.45,1.24c-1.9-1.84-3.88-3.64-5.93-5.3C59.9,58.5,57.85,56.92,56,56.72A6,6,0,0,1,56.64,56Z"/><path class="cls-13" d="M79.29,74a1.2,1.2,0,0,1-1.48.87c-1.23-.34-1.8-1.6-2.32-2.65s-.12-2,.45-2.89l-.1-.12-.18-.24c-.44.71-1,1.27-1.74,1.06a1.38,1.38,0,0,1-.33-.2,4.6,4.6,0,0,1-.21,1,1.59,1.59,0,0,1-.15.29A45.44,45.44,0,0,1,78,77.41c.55-.89,1.11-1.78,1.68-2.66C79.57,74.49,79.43,74.22,79.29,74Z"/><path class="cls-13" d="M73.41,52.68c-.51.26-1,.51-1.52.75a4.18,4.18,0,0,1-1.56.36,5.34,5.34,0,0,1,.06,2.45c-.14,1.64-.35,3.3-.62,4.92a.3.3,0,0,1,0,.1l.1.09A6.75,6.75,0,0,1,72,60.6h0a5.76,5.76,0,0,1,.82-.06h0a1.67,1.67,0,0,1,1.14.38c.08-.58.15-1.17.21-1.76a1.29,1.29,0,0,1-.9.47,2.74,2.74,0,0,1-1.64.07.61.61,0,0,1-.45-.59c0-.13,0-.27,0-.4l0-.16a5.6,5.6,0,0,1-.05-.6.68.68,0,0,1,0-.14,4.37,4.37,0,0,1,.43-2.62,3,3,0,0,1,1.36-1.13,1.58,1.58,0,0,1,1.75.29C74.67,53.33,74.54,52.1,73.41,52.68Z"/><path class="cls-13" d="M67.93,61.15a.57.57,0,0,1,0,.13,1.3,1.3,0,0,1-1.24,1.26,4.38,4.38,0,0,1-2.54-1.14C63.08,60.52,62,59.58,61,58.64c-.52-.48-1.29-1.12-1.35-1.88a.91.91,0,0,1,1-1h0c-.68-.51-1.36-1-2.08-1.48-.63.59-1.31,1.13-1.94,1.71a6,6,0,0,0-.63.71c1.84.2,3.89,1.78,5.21,2.84,2.05,1.66,4,3.46,5.93,5.3a8.25,8.25,0,0,1,.45-1.24A4.74,4.74,0,0,1,69,61.92C68.63,61.65,68.28,61.4,67.93,61.15Z"/><path class="cls-12" d="M41.75,85.06l-5,1.27c-1,.25-4.16,1.49-3.76-.9.45-2.66,1.95-5.48,3.14-7.89a49.6,49.6,0,0,1,5.17-8.17,52.63,52.63,0,0,1,6.11-6.64c1.19-1.1,2.42-2.15,3.6-3.26A10.8,10.8,0,0,1,52.89,58c1.08-.64,2.93.41,3.77,1,.13.1.35-.11.24-.23a7.85,7.85,0,0,0-1.52-1.42,2.14,2.14,0,0,0,.32-.28h0a.12.12,0,0,0,.08-.1h0c.48.73,1.23,1,2.17,1.5a25.55,25.55,0,0,1,3.24,2.33c2,1.61,3.79,3.43,5.62,5.19l0,0a11.63,11.63,0,0,0-.21,1.74l.15,1.16a.57.57,0,0,0-.18,0,4.11,4.11,0,0,0-1.17-2.61c0-.06,0-.12-.08-.14h0a.3.3,0,0,0-.2-.06H65.1a.23.23,0,0,0-.14,0,23.63,23.63,0,0,0-7.29,1.71c-2.58,1-5.37,1.6-7.83,2.85A6.52,6.52,0,0,1,46,71.2c-.54,0-1,.61-1.27,1l-.12.15a14.48,14.48,0,0,0-6.16,6.33A12.77,12.77,0,0,1,40,76.89,28.44,28.44,0,0,1,43.38,74a30,30,0,0,0-2,3.21,11.18,11.18,0,0,1,1.87-1.7c.74-.9,1.5-1.79,2.22-2.71.41-.53,1.86-.25,2.45-.28a6,6,0,0,0,2.23-.81c4.48-2.18,9.5-3.21,14.26-4.59-1.43,3.15-.75,8,.91,10.86-1.26.46-2.51.94-3.76,1.37q-5.28,1.82-10.65,3.37C47.86,83.54,44.8,84.29,41.75,85.06Z"/><path class="cls-12" d="M48,84.43q4.81-1.28,9.58-2.72c2.77-.83,5.68-1.62,8.47-2.62,0-.1.11-.19.16-.28l.87-1.92a9.87,9.87,0,0,0,.06-3.79l.7-.18A.37.37,0,0,0,68,72.8a3.58,3.58,0,0,0,.7.28,3.46,3.46,0,0,0,1.78,0c.21-.11.42-.22.62-.35.38-.23.91-.51,1.37-.85a74.88,74.88,0,0,1,5.05,6.3c-.48.8-1,1.6-1.41,2.41q-1.6,2.79-3.07,5.65a.17.17,0,0,0-.22,0C68.55,88,64,88.27,59.36,88.67a39.79,39.79,0,0,1-7.24,0A10,10,0,0,1,49.53,88C47.84,87.36,47.68,86.08,48,84.43Z"/><path class="cls-14" d="M64.1,95.84c-1.58,1.61-3.22,3.15-4.77,4.78-.63.66-1.23,1.33-1.82,2a2.21,2.21,0,0,1-2.81.31c1-1.13,2.39-2.07,3.46-3.11a57.06,57.06,0,0,1,4.67-4.12c1.65-1.3,3.23-2.68,4.91-4A30.81,30.81,0,0,0,71.21,89l.13.1C68.87,91.29,66.37,93.5,64.1,95.84Z"/><path class="cls-12" d="M70.88,90.66A49.24,49.24,0,0,0,68.62,96c-1.29,1.24-2.36,2.7-3.69,3.92-.6.55-.83,1.49-1.83,1.43a9.66,9.66,0,0,1-2.51-.64l.08-.09C63.93,97.13,67.4,93.9,70.88,90.66Z"/><path class="cls-13" d="M68.4,96.22a2.39,2.39,0,0,1,.22-.23,49.24,49.24,0,0,1,2.26-5.33c-3.48,3.24-6.95,6.47-10.21,10l-.08.09.42.15C62.69,99.5,66,94.88,68.4,96.22Z"/><path class="cls-14" d="M59.11,91.76c-1.81.18-3.67.24-5.49.24a9.5,9.5,0,0,1-3.21-.55A2.48,2.48,0,0,1,48.78,89,13.36,13.36,0,0,0,54,90.09a55.84,55.84,0,0,0,9.64-1,36.67,36.67,0,0,0,7-1.63c0,.14.07.3.11.47A26.37,26.37,0,0,1,59.11,91.76Z"/><path class="cls-14" d="M71.23,87.31c.53-.19,1.06-.4,1.59-.62-.27.52-.53,1-.79,1.58a1.29,1.29,0,0,1-.17-.16A4.44,4.44,0,0,1,71.23,87.31Z"/><path class="cls-15" d="M71.21,89a20,20,0,0,1-2.68,2.16,12,12,0,0,1-2.6,2.63c-1.65,1.51-3.27,3.06-4.89,4.59-1.85,1.74-3.22,3.76-5.21,4.89a1.81,1.81,0,0,0,1.68-.65c.59-.7,1.19-1.37,1.82-2,1.55-1.63,3.19-3.17,4.77-4.78,2.27-2.34,4.77-4.55,7.24-6.71Z"/><path class="cls-15" d="M70.67,87.51a36.67,36.67,0,0,1-7,1.63,55.84,55.84,0,0,1-9.64,1A13.36,13.36,0,0,1,48.78,89a2.48,2.48,0,0,0,1.63,2.43h0a1.07,1.07,0,0,1-.17-.51c0-.88,1.8-.51,3-.19.22,0,.44,0,.67.06a31.42,31.42,0,0,0,3.36-.09,34.78,34.78,0,0,0,6.82-.94c1.07-.29,2.12-.6,3.21-.83a2.31,2.31,0,0,1,.88,0A2.66,2.66,0,0,1,69,89c.6-.3,1.18-.64,1.76-1C70.74,87.81,70.7,87.65,70.67,87.51Z"/><path class="cls-15" d="M71.23,87.31c.53-.19,1.06-.4,1.59-.62-.27.52-.53,1-.79,1.58a1.29,1.29,0,0,1-.17-.16A4.44,4.44,0,0,1,71.23,87.31Z"/><path class="cls-12" d="M45.48,96.44c-.64-.2-1.26-.43-1.88-.68-1.55-.64-.89-.88,0-1.32,1.65-.79,3.26-2.28,5-2.76,1.28,1.64,4.43,1.7,6.94,1.52a40.61,40.61,0,0,0,11.22-2.11l-.34.24c-1.67,1.25-3.24,2.66-4.88,4A58.85,58.85,0,0,0,57,99.48l-.31.29,0,0a49.34,49.34,0,0,0-5-1.42C49.61,97.7,47.54,97.09,45.48,96.44Z"/><path class="cls-13" d="M55.63,93.2c-2.51.18-5.66.12-6.94-1.52-1.78.48-3.39,2-5,2.76-.92.43-1.57.67-.13,1.28a9.42,9.42,0,0,0,4.34-1.87.35.35,0,0,1,.38,0A9.93,9.93,0,0,0,54,95.23c1.89-.16,3.57-.85,5.42-1.09.27,0,.41.26.37.48-.29,1.65-1.9,3.19-3.06,4.3l-.64.59.62.23,0,0,.31-.29a58.85,58.85,0,0,1,4.61-4.19c1.64-1.3,3.21-2.71,4.88-4l.34-.24A40.61,40.61,0,0,1,55.63,93.2Z"/><path class="cls-6" d="M54.33,167.28l0-.1.24.19.57.37a21.36,21.36,0,0,0,4.27,2.15c.37.14.76.26,1.16.37a36.8,36.8,0,0,0,4.43.48,9.71,9.71,0,0,0,3.22-.43A8.16,8.16,0,0,1,69.6,170a2.07,2.07,0,0,1,1.73.12c.53.34.4,1.16.22,1.65a2,2,0,0,1-1.3,1.22,2.45,2.45,0,0,0,.09-.53,1.44,1.44,0,0,0-.35-1.19,1.42,1.42,0,0,0-.52-.19c-.46.16-.92.28-1.36.46a.15.15,0,0,0,.14.07c.53,0,1.25,0,1.29.64a1.78,1.78,0,0,1-.33,1A1.48,1.48,0,0,0,67.45,172c-.26,0-.39.54-.06.55a.93.93,0,0,1,.93.89.8.8,0,0,1-.51.78,1.49,1.49,0,0,0-.12-.81c-.52-1.07-1.68-.72-2.43-.11-.22.18,0,.5.21.33.47-.32,1.08-.45,1.42.1s-.06.89-.43,1.2l-.61.2a1.51,1.51,0,0,0-.69-1.28c-.8-.51-1.59.07-2.12.65-.13.15.05.37.2.23.55-.48,1.22-.81,1.75-.13a.87.87,0,0,1,.18.74c-2.89.86-5.79,1.31-8.57-.52a24,24,0,0,0-3.84-2.34c-1.08-.45-2.61-.32-2.61-2.24a10.85,10.85,0,0,1,.16-3s0,0,0,0c.65-1,.49-2.8.65-4a9.38,9.38,0,0,0,.07-3.18,22.93,22.93,0,0,0,2.85.61,12.46,12.46,0,0,0-.59,3.12c-.14,1.25-.42,2.71.46,3.75C54,167.86,54.42,167.58,54.33,167.28Z"/><path class="cls-7" d="M64.77,174.41c.17,1-1.46,1.18-2.13,1.26a7.2,7.2,0,0,1-4.94-.86,21.26,21.26,0,0,1-2.54-2.48c-1-.92-2.28-.31-3.25-1.09a2.86,2.86,0,0,1-1-2.54c.06-.92.7-1.72.79-2.6a5.35,5.35,0,0,1-.2-.79c-.31-2,.8-3.41,2.22-4.6a23.73,23.73,0,0,1-2.63-.58,9.38,9.38,0,0,1-.07,3.18c-.16,1.17,0,3-.65,4,0,0,0,0,0,0a10.85,10.85,0,0,0-.16,3c0,1.92,1.53,1.79,2.61,2.24a24,24,0,0,1,3.84,2.34c2.78,1.83,5.68,1.38,8.57.52a.87.87,0,0,0-.18-.74A1.14,1.14,0,0,0,64.77,174.41Z"/><path class="cls-7" d="M66.87,173.74l-.14.13a1.68,1.68,0,0,1-1.14.43,1.5,1.5,0,0,1,.26.86l.61-.2c.37-.31.72-.72.43-1.2Z"/><path class="cls-7" d="M67.55,173.22a1.18,1.18,0,0,1,.14.22,1.49,1.49,0,0,1,.12.81.8.8,0,0,0,.51-.78.92.92,0,0,0-.26-.6A1,1,0,0,1,67.55,173.22Z"/><path class="cls-7" d="M69.22,171.75a.72.72,0,0,1-.13.33,1.12,1.12,0,0,1-.34.31,1.25,1.25,0,0,1,.46.88,1.78,1.78,0,0,0,.33-1A.6.6,0,0,0,69.22,171.75Z"/><path class="cls-7" d="M70.29,171.81a2.15,2.15,0,0,1,0,.67,2.45,2.45,0,0,1-.09.53,2,2,0,0,0,1.3-1.22,2.89,2.89,0,0,0,.13-.49A1.67,1.67,0,0,1,70.29,171.81Z"/><path class="cls-12" d="M98.35,75.31a2.14,2.14,0,0,0-.08,2.22c.53,1-.62,1.28-1.41,1.76a7.12,7.12,0,0,0-1.7,1.49c-.34.37,0,.78.45.59-3,4.11-6,8.27-8.92,12.48-1.65,2.37-3.32,4.71-5,7.06-1,1.48-2.27,2.86-3.36,4.32a23.37,23.37,0,0,1-2.63,2.43,29.11,29.11,0,0,1-5.55,3.2,32.63,32.63,0,0,0-.16-5.23c0-.3-.45-.17-.44.09.14,4.76-.71,9.58-1.43,14.26s-1.32,9.1-2.07,13.64c-1.45,8.83-2.75,17.69-4.28,26.51a.52.52,0,0,0-.24-.07c-4.17-.24-8-.31-12-1.8-2.2-.82-4.48-2-4-4.65.39-2.42.68-4.85,1.13-7.27.83-4.45,2.07-8.81,2.9-13.26a26.57,26.57,0,0,1,1.89-5.82,3.08,3.08,0,0,0,.1-1.62c-.18-1.55.84-2.58,1.54-3.81a.25.25,0,0,0-.38-.31,11.58,11.58,0,0,0-1.82,2c-.51-.73-.48-1.37.47-2a1.33,1.33,0,0,0,.51-1c-.3-2.41-1.33-4.83-1.82-7.23-.55-2.67-1.43-5.27-2.16-7.89a55.85,55.85,0,0,1-1.3-7.47c.51.12,1,.23,1.34.34a46.92,46.92,0,0,0,8.24,2,16.69,16.69,0,0,0-2.71,2.59c-.15.21-.28.65,0,.82.87.51,2.46,1.52,3.48,1a4.49,4.49,0,0,0,1.37-1.44,21.76,21.76,0,0,1,2-2.22c1.08.81,3,1.67,4.05.83a24,24,0,0,0,2.23-2.57,23.85,23.85,0,0,0,1.73-2.1,12.08,12.08,0,0,0-.32,1.32c-.05.23.24.2.3,0a62.7,62.7,0,0,1,4.22-9.07C74,86.6,75.54,83.78,77.14,81c1-1.78,2.06-3.52,3.15-5.23.27,0,.58-.29.46-.57l0-.09c2.68-4.16,5.56-8.18,8.4-12.26,3.83-5.51,7.59-11,11.58-16.45,1.51-2,3-4.07,4.56-6.1-.24,3.36.74,6.8,1.83,9.94a37.66,37.66,0,0,0,2.14,4.93,9.56,9.56,0,0,0,1.72,2.8q-3,3.77-5.73,7.68c-1.33,1.86-2.61,3.75-3.87,5.65C100.45,72.58,99.05,73.89,98.35,75.31Z"/><path class="cls-13" d="M68.22,113.43c-.68,4.55-2.08,9.06-2.84,13.52-1.23,7.19-2.39,14.31-4,21.43-.93,4.07-1.33,9.52-5.69,11.27,1.92.22,3.85.3,5.86.41a.52.52,0,0,1,.24.07c1.53-8.82,2.83-17.68,4.28-26.51.75-4.54,1.37-9.09,2.07-13.64a92.1,92.1,0,0,0,1.43-12.52A22.76,22.76,0,0,1,68.22,113.43Z"/><path class="cls-13" d="M48.17,106.51c.06-.09.11-.19.18-.28a3.81,3.81,0,0,1,4-1.46c1.3.32,2.79,1.26,4.16,1.12,1.56-.16,2.36-1.28,3.65-2s2.73-.09,3.95-.79a31.48,31.48,0,0,0,3.51-2.7c2.77-2.18,3.78-5.51,4.94-8.73.89-2.48,1.74-5,2.67-7.45-1,1.73-1.91,3.46-2.83,5.22a62.7,62.7,0,0,0-4.22,9.07c-.06.18-.35.21-.3,0a12.08,12.08,0,0,1,.32-1.32,23.85,23.85,0,0,1-1.73,2.1,24,24,0,0,1-2.23,2.57c-1.07.84-3,0-4.05-.83a21.76,21.76,0,0,0-2,2.22,4.49,4.49,0,0,1-1.37,1.44c-1,.48-2.61-.53-3.48-1-.29-.17-.16-.61,0-.82a16.69,16.69,0,0,1,2.71-2.59,46.92,46.92,0,0,1-8.24-2c-.36-.11-.83-.22-1.34-.34a55.85,55.85,0,0,0,1.3,7.47C48,105.77,48.06,106.14,48.17,106.51Z"/><path class="cls-13" d="M109.22,55.12c-.24-.47-.48-.95-.7-1.43a16.88,16.88,0,0,1-1,3.92,49.84,49.84,0,0,1-4.7,8.49A66.76,66.76,0,0,1,97.28,73a13.51,13.51,0,0,0-1.84,3.43,8.45,8.45,0,0,1-1.64,2c-1.23,1.36-1.59,3-2.38,4.56a21.86,21.86,0,0,1-2.35,3.68c-1.89,2.5-3.58,5.1-5.68,7.45s-4.6,4.62-7,6.9a23.61,23.61,0,0,1-6.36,4.85H70a33,33,0,0,1,.14,5,29.11,29.11,0,0,0,5.55-3.2,23.37,23.37,0,0,0,2.63-2.43c1.09-1.46,2.32-2.84,3.36-4.32,1.67-2.35,3.34-4.69,5-7.06,2.93-4.21,5.88-8.37,8.92-12.48-.4.19-.79-.22-.45-.59a7.12,7.12,0,0,1,1.7-1.49c.79-.48,1.94-.77,1.41-1.76a2.14,2.14,0,0,1,.08-2.22c.7-1.42,2.1-2.73,3-4.06,1.26-1.9,2.54-3.79,3.87-5.65q2.78-3.91,5.73-7.68A9.56,9.56,0,0,1,109.22,55.12Z"/><path class="cls-12" d="M117.73,71.39a25.08,25.08,0,0,1-.73,2.93c-.58,1.93-2.84,1.58-4.35,1.56-2.41,0-4.83,0-7.24-.14-1.81-.13-3.7-1-5.52-.95.55-.81,1.32-1.58,1.73-2.21,1.25-1.91,2.54-3.8,3.85-5.67q1.44-2.05,2.94-4a4.78,4.78,0,0,0,2.46.72c2.66.35,5.32.71,8,1C118.41,66.86,118.13,69.14,117.73,71.39Z"/><path class="cls-13" d="M84.53,60.7a10.15,10.15,0,0,1-1.37,6c-1.24,1.91-3.9,2.49-4.78,0-.29-.82-.29-1.71-.59-2.51a12.86,12.86,0,0,1-1-2.52,8.56,8.56,0,0,1,.63-4.18,5.5,5.5,0,0,1,2.89-3.08,10.36,10.36,0,0,1,2.58-1l.76-.17c-2-.85-4.43-1.59-5.35.47-.12.26-.51.21-.46-.1a3,3,0,0,1,.18-.72,9.38,9.38,0,0,1-1.06,0,7.33,7.33,0,0,1-1.49-.21,26.25,26.25,0,0,1-.33,6c-.16,1.06-.3,2.24-.51,3.4l0,.09a1.68,1.68,0,0,1,.32.33A2.72,2.72,0,0,1,76.1,64.3c.63.58.48,1.9.3,2.84a5,5,0,0,1-.35,1c.3.4.6.78.89,1.19A51.91,51.91,0,0,1,80.19,74c1.81-2.76,3.7-5.46,5.58-8.19-.26-1.09-.35-2.23-.66-3.31C84.93,61.88,84.74,61.29,84.53,60.7Z"/><path class="cls-13" d="M84.43,59.31a24.07,24.07,0,0,1,1.17,3,16,16,0,0,1,.61-2.15C85.72,60.26,84.94,59.78,84.43,59.31Z"/><path class="cls-13" d="M89,60.37c-.89.56-1.91.66-2.18-.3a30.46,30.46,0,0,1-.73,3.28.34.34,0,0,1-.11.17c.13.5.24,1,.34,1.51l1-1.54q1.32-2,2.66-3.87C89.67,59.89,89.33,60.14,89,60.37Z"/><path class="cls-13" d="M63.73,69.4a30.12,30.12,0,0,0-1.08,4.28A7.37,7.37,0,0,1,59.1,78c-4.43,2.67-9.47,3.73-14.35,5.31-2.55.84-10.34,4-11.26.24A14.62,14.62,0,0,0,33,85.43c-.4,2.39,2.78,1.15,3.76.9l5-1.27c3-.77,6.11-1.52,9.13-2.39q5.37-1.55,10.65-3.37c1.25-.43,2.5-.91,3.76-1.37A14.23,14.23,0,0,1,63.73,69.4Z"/><path class="cls-13" d="M66.86,66l0,0c-1.83-1.76-3.66-3.58-5.62-5.19A25.55,25.55,0,0,0,58,58.47c-.94-.54-1.69-.77-2.17-1.5h0a.12.12,0,0,1-.08.1h0a2.14,2.14,0,0,1-.32.28,7.85,7.85,0,0,1,1.52,1.42c.11.12-.11.33-.24.23-.84-.64-2.69-1.69-3.77-1A10.8,10.8,0,0,0,51,59.47c-1.18,1.11-2.41,2.16-3.6,3.26l-.38.36c1.1-.58,2.1-1.46,3.09-2.08a5.31,5.31,0,0,1,4.33-.74c1.08.27,1.82-.15,2.85-.12a4.19,4.19,0,0,1,1.78.78c1.17.74,3,1.78,3.66,3,.4.76-.46,1.32-1,1.58A32.72,32.72,0,0,1,57.32,67a63.48,63.48,0,0,0-6.45,2.32,23.32,23.32,0,0,1-2.42.88,4.08,4.08,0,0,0-2.1,1,6.06,6.06,0,0,0,3.49-.53c2.46-1.25,5.25-1.88,7.83-2.85A23.63,23.63,0,0,1,65,66.13a.23.23,0,0,1,.14,0h.05a.3.3,0,0,1,.2.06h0c.08,0,.09.08.08.14a4.11,4.11,0,0,1,1.17,2.61.57.57,0,0,1,.18,0l-.15-1.16A11.63,11.63,0,0,1,66.86,66Z"/><path class="cls-13" d="M72.49,71.86c-.46.34-1,.62-1.37.85-.2.13-.41.24-.62.35a3.46,3.46,0,0,1-1.78,0,3.58,3.58,0,0,1-.7-.28.37.37,0,0,1-.21.12l-.7.18a9.87,9.87,0,0,1-.06,3.79l-.87,1.92c-.05.09-.11.18-.16.28-2.79,1-5.7,1.79-8.47,2.62Q52.78,83.15,48,84.43c-.29,1.65-.13,2.93,1.56,3.58a10,10,0,0,0,2.59.64l.47,0c-1-.53-1.59-1.28-.9-2.27C53,84.56,55.9,83.79,58,83.25c2.72-.71,6.12-.89,8.45-2.56a4.79,4.79,0,0,0,1.91-2.24,12.48,12.48,0,0,1,.59-1.58,2.82,2.82,0,0,1,2.39-1.68,4.65,4.65,0,0,1,2.91,1.27c.62.5,1.4,1.07,1.39,2,0,4.29-3.28,7.2-6.81,9a24.66,24.66,0,0,0,4-1.27.17.17,0,0,1,.22,0q1.47-2.86,3.07-5.65c.46-.81.93-1.61,1.41-2.41A74.88,74.88,0,0,0,72.49,71.86Z"/><path class="cls-13" d="M115.37,70.9a15.49,15.49,0,0,1-11.85-1.17c-.64,1-1.27,1.89-1.9,2.85-.41.63-1.18,1.4-1.73,2.21,1.82,0,3.71.82,5.52.95,2.41.17,4.83.11,7.24.14,1.51,0,3.77.37,4.35-1.56a25.08,25.08,0,0,0,.73-2.93c.1-.55.19-1.09.27-1.63A14.93,14.93,0,0,1,115.37,70.9Z"/><path class="cls-6" d="M130.35,74.93c-.24.14-.46.27-.69.39,0,0,0,0,0,0h0l-.24,0c-.16.05-.31.12-.47.18s-.27.13-.43.19a.3.3,0,0,0,0-.21,4.3,4.3,0,0,0-1.38-1.23c-.18-.12-.47-.22-.25-.44a3.1,3.1,0,0,1,.7-.42,10.52,10.52,0,0,0,1.34-.68c.3-.21.54-.51.67,0a5.21,5.21,0,0,1,.1.69c0,.32.48.25.51,0,.06-.45.25-1.58-.39-1.74a1.29,1.29,0,0,0-1,.27,15.94,15.94,0,0,1-1.43.72,3.12,3.12,0,0,0-1.31,1,2.44,2.44,0,0,1,.18-1c.2-.57-.57-.53-.8-.17-.52.85-.78,2.18.3,2.78a2.49,2.49,0,0,0,.68.32l.9,1.36c-.32.24-.57.25-.72,0a4.26,4.26,0,0,0-2.43-1.13,1.6,1.6,0,0,1-1.36-1.36,3.08,3.08,0,0,1-.35-.92c-.08-.29-.15-.58-.25-.86a2.66,2.66,0,0,0-.16-.39.42.42,0,0,0,0-.31c-.3-.57-1.5-.43-2-.46a5.91,5.91,0,0,0-1.29-.11c.21-1.09.38-2.19.55-3.29l.22.13a2.87,2.87,0,0,0,1.08.2,5.46,5.46,0,0,0,.9.07,2.09,2.09,0,0,0-.4,1.57c0,.16.27.11.32,0l.06-.13v0A8.1,8.1,0,0,1,123,67.1a2.4,2.4,0,0,1,.94-.28,1.62,1.62,0,0,1,.58-.12,35.58,35.58,0,0,1,5.25.39c2.18.26,1.42,3.86,1.69,5.29S131.56,74.2,130.35,74.93Z"/><path class="cls-7" d="M131.26,68.68c-.66-1-1.11-1-1.34-.06-.06.15-.12.3-.19.45a4.92,4.92,0,0,1-.55.94,2.57,2.57,0,0,1-1.91,1c-.8.1-1.66-.61-2.27-1-1.24-.8-1.77-.38-3-.06a.64.64,0,0,1-.62-.1v.06l-.06.13c0,.13-.28.18-.32,0a1.22,1.22,0,0,1,0-.6,1.18,1.18,0,0,1-.78-.13,1.77,1.77,0,0,1-.73-.35.94.94,0,0,1-.33-.56c-.16,1-.31,2-.5,3a5.91,5.91,0,0,1,1.29.11c.54,0,1.74-.11,2,.46a.42.42,0,0,1,0,.31,2.66,2.66,0,0,1,.16.39c.1.28.17.57.25.86a3.08,3.08,0,0,0,.35.92,1.6,1.6,0,0,0,1.36,1.36A4.26,4.26,0,0,1,126.55,77c.15.23.4.22.72,0l-.9-1.36a2.49,2.49,0,0,1-.68-.32c-1.08-.6-.82-1.93-.3-2.78.23-.36,1-.4.8.17a2.44,2.44,0,0,0-.18,1,3.12,3.12,0,0,1,1.31-1,15.94,15.94,0,0,0,1.43-.72,1.29,1.29,0,0,1,1-.27c.64.16.45,1.29.39,1.74,0,.29-.48.36-.51,0a5.21,5.21,0,0,0-.1-.69c-.13-.47-.37-.17-.67,0a10.52,10.52,0,0,1-1.34.68,3.1,3.1,0,0,0-.7.42c-.22.22.07.32.25.44a4.3,4.3,0,0,1,1.38,1.23.3.3,0,0,1,0,.21c.16-.06.35-.16.43-.19s.31-.13.47-.18l.24,0h0s0,0,0,0c.23-.12.45-.25.69-.39,1.21-.73,1.41-1.18,1.14-2.55C131.33,71.53,131.53,69.91,131.26,68.68Z"/><path class="cls-4" d="M60,4.42a43.27,43.27,0,0,0-8.26.85,32.47,32.47,0,0,0-6.87,2.56A28.18,28.18,0,0,0,39,11.77c-1.61,1.39-3.74,3.38-4.4,5.48,0,0,0,.07.08,0a29.23,29.23,0,0,0,2-2.4,27.64,27.64,0,0,1,2.49-2.47A29.69,29.69,0,0,1,45,8.6,32.56,32.56,0,0,1,51.6,6.06c2.74-.74,5.65-.94,8.45-1.42C60.18,4.61,60.18,4.42,60,4.42Z"/><path class="cls-4" d="M76.29,4.77A14.5,14.5,0,0,0,71.53,2C68,.79,63.77.39,60.21,1.8c0,0,0,0,0,0a24.76,24.76,0,0,1,10.52.73,14.88,14.88,0,0,1,4.79,2.56c1.68,1.33,2.52,3.18,3.6,5,.07.11.24,0,.21-.1A11.19,11.19,0,0,0,76.29,4.77Z"/><path class="cls-4" d="M30.91,15.59a5.57,5.57,0,0,0-3.78,2.28,8,8,0,0,0-1,2.11,11.24,11.24,0,0,1-1.53,3.13s0,.1.06.07c1.13-.8,1.64-2.41,2.22-3.61a6.32,6.32,0,0,1,1.7-2.23A20.21,20.21,0,0,1,31,16,.2.2,0,0,0,30.91,15.59Z"/><path class="cls-4" d="M9.17,29.44a9.74,9.74,0,0,0-3.48,3.92c-.5,1.26-.13,3.21,1.16,3.85.15.07.34-.11.23-.25a3.69,3.69,0,0,1-.61-4.21c.61-1.3,1.84-2.19,2.75-3.25C9.25,29.47,9.21,29.41,9.17,29.44Z"/><path class="cls-4" d="M19.59,38.35a29.15,29.15,0,0,0-7.87,3.93A12.08,12.08,0,0,0,7.23,49.2c0,.06.07.07.08,0a13.27,13.27,0,0,1,5.16-6.79c2.26-1.56,4.88-2.42,7.32-3.65C20,38.66,19.84,38.26,19.59,38.35Z"/><path class="cls-4" d="M21.06,34.85A18.62,18.62,0,0,1,16.54,38c-2,.8-4.15,1-6.16,1.8,0,0,0,.05,0,0,2.15-.61,4.44-.72,6.54-1.51a10,10,0,0,0,4.3-3.28C21.31,34.94,21.18,34.75,21.06,34.85Z"/><path class="cls-8" d="M63.71,27.07a2.36,2.36,0,0,0-.48-.52.28.28,0,0,0-.47.22,3.91,3.91,0,0,0,.05.48,1.41,1.41,0,0,0,0,.89,1.77,1.77,0,0,0,.92,1.3l.08,0,.2.16c.16.12.43.09.46-.14A2.6,2.6,0,0,0,63.71,27.07Z"/><path class="cls-8" d="M77.33,22.92a2.14,2.14,0,0,0-.2-.32.29.29,0,0,0-.28-.12.28.28,0,0,0-.34.2,2.18,2.18,0,0,0-.09.55,1.49,1.49,0,0,0,.22,1.07.26.26,0,0,0,0,.35h0a.32.32,0,0,0,0,.14.34.34,0,0,0,.23.21c.36.08.54-.26.65-.53A1.69,1.69,0,0,0,77.33,22.92Z"/><path class="cls-16" d="M43.52,42.5s0-.08,0-.09c-1.21-.25-2,1.08-2.15,2.08-.31,1.58.66,3.23,1.73,4.32.14.14.32-.06.25-.21-.59-1.24-1.48-2.14-1.5-3.59A2.55,2.55,0,0,1,43.52,42.5Z"/><path class="cls-16" d="M76.72,29.3c-1.58.29-3.93,1.84-4.37,3.46a.22.22,0,0,0,.37.2c.61-.57,1-1.33,1.64-1.91a17.56,17.56,0,0,1,2.43-1.6A.08.08,0,0,0,76.72,29.3Z"/><path class="cls-8" d="M77.34,29.4a.15.15,0,0,0-.19.21,1.16,1.16,0,0,1,.15.43c0,.15-.06.29-.06.44a.18.18,0,0,0,.29.15A.74.74,0,0,0,77.34,29.4Z"/><path class="cls-16" d="M73.93,38.62c-2.88,2.28-5.74,5.48-6.68,9.11a.06.06,0,0,0,.12,0C69,44.38,71.65,41.6,74,38.7,74,38.66,74,38.59,73.93,38.62Z"/><path class="cls-2" d="M62.43,26c-.77.24-1,1.67-.5,3.19s1.49,2.56,2.25,2.32,1-1.67.5-3.19S63.19,25.71,62.43,26Zm1.66,1.65c.15.49.08.94-.16,1s-.56-.26-.71-.74-.08-.93.16-1S63.94,27.12,64.09,27.6Z"/><path class="cls-2" d="M75.93,21.58c-.77.24-1,1.67-.5,3.19s1.49,2.56,2.25,2.32,1-1.67.5-3.2S76.69,21.34,75.93,21.58Zm1.66,1.65c.15.49.08.94-.16,1s-.56-.25-.71-.73-.08-.93.16-1S77.44,22.75,77.59,23.23Z"/><path class="cls-16" d="M85.13,33.08a8.79,8.79,0,0,0-1.69-4c-1.06-1.42-2.62-2.32-3.38-4,0-.09-.17-.05-.14,0A6.85,6.85,0,0,0,81.67,28a10.44,10.44,0,0,1,2.59,4.19c1.11,3.7-.81,7.06-2.11,10.4a.12.12,0,0,0,.21.11C84.1,39.79,85.6,36.52,85.13,33.08Z"/><path class="cls-16" d="M114.08,30.51a29,29,0,0,1-1.48-5.11c-.76-3.3-1.55-6.63-4-9.11-.08-.08-.18,0-.11.12,2.27,2.66,2.92,6.18,3.63,9.51a30.42,30.42,0,0,0,1.26,4.48,31.38,31.38,0,0,1,2,5.29c0,.21.34.13.35-.06C115.75,33.83,114.78,32.11,114.08,30.51Z"/><path class="cls-8" d="M101,13.71c-.51-1.07-2.06-1.89-3.16-1.19-.09.06,0,.23.07.21a2.69,2.69,0,0,1,2.77,1.17A.19.19,0,0,0,101,13.71Z"/><path class="cls-8" d="M101,11.78a.1.1,0,0,0,0,.19,4.94,4.94,0,0,1,1.06.63,4.15,4.15,0,0,1,.76,1.13.17.17,0,0,0,.32-.1A2.26,2.26,0,0,0,101,11.78Z"/><path class="cls-8" d="M104.36,12a1.66,1.66,0,0,0-1.07-.67c-.19,0-.32.27-.12.35a1.69,1.69,0,0,1,.8.57,8.94,8.94,0,0,1,.43,1,.19.19,0,0,0,.34-.06A1.61,1.61,0,0,0,104.36,12Z"/><path class="cls-8" d="M106.36,12.51a2.19,2.19,0,0,0-1.06-1,.14.14,0,0,0-.13.25,2.61,2.61,0,0,1,.83,1c.21.36.22.82.45,1.17a.17.17,0,0,0,.31-.06A2.36,2.36,0,0,0,106.36,12.51Z"/><path class="cls-16" d="M130.39,67.57c-.91-1.06-3.24-.9-4.54-.89-1.1,0-2.87.29-3.24,1.53a0,0,0,0,0,.08,0,4.68,4.68,0,0,1,3.45-1,9.89,9.89,0,0,1,4,.64A.19.19,0,0,0,130.39,67.57Z"/><path class="cls-16" d="M70.06,62.59c-1.88,1.76-2.59,4.75-2.51,7.25a0,0,0,0,0,.07,0,25.31,25.31,0,0,1,2.55-7.18C70.22,62.6,70.11,62.54,70.06,62.59Z"/><path class="cls-16" d="M67.43,170.77a9.77,9.77,0,0,1-5.46.42,42.19,42.19,0,0,1-6.39-2.34.06.06,0,0,0,0,.1c2.78,1.76,5.85,3.21,9.21,2.89A12.64,12.64,0,0,0,68,171c.94-.34,2.7-1.06,3.11.25a.19.19,0,0,0,.37,0C71.75,169.19,68.24,170.48,67.43,170.77Z"/><path class="cls-8" d="M68.69,171.8c-.14-.29-.64-.2-.89-.14s-.12.25,0,.29l.43.07a.48.48,0,0,0,.39,0A.15.15,0,0,0,68.69,171.8Z"/><path class="cls-8" d="M67.54,172.73a.8.8,0,0,0-.75-.33c-.15,0-.21.23-.07.29s.4.2.6.28A.17.17,0,0,0,67.54,172.73Z"/><path class="cls-8" d="M65.51,173.6a.14.14,0,0,0,.12.26c.21-.06.45.08.64-.05a.16.16,0,0,0,.06-.17C66.22,173.28,65.72,173.44,65.51,173.6Z"/><path class="cls-8" d="M64.21,174.27c-.42-.25-.78.1-.93.47-.07.17.16.36.29.2s.24-.29.48-.22S64.43,174.4,64.21,174.27Z"/><path class="cls-17" d="M46.12,64.86a43.84,43.84,0,0,0-6.59,8.08,37.77,37.77,0,0,0-5.16,9.58.11.11,0,0,0,.2.08A81.84,81.84,0,0,1,46.14,64.87S46.13,64.85,46.12,64.86Z"/><path class="cls-17" d="M62.19,68.2a21,21,0,0,0-5.69,1.55c-1.73.61-3.34,1.44-5,2.19a14.36,14.36,0,0,1-2.33.84c-.87.22-1.75.1-2.63.25a3.22,3.22,0,0,0-2.27,2,.11.11,0,0,0,.17.12,11,11,0,0,1,1.25-1.3,3.69,3.69,0,0,1,2-.34,10.24,10.24,0,0,0,4-1.17c1.64-.76,3.23-1.61,4.92-2.27s3.79-1.06,5.61-1.76C62.27,68.29,62.26,68.19,62.19,68.2Z"/><path class="cls-17" d="M90.19,57.06c-1-.5-2-.9-2.91-1.39s-2.09-1.22-3.14-1.82A.09.09,0,0,0,84,54a19.16,19.16,0,0,0,6.07,3.3C90.24,57.33,90.3,57.12,90.19,57.06Z"/><path class="cls-17" d="M117.88,64.93a19.41,19.41,0,0,1-4.57-.18c-1.43-.25-2.8-.77-4.22-1.06a.12.12,0,0,0-.08.22,15.87,15.87,0,0,0,8.89,1.49C118.19,65.35,118.18,64.91,117.88,64.93Z"/><path class="cls-17" d="M105.29,42.91c-2.29,3.31-5,6.31-7.4,9.51s-4.7,6.44-6.94,9.74C86.4,68.84,82,75.61,77.5,82.34c0,0,0,.09.07,0,4.92-6.26,9.15-13,13.62-19.64,2.37-3.49,4.8-6.94,7.37-10.3,2.38-3.11,5-6,7-9.38C105.72,42.87,105.41,42.73,105.29,42.91Z"/><path class="cls-17" d="M53.07,123.39c-2.41,4.65-3.5,10.11-4.52,15.21-.53,2.65-1,5.31-1.55,8s-1.43,5.47-1.26,8.2c0,.18.3.22.32,0,.26-2.76,1-5.4,1.46-8.12s1-5.31,1.55-8,1-5.08,1.67-7.59,1.59-5.13,2.48-7.68C53.25,123.35,53.11,123.31,53.07,123.39Z"/><path class="cls-17" d="M49.56,108.05a.08.08,0,0,0-.15,0c1.06,3.74,1.83,7.48,2.67,11.27a.2.2,0,0,0,.4-.07A47.31,47.31,0,0,0,49.56,108.05Z"/><path class="cls-17" d="M72,83.53c-1.06.78-2,1.7-3.12,2.42a13.85,13.85,0,0,1-4.55,1.63c-3.29.69-6.66.47-10,.47a0,0,0,0,0,0,.08c6,.84,13.66.62,17.83-4.4C72.22,83.62,72.09,83.44,72,83.53Z"/><path class="cls-17" d="M55.25,97.87a44.47,44.47,0,0,1-9.45-2.15c-.07,0-.09.08,0,.11a19,19,0,0,0,9.46,2.39C55.43,98.22,55.46,97.89,55.25,97.87Z"/><path class="cls-17" d="M67.06,97.33c-1.4,1.11-2.57,3.35-4.61,3.27-.09,0-.1.15,0,.16,2,.37,3.58-2,4.79-3.23C67.34,97.42,67.18,97.23,67.06,97.33Z"/><path class="cls-8" d="M64.05,90.25c-1.87.18-3.7.72-5.56,1a21.86,21.86,0,0,1-6.36,0,0,0,0,0,0,0,.07,10.41,10.41,0,0,0,5.67.61,28.59,28.59,0,0,0,6.34-1.31A.2.2,0,0,0,64.05,90.25Z"/><path class="cls-8" d="M62.89,95.62c-1.25,1.06-2.33,2.34-3.49,3.5s-2.42,2.23-3.56,3.41c0,0,0,.06,0,0a19.16,19.16,0,0,0,3.53-2.88,35.68,35.68,0,0,0,3.68-3.9A.13.13,0,0,0,62.89,95.62Z"/><path class="cls-17" d="M66.36,60.82c-1.71-1.31-3.39-2.74-5.17-3.94,0,0-.06,0,0,0,1.57,1.4,3.17,3.17,5.14,4C66.35,60.94,66.42,60.86,66.36,60.82Z"/><path class="cls-17" d="M74.15,55.15s0,0,0,0a13.48,13.48,0,0,0-.36,3.46.15.15,0,0,0,.29,0A13.5,13.5,0,0,0,74.15,55.15Z"/><path class="cls-17" d="M78.57,73.2c-.65-1.1-1.63-2-2.38-3.08,0,0-.08,0-.06,0a9,9,0,0,0,2.28,3.18A.1.1,0,0,0,78.57,73.2Z"/><path class="cls-2" d="M125.82,38a37.32,37.32,0,0,1-2.26,5.34c-1.23,2.84-2.53,5.65-3.83,8.46-2.76,6-5.7,11.79-8.75,17.6-.16.29.24.78.46.43a189.68,189.68,0,0,0,9.43-17.19c1.39-2.82,2.77-5.65,4.08-8.52.76-1.69,2.38-3.86,2.16-5.8C127,37.7,126,37.19,125.82,38Z"/><path class="cls-2" d="M127.45,28.55a62,62,0,0,0-3.24,7.3c-1.17,2.67-2.42,5.33-3.65,8-2.35,5-4.26,10.31-6.7,15.29-.09.2.23.49.36.27,2.66-4.52,4.65-9.51,6.92-14.24,1.26-2.63,2.49-5.29,3.7-7.95s2.67-5.37,3.26-8.18C128.17,28.69,127.72,28.1,127.45,28.55Z"/><path class="cls-2" d="M123.09,34.4a35.2,35.2,0,0,0-2.23,5.43c-.13.35.39.73.56.32.73-1.78,1.55-3.54,2.23-5.34C123.77,34.51,123.3,34,123.09,34.4Z"/><path class="cls-2" d="M101.12,29.68c-1.44,2.07-2.52,4.44-3.81,6.62-1.19,2-2.4,4-3.53,6-2.85,5.16-5.62,10.36-8.66,15.4-.13.21.14.57.3.33,3.11-4.64,5.88-9.48,8.7-14.3,2.54-4.33,6.13-8.63,7.81-13.38C102.09,29.92,101.5,29.12,101.12,29.68Z"/><path class="cls-2" d="M99.88,26.89c-2.5,4.12-4.57,8.51-7,12.69-.19.33.35.88.58.5a101.2,101.2,0,0,0,6.91-12.74C100.52,27,100.09,26.54,99.88,26.89Z"/></g></g></g></svg>