<svg xmlns="http://www.w3.org/2000/svg" xmlns:xlink="http://www.w3.org/1999/xlink" viewBox="0 0 855.64 642.51"><defs><style>.cls-1{isolation:isolate;}.cls-2{fill:url(#linear-gradient);}.cls-19,.cls-3,.cls-30,.cls-35,.cls-8{fill:#231f20;}.cls-3{opacity:0.34;}.cls-29,.cls-3,.cls-8{mix-blend-mode:overlay;}.cls-4{fill:url(#linear-gradient-2);}.cls-5{fill:url(#linear-gradient-3);}.cls-6{fill:url(#linear-gradient-4);}.cls-7{fill:url(#linear-gradient-5);}.cls-9{fill:url(#linear-gradient-6);}.cls-10{fill:url(#linear-gradient-7);}.cls-11{fill:#ffb3a0;}.cls-12{fill:url(#linear-gradient-8);}.cls-13{fill:url(#linear-gradient-9);}.cls-14{fill:url(#linear-gradient-10);}.cls-15{fill:url(#linear-gradient-11);}.cls-16{fill:url(#linear-gradient-12);}.cls-17{fill:url(#linear-gradient-13);}.cls-18{fill:url(#linear-gradient-14);}.cls-19{opacity:0.17;}.cls-19,.cls-35{mix-blend-mode:darken;}.cls-20{fill:url(#linear-gradient-15);}.cls-21{fill:url(#linear-gradient-16);}.cls-22{fill:url(#linear-gradient-17);}.cls-23{fill:url(#linear-gradient-18);}.cls-24{fill:url(#linear-gradient-19);}.cls-25{fill:url(#linear-gradient-20);}.cls-26{fill:url(#linear-gradient-21);}.cls-27{fill:url(#linear-gradient-22);}.cls-28{fill:url(#linear-gradient-23);}.cls-31{fill:url(#linear-gradient-24);}.cls-32{fill:url(#Skintone_19);}.cls-33{fill:url(#linear-gradient-25);}.cls-34{fill:url(#linear-gradient-26);}.cls-36{fill:url(#linear-gradient-27);}.cls-37{fill:url(#linear-gradient-28);}.cls-38{fill:url(#linear-gradient-29);}</style><linearGradient id="linear-gradient" y1="329.5" x2="855.64" y2="329.5" gradientUnits="userSpaceOnUse"><stop offset="0" stop-color="#d16dc3"/><stop offset="1" stop-color="#3200f0"/></linearGradient><linearGradient id="linear-gradient-2" x1="417.48" y1="380.71" x2="654.34" y2="380.71" gradientTransform="translate(426.17 -267.44) rotate(45)" gradientUnits="userSpaceOnUse"><stop offset="0.09" stop-color="#ff85bb"/><stop offset="0.47" stop-color="#d16dc3"/><stop offset="1" stop-color="#3200f0"/></linearGradient><linearGradient id="linear-gradient-3" x1="318.89" y1="221.7" x2="463.77" y2="221.7" gradientTransform="translate(477.91 -219.65) rotate(71.57)" xlink:href="#linear-gradient-2"/><linearGradient id="linear-gradient-4" x1="3.87" y1="388.99" x2="296.31" y2="388.99" gradientUnits="userSpaceOnUse"><stop offset="0" stop-color="#3200f0"/><stop offset="0.53" stop-color="#d16dc3"/><stop offset="0.91" stop-color="#ff85bb"/></linearGradient><linearGradient id="linear-gradient-5" x1="310.28" y1="249.89" x2="347.73" y2="249.89" gradientUnits="userSpaceOnUse"><stop offset="0" stop-color="#151875"/><stop offset="1" stop-color="#662ae6"/></linearGradient><linearGradient id="linear-gradient-6" x1="141.25" y1="183.01" x2="203.01" y2="183.01" gradientTransform="translate(7.05 17.94) rotate(0.37)" xlink:href="#linear-gradient-5"/><linearGradient id="linear-gradient-7" x1="155.09" y1="196.74" x2="200.88" y2="196.74" gradientTransform="translate(7.05 17.94) rotate(0.37)" xlink:href="#linear-gradient-5"/><linearGradient id="linear-gradient-8" x1="609.29" y1="128.15" x2="580.26" y2="116.28" gradientUnits="userSpaceOnUse"><stop offset="0" stop-color="#662ae6"/><stop offset="1" stop-color="#151875"/></linearGradient><linearGradient id="linear-gradient-9" x1="275.7" y1="479.06" x2="293.39" y2="422.95" xlink:href="#linear-gradient-8"/><linearGradient id="linear-gradient-10" x1="231.11" y1="323.48" x2="305.61" y2="323.48" gradientUnits="userSpaceOnUse"><stop offset="0.03" stop-color="#ed3d24"/><stop offset="1" stop-color="#be1e2d"/></linearGradient><linearGradient id="linear-gradient-11" x1="122.99" y1="219.29" x2="560.81" y2="219.29" gradientUnits="userSpaceOnUse"><stop offset="0" stop-color="#baf4ff"/><stop offset="1" stop-color="#fff"/></linearGradient><linearGradient id="linear-gradient-12" x1="222.04" y1="204.34" x2="286.16" y2="128.19" xlink:href="#linear-gradient-5"/><linearGradient id="linear-gradient-13" x1="146.45" y1="92.8" x2="291.49" y2="92.8" xlink:href="#linear-gradient-11"/><linearGradient id="linear-gradient-14" x1="548.63" y1="202.94" x2="562.37" y2="171.72" xlink:href="#linear-gradient-10"/><linearGradient id="linear-gradient-15" x1="506.05" y1="550.89" x2="540.91" y2="550.89" xlink:href="#linear-gradient-10"/><linearGradient id="linear-gradient-16" x1="641.17" y1="402.26" x2="653.4" y2="366.43" xlink:href="#linear-gradient-10"/><linearGradient id="linear-gradient-17" x1="200.06" y1="41.97" x2="279.67" y2="41.97" xlink:href="#linear-gradient-5"/><linearGradient id="linear-gradient-18" x1="296.65" y1="362.65" x2="685.85" y2="362.65" xlink:href="#linear-gradient-11"/><linearGradient id="linear-gradient-19" x1="559.85" y1="336.35" x2="636.49" y2="336.35" xlink:href="#linear-gradient-11"/><linearGradient id="linear-gradient-20" x1="557.42" y1="221.94" x2="598.17" y2="221.94" xlink:href="#linear-gradient-11"/><linearGradient id="linear-gradient-21" x1="601.55" y1="235.51" x2="603.66" y2="232.07" xlink:href="#linear-gradient-11"/><linearGradient id="linear-gradient-22" x1="682.3" y1="156.81" x2="629.31" y2="142.93" xlink:href="#linear-gradient-10"/><linearGradient id="linear-gradient-23" x1="557.14" y1="283.94" x2="633.5" y2="283.94" xlink:href="#linear-gradient-10"/><linearGradient id="linear-gradient-24" x1="233.22" y1="14.13" x2="277.69" y2="14.13" gradientUnits="userSpaceOnUse"><stop offset="0.5" stop-color="#483318"/><stop offset="1" stop-color="#282913"/></linearGradient><linearGradient id="Skintone_19" x1="631.42" y1="121.05" x2="670.45" y2="121.05" gradientUnits="userSpaceOnUse"><stop offset="0" stop-color="#6c5034"/><stop offset="1" stop-color="#2e0f00"/></linearGradient><linearGradient id="linear-gradient-25" x1="211.42" y1="5.01" x2="227.3" y2="5.01" xlink:href="#linear-gradient-11"/><linearGradient id="linear-gradient-26" x1="349.42" y1="154.51" x2="560.81" y2="154.51" xlink:href="#linear-gradient-11"/><linearGradient id="linear-gradient-27" x1="550.38" y1="528.88" x2="610.25" y2="528.88" xlink:href="#linear-gradient-4"/><linearGradient id="linear-gradient-28" x1="595.47" y1="531.89" x2="655.34" y2="531.89" xlink:href="#linear-gradient-4"/><linearGradient id="linear-gradient-29" x1="320.32" y1="432.81" x2="447.7" y2="432.81" xlink:href="#linear-gradient-4"/></defs><g class="cls-1"><g id="Layer_2" data-name="Layer 2"><g id="MAIN_OBJECT" data-name="MAIN OBJECT"><path class="cls-2" d="M134.75,56.05C144.58,54.57,802.07-42,796.06,72.19S622.42,156.4,692.21,187.44s143.92-59.62,160-26.32S826.78,276.63,767,333.59,610.75,463,730.46,531.13s111.18,62.11-8.21,62.11S300.65,693.89,219.7,607.48s75.72-20.49,90.46-52.73S131.12,515.83,91,472.69s139.47-26.46,128.66-85.23S-69.65,264,16.52,230.2s180.35-73.69,102.2-84.79S2.6,76,134.75,56.05Z"/><path class="cls-3" d="M730.46,531.13C610.75,463,707.28,390.54,767,333.59S868.2,194.43,852.17,161.12s-90.18,57.35-160,26.32,97.83-1,103.85-115.25S144.58,54.57,134.75,56.05C98.82,61.47,75.49,69.73,62.1,79.11,208.37,69.49,484,56.21,545.52,87.65c84.76,43.28-304.79,137.06-304.79,137.06s238.06-50.5,284.95,36.07,124.44,178.55,25.25,185.76S421.08,378,421.08,378s-77.55,27.05,21.64,90.17,167.72,21.64,158.71,63.12S534.7,603.44,459,562s-20.59-66.73-108.21-57.71c0,0,54.11,10.82,37.88,48.7s-55.91,66.73-92,39.67a257.59,257.59,0,0,1-32.84-28.94c-45.15-3.45-98.72-14.51-44.1,43.8,80.95,86.41,383.16-14.24,502.55-14.24S850.16,599.23,730.46,531.13Z"/><circle class="cls-4" cx="535.91" cy="380.71" r="118.43" transform="translate(-112.24 490.45) rotate(-45)"/><circle class="cls-5" cx="391.33" cy="221.7" r="72.44" transform="translate(57.25 522.84) rotate(-71.57)"/><path class="cls-6" d="M336.92,481.11c-8.41-36.07-97.38,9.61-96.18,6s116.62-83,87.77-97.39-79.36,61.32-78.15,57.71,72.14-123.84,36.07-125c-26.59-.89-34.22,33.47-36.41,51.61-.38,6.74-.87,10.91-.87,10.91s.09-4.43.87-10.91c1.54-26.82,1.51-94.42-36.94-102.11-43.24-8.65-6.78,49.76-.73,59l.73,1.11c.25.36-.06-.07-.73-1.11-7.46-11.08-64.59-94.28-96.65-78.25-19.61,9.81-7.41,24.5,6.2,35.06,11.85,7.41,20.25,13,20.25,13a151.77,151.77,0,0,1-20.25-13c-28.78-18-78-46.43-77.14-30.25.53,10,4.51,20.23,8.41,28.47,63,31,160.23,67.27,166.53,101.52C230.51,446.23,51,429.55,91,472.69c25.88,27.86,115.85,40.51,172.38,54.66C305.22,513.56,340.6,496.87,336.92,481.11Z"/><path class="cls-7" d="M346.93,225.62c.67,8.13.77,15.81-2.42,21a6.9,6.9,0,0,0-.27,6.89c3.91,7.33,4.42,13.8,2.11,19.56-.17,2.84-6.4,5.22-16.45,7.31a7,7,0,0,1-4.73-.68L314.69,274a6.63,6.63,0,0,1-3-3.11c-2-4.68-2.13-11.19,1.13-20.84l9.51-26.22a6.91,6.91,0,0,1,6.51-4.56H340A6.91,6.91,0,0,1,346.93,225.62Z"/><path class="cls-8" d="M344.24,253.47a6.9,6.9,0,0,1,.27-6.89c3.19-5.15,3.09-12.83,2.42-21a6.91,6.91,0,0,0-6.9-6.33h-1l3.57,1.52s2.71,12.62,2.71,17.81-5,9.69-4.29,11.94,3.61,13.08,2.71,17.14-7,9-14.2,9-13.76-4.28-15.78-9,3.15-2.93,10.37-5.86,14-6.32,14.42-7-20.51,2.93-22.77.45,2.26-14,8.35-16.68,14,3.6,13.75-2.26c-.15-3.71-4.54-11.67-7.92-17.07h-1a6.91,6.91,0,0,0-6.51,4.56l-9.51,26.22c-3.26,9.65-3.17,16.16-1.13,20.84a6.63,6.63,0,0,0,3,3.11l10.48,5.64a7,7,0,0,0,4.73.68c10-2.09,16.28-4.47,16.45-7.31C348.66,267.27,348.15,260.8,344.24,253.47Z"/><path class="cls-9" d="M147.25,181.48l14.34,28c7.51,7.78,13.6,13.46,22.35,12.93l23.38-2.72c2.79-3.48,2.57-8.45-8.82-19,0,0,4.12-8.17-5.8-8.69-6-.31-23.85-7.15-23.11-10.42Z"/><path class="cls-10" d="M160.92,209.26c7.51,7.78,13.6,13.46,22.35,12.93l23.37-2.72"/><path class="cls-8" d="M198.5,200.73s3.31-6.63-3.3-8.31a7.61,7.61,0,0,1,.39,5.5c-1.6,4.05-2.74,6.3-2.74,6.3s11,6.16,10.08,10-16,2.61-23.91,2.78-11.47-5-10.77-8.64,19.89-8,21-10.23S171.44,203,170.8,198c-.37-2.8,2.94-7.37,5.89-10.9-4.22-1.94-7.42-4-7.1-5.47l-22.34-.14,14.34,28c7.51,7.78,13.6,13.46,22.35,12.93l23.38-2.72C210.11,216.22,209.89,211.25,198.5,200.73Z"/><path class="cls-11" d="M556.83,127c6.56,4.51,13.34,8.18,21.25,7.53l10-3.76c7.67-1.7,15.29-1.13,22.9,0,6.24-.86,10.26-2.75,8.37-7.41,4.14-5.85,1.63-13.25-3.35-21.22-2.52-3.74-7.07-4.45-12.84-3.35L577,107.19l-32.39,5.58L550.72,129Z"/><path class="cls-12" d="M594.59,99.07s3.61-2.93,7.21,4.51,4.74,15.55,1.81,20.74-17.36,2.93-17.36,2.93-7,4.28-15.11,2.71-11.27-4.74-11.27-4.74a16.33,16.33,0,0,0-12,.68c-6.08,2.93-12.4-8.34-12.4-8.34l7.44-9s13.76-4.06,19.39-3.38l5.64.67s9.69-4,13.75-3.38l4.06.68S591.43,98.62,594.59,99.07Z"/><path class="cls-8" d="M601.41,102.84c-4.47.43-10,1.75-11.41,5.55-1.62,4.47-1.19,7.56-.73,9.1.28.68.43,1.12.43,1.12a5.7,5.7,0,0,1-.43-1.12c-1.16-2.73-4.61-9.46-10.39-8.5-7.21,1.2-9.31,11.72-9.31,11.72s-1.51-11.72-9.92-9.32c-4.68,1.34-6.76,7.78-7.68,13.23a16.68,16.68,0,0,1,7.9.6s3.16,3.16,11.27,4.74,15.11-2.71,15.11-2.71,14.43,2.25,17.36-2.93,1.8-13.3-1.81-20.74C601.67,103.31,601.54,103.08,601.41,102.84Z"/><path class="cls-11" d="M259.82,473c-.33,1.65-6,7.52,2.1,11.13,6.31,9.31,39.31-18.54,40-22.44.32-1.73,16.75-7.82,16.75-7.82,8.91-6.67,2-17.37-10.4-29.47,0,0-28.13,19.42-28.13,21.1S259.82,473,259.82,473Z"/><path class="cls-13" d="M307.31,407.17s7.81,17.43,5.11,18.63S295,437.22,295,437.22a14.2,14.2,0,0,1,2.11,13.53c-2.71,8.12-22.54,25.85-25.85,25.85s-12.93-3.91-13.23-4.81,4.81-15.33,8.12-18.94a15.88,15.88,0,0,1,6.31-4.5s-3.31-5.72-.6-11.73,10.22-13.52,10.22-13.52l-1.8-6Z"/><path class="cls-8" d="M269.29,460.67c1.35-9.47,23-8.12,23-8.12s-12.62-4.05-12.17-12.17c.3-5.54,19.08-14.22,32.41-19-1.34-5.53-5.21-14.17-5.21-14.17l-27.05,9.92,1.8,6s-7.51,7.51-10.22,13.52.6,11.73.6,11.73a15.88,15.88,0,0,0-6.31,4.5c-3.31,3.61-8.42,18-8.12,18.94s9.92,4.81,13.23,4.81c.8,0,2.56-1,4.82-2.72C272.46,470.74,268.53,466,269.29,460.67Z"/><path class="cls-11" d="M304.47,314.35l-19.54,6.7-49.14-3.35-11.17,3.35v9.76l19.82,6.43,16.39,2.24s11.26,13.4,12.93,13.4,39.09-11.17,39.09-11.17Z"/><path class="cls-14" d="M305.61,323.75l-28.88,9.86s-36.31,4.17-39-2.8-12.36-9.23-2-13.11,38,5.58,38,5.58l28.91-11.16Z"/><path class="cls-15" d="M203.4,55.26l-10.05,13.4-46.9,15.63L134.16,110,123,136.78l19,55.84c7.49,8,23.94-.43,40.74-4.28L163.2,141.25l15.63-17.31,24.57,28.48,24.57,57,21.22,11.17-29,111.68,48,106.09,49.13-24.57-43.55-90.46,43.55-90.46,40.21-8.93V207.14L467,172.52s96.05-32.39,93.81-35.74-20.1-57-23.45-54.72-52.49,36.85-52.49,36.85-36.85,11.17-40.2,11.17-97.16,14.52-97.16,14.52c-8.37-22.66-29.7-51.74-57-83.76L276,55.26l3.35-29s-7.81-29-38-25.69-34.62,6.7-39.08,22.34S203.4,55.26,203.4,55.26Z"/><path class="cls-8" d="M163.2,141.25l10.26-11.36c-10.9-16.27-21.1-31.72-21.1-31.72s2.1,22.84,8.42,29.16-8.12,1.8-13.83,2.1,4.81,4.21,9.92,6.61-20.74,2.71-26.45,4.21,14.42,6.61,22.54,4.51,5.11,15.33-1.5,18.94S159,174.22,167.09,176s-3.91,10.22-8.42,12.32c-3.37,1.57,14.55.63,23.84,0l.21,0Z"/><path class="cls-16" d="M313.77,200.37,287,219.29c-3.35,2.37-36.85,1.25-36.85,1.25L228.9,209.37l-38-62.54c-4.16-4.46-3.52-7.6,0-10l26.8-6.8c18.35-6,38.25-15.73,59.19-27.92L297,137.9l5.59,15.63,4.46,7.95Z"/><path class="cls-17" d="M146.45,84.29s1.11,25.69,16.75,39.09,26.8,13.5,26.8,13.5,57.91-13.35,86-34.72c0,0,20.11-26.8,14.52-41.32S276.73,48.9,276.73,48.9L228,70.89s13.4,14.79,0,21.91-34.62,4.89-34.62-24.14C193.35,68.66,153.76,69,146.45,84.29Z"/><path class="cls-18" d="M577.8,189.31V177c-.45-5.57-.58-14.39-3.43-16.94-6.39-1.2-7.21,1.5-5.22,8l-6.67-10.63a7.66,7.66,0,0,0-1.7-1.89L559,154.14a7.48,7.48,0,0,0-8.41-.6c-5.09,3-6.08,5.23-6,7.29-.15,7.24,2.6,12.18,4.73,14.38a10.9,10.9,0,0,1,2.74,4.48l2,6.84c2.18,7.26,4.85,9.89,7.72,10.6Z"/><path class="cls-19" d="M290.51,60.84c-5.58-14.52-13.78-11.94-13.78-11.94L228.86,70.49l-.24,1.17c2.47,3.08,10.64,14.61-.13,20.84,2.24,4.43,5.18,9.28,5.18,9.28s21.64-7.22,28,0-34.27,20.29-48.24,22.09-37.43-2.26-38.33-10.82,28.41-1.35,28.41-1.35-21.19-21.65-14-28a9.64,9.64,0,0,1,5.61-2.45,41.94,41.94,0,0,1-1.74-12.63s-39.59.34-46.9,15.63c0,0,1.11,25.69,16.75,39.09s26.8,13.5,26.8,13.5,57.91-13.35,86-34.72C276,102.16,296.1,75.36,290.51,60.84Z"/><path class="cls-11" d="M239.08,82.84s1.35,4.28-1.36,6.54S223.3,97.27,216.31,95s-12.63-19.16-16.23-21.64S193.31,70,194.44,68s9-12.7,9-12.7l37.25,18.56Z"/><path class="cls-8" d="M240.65,73.15,203.4,54.58h0a26.23,26.23,0,0,0-.16,6.16c.45,3.15,9.47,17.13,13.08,26.82a16.24,16.24,0,0,1,1.19,7.06c7.05,1.35,17.67-3.8,20.22-5.93,2.71-2.25,1.36-6.54,1.36-6.54Z"/><path class="cls-11" d="M543.46,518.16c.56,2.24,3.08,17.06,8.38,22.34s7.24,14.06,7.24,14.06c.23,9.92-19.75,11-22.88,15-3.27,4.2-12,12.11-16.19,14-5.39,2.41-23,2.86-26.24,0-1.5-3.22-1.52-6.23,4.46-8.37l7.82-1.12,21.78-27-2.24-17.06Z"/><path class="cls-20" d="M534.78,523.86A32.22,32.22,0,0,1,540.67,547c.53,9.25-3,16.51-10,22a60,60,0,0,1-15.08,8.93,11.21,11.21,0,0,0-9.49-3.91c4.32-12,11.39-21.18,21.78-27-5.78-4.22-4.43-10.52-2.24-17.06Z"/><path class="cls-21" d="M633.5,356.23c4.31,1.25,2.43,27.92,3.21,33.5-.15,3,1.53,6.35,8.94,10.61,8,1.49,13.19,1.49,17.92-2.79a10.13,10.13,0,0,0,4.74-11.05c.91-2.94-.71-6.41-5.91-8.21,3.35-1.63,5.13-3.68,4.22-6.43-1.78-6.63-4.44-11.55-9.24-12.28L655.7,349Z"/><path class="cls-11" d="M266.43,73.82c.15-1,.42-2,1.38-1.86,3.09.41,8.61-1.32,7.07-3.3l-3.34-12.72,5.19-7L273.2,34,229.65,48.72,228,70.89l5.5,9.81,18.88,8.06c4.78,1.69,10.16-.33,13-6.82Z"/><path class="cls-8" d="M238.48,75.63a31.69,31.69,0,0,0,4.05-8.87s-3.9-10.37-2.25-13.23,27.35-11,28.4-9,.76,8.71,2.86,11.42l5.19-7L273.2,34,229.65,48.72,228,70.89l4.86,8.66A8.62,8.62,0,0,0,238.48,75.63Z"/><path class="cls-22" d="M202.29,55.75s12,25.78,21.22,27.92,14.36-9.52,15.63-14-11.17-18.09,0-20.49S269.85,39,271,41.24c.87,1.74.87,8.64.82,11.61a2.16,2.16,0,0,0,1.21,2h0a2,2,0,0,0,2.73-1c3.38-8.08,5.52-16.62,2.5-27.07,1.52-.15-.23-5.5-3.6-13.45,0,0-27.11,10.65-37.16,10.65s4-19.6,31-15.17c0,0-21.53-19-57.52-1.06a16.22,16.22,0,0,0-8.63,12.07S197.26,46.18,202.29,55.75Z"/><path class="cls-23" d="M646.77,191.5,611,197,556.86,302.06,417.27,276.94,296.65,312.12,307.26,354l106.66-25.13,99.95,46.34-20.1,82.65,27.92,78.73,43-20.66-30.15-66.45,44.11-64.77,21.78-8.38,22.33-25.69,3.36-8.93,3.9,22.34s32.39-14,38.53-10.61c0,0,.56-76.5,0-78.18,0,0,17.31-53,17.31-68.12l-6.14-18.43Z"/><path class="cls-24" d="M559.85,307.61l20.94,46.9s24.85,21.22,36.58,20.1,19.12-12.84,19.12-12.84-10.78-22.94-7.4-22.34-64.31-41.38-64.31-41.38Z"/><path class="cls-25" d="M582,185.36s-17.87,2.23-24.57,11.73L582,258.51l16.18-36.57Z"/><path class="cls-8" d="M311.8,244.29c-21.64,5.17-42,10.34-38.91,10.78,6.31.9,28.86,1.81,22.55,5.41S235,313.69,244,311.88s25.25-5.41,25.25-5.41-28,34.27-21.65,32.46,12.63-9,21.65,2.71,19.83,50.5,16.23,71.24c-1.1,6.31-4.21,13.63-8,20.76l39.79-19.9-43.55-90.46Z"/><path class="cls-8" d="M657.47,175.63c.56-2.23,7.26-35.73,7.26-35.73H643.52c2.4,1.76,4.56,3.92,5.17,6.29,1.58,6.08-4.73,12.85-2.93,18.26s-1.58,12,2,16a13.33,13.33,0,0,1,3.17,8.66l22.15.42v-13.9S656.91,177.87,657.47,175.63Z"/><path class="cls-11" d="M632.89,164.35c-3-.45-7.14-1.72-6.13-2.68l9-10.24c-1.21-7.51.07-5.14,1.06-11.53h27.92s-6.7,33.5-7.26,35.73,15.64,0,15.64,0v13.9l-31.83-.61L643.8,180c0-1.1-9.94,2.25-12-1.56C631.36,174.23,630.6,169.16,632.89,164.35Z"/><path class="cls-26" d="M610.26,239.21c-7.75-.79-15.27-10.84-14-13"/><path class="cls-27" d="M643.15,179.78s-4.3,6.16,11.48,6.61c6.74.19,37.66-6.61,37.66-6.61s10.05-29,7.25-38.53-17.93-25.13-27.95-24.57c0,0-9.46-3.35-12.25,0s11.73,8.93,6.14,12.28-12.84,1.68-17.31-1.67-6.7-6.14-11.72-.56-4.33,13.07-2.66,14.75S659.9,139,661,145.71s-10.63.93-10.61,20.11S643.15,179.78,643.15,179.78Z"/><path class="cls-28" d="M557.42,292.57s24,35.74,46.35,42.44,25.13,6.7,25.13,6.7l4.6-56.4-11.3-40.2s-21.25-9.49-24-14.52-4.45-6.7-10.59,0S554.07,277.5,557.42,292.57Z"/><g class="cls-29"><path class="cls-30" d="M239.14,49.22c.35-.08.7-.15,1.05-.24-.61-.91-4.16-1.83-6.52.19-3.16,2.71-6,6.47-2.71,12.78s.9,15.48-4.36,18-23.44-27.05-24-30.81-.6-10.82.45-10.82,9.62,5.71,7.66,3.46-7.36-5-7.66-9.47.3-16.23,2.55-15,2,8.57,11.87,13.23c0,0-9.91-14.13-6.46-17.89a27.93,27.93,0,0,1,15.63-8,98.65,98.65,0,0,1,11.12-.75s-12.17,3.3-13.22,8.56c-.66,3.31,5.64,5.55,10.4,6.76,2.94-5.49,15.25-13.51,33.54-10.51,0,0-21.53-19-57.52-1.06a16.22,16.22,0,0,0-8.63,12.07s-5,26.42,0,36c0,0,12,25.78,21.22,27.92s14.36-9.52,15.63-14S228,51.62,239.14,49.22Z"/><path class="cls-30" d="M264.18,32.49A194.07,194.07,0,0,1,237,36.85s5.56,1.2,17.74,1.95,17.88-4,19.38-.15c1.28,3.33-.15,13.36-.61,16.3a2,2,0,0,0,2.25-1.16c3.32-7.94,5.43-16.32,2.65-26.51A53.94,53.94,0,0,1,264.18,32.49Z"/></g><path class="cls-8" d="M219,52.18c0,3.24-1.86,5.87-4.15,5.87s-4.16-2.63-4.16-5.87,1.86-5.86,4.16-5.86S219,49,219,52.18Z"/><path class="cls-8" d="M210.66,32.36c0,2.16-.87,3.91-1.95,3.91s-2-1.75-2-3.91.88-3.91,2-3.91S210.66,30.2,210.66,32.36Z"/><path class="cls-8" d="M230,40.44c-.4,1.36-3.14,1.75-6.11.87s-5.06-2.7-4.66-4.06,3.14-1.76,6.12-.87S230.38,39.08,230,40.44Z"/><path class="cls-31" d="M234.14,23.67s-2.33-2.3.43-8.54a19.62,19.62,0,0,1,6.31-7.59s2.28,3.8.75,4.89A6.3,6.3,0,0,0,245.91,8s1.34.22,1.3,2.37c0,0,5.46-4.37,9-4.62l-1,2.73S256.43,4,263.2,4H270L263.2,8.21s10.34-3.1,12.85-1.34l-5.64,2.85s5.5-.83,7.28,3.21l-4.46.88-8.4,3.08,1.62,2.6s-7.26,1-8,.75-9,2.25-9,2.25S236.64,25.59,234.14,23.67Z"/><path class="cls-32" d="M668.17,126.59c-.89-.8-6.94-4.67-7.84-9.6a24.47,24.47,0,0,0-4-9.08s-3.12,5.74-2.08,7.54-3.63-3.39-7.26-3.39-5.57,3.39-5.57,3.39S647,118,647,118.92s-7.27-2.16-9.86-2.17-5.71,2.17-5.71,2.17l10,2-7.54,2.59,7.54.68,17.5,9.36C668.78,135.93,673.63,131.44,668.17,126.59Z"/><path class="cls-8" d="M672.45,166.45c0,3.92-2.71,7.09-6.06,7.09s-6.07-3.17-6.07-7.09,2.72-7.09,6.07-7.09S672.45,162.54,672.45,166.45Z"/><path class="cls-8" d="M681,146.86c0,1.46-1.92,2.63-4.28,2.63s-4.29-1.17-4.29-2.63,1.92-2.63,4.29-2.63S681,145.41,681,146.86Z"/><path class="cls-8" d="M695.8,149.62c0,3-.67,5.38-1.5,5.38s-1.51-2.41-1.51-5.38.68-5.39,1.51-5.39S695.8,146.64,695.8,149.62Z"/><path class="cls-30" d="M272.91,13.93c-2.65-1-6.11-1.84-9.26-.75-5.86,2-9.24,4.51-9.92,4.28s.23-5.18-2-3.83-6.76,6.31-10.14,6.31c-2.29,0-4.57-4.22-5.81-7a15.81,15.81,0,0,0-1.18,2.15c-2.76,6.24-.43,8.54-.43,8.54,2.5,1.92,15.28-1.18,15.28-1.18s8.26-2.5,9-2.25,8-.75,8-.75l-1.62-2.6Z"/><path class="cls-33" d="M227.3,2.44c-7.41,1.29-12.36,2.84-15.88,5.14Z"/><path class="cls-34" d="M560.77,136.78c-1.26-1.9-7.58-20-13.41-34.9-5.53,11.41-16.7,31.32-29.64,37.32-18.49,8.57-50.05,17.13-58.62,7.66s-73.49,33.37-73.49,33.37,9-17.14,7.66-29.31-23,31.56-23,31.56-2.71-21.64-11.27-31.56-11.72-2.25-8.12,2.26,6.63,54,6.63,54L467,172.52S563,140.13,560.77,136.78Z"/><path class="cls-8" d="M313.47,192.85l.3,7.52,3.54,32.45s27.72-23.74,19.61-24.64-15.78,1.81-14.43-11.72,8.11-30.21,2.25-30.21-4.06-8.57-9.47-18.48-13.07,2.7-13.07-8.57.9-41.48-5-36.52-20.32-.52-20.32-.52A57.55,57.55,0,0,1,251.7,127c-18,9-33.81,10.82-32.46,12.62s30.21,1.8,43.28-2.71,15.33,0,17.59,8.12-47.8,21.19-38.33,24.8,45.09-21.64,53.66-6.77,16.68,17.59-3.61,30.21-53.66,14.43-58.16,12.63l-4.51-1.81s.9,6.77,20.74,9.92S313.47,192.85,313.47,192.85Z"/><path class="cls-8" d="M699.54,141.25c-2.68-9.13-16.76-23.88-26.75-24.52a13.81,13.81,0,0,1,2.73,5.34c1.8,7-2,13.75-2,13.75s5.64-1.81,6.76-5.86a12,12,0,0,0,0-7s12,8.79,11,12.4-19.61,5.41-18.94,5.41,11.28-1.13,14.21,1.8-7.67,9-3.39,18.94S668.08,180.9,661.09,182s-8.56,2.48-8.56-2.25-1.36-14.66.9-19.39,11.27-6.09,11.72-12.4-5.19-9.24-13.75-9.47S641,141,637.65,136.72a16.54,16.54,0,0,1-2.87-7.75c-3.16,5.18-2.45,11.05-1,12.51,1.68,1.67,26.11-2.47,27.23,4.24s-10.63.92-10.61,20.1-7.26,14-7.26,14-4.3,6.16,11.48,6.61c6.74.19,37.66-6.61,37.66-6.61S702.34,150.74,699.54,141.25Z"/><path class="cls-8" d="M575.28,222c-4.51-2.71-.91-6.31,2.1-13.83s-5.11-1.2-11.72.9,0-9.31,5.11-14.42c3.19-3.19-5.45,1.11-12.4,4.8l23.62,59,11.48-25.95C587.72,229.26,578.33,223.84,575.28,222Z"/><g class="cls-29"><path class="cls-30" d="M561.22,178a8.67,8.67,0,0,0,.91,10.37l4.27,6.54,11.4-5.57V177c-.45-5.57-.58-14.39-3.43-16.94-6.39-1.2-7.21,1.5-5.22,8C570.76,170.39,564.61,171.89,561.22,178Z"/><path class="cls-30" d="M557.62,160.84c-.23,3.16-9.25,5.19-8.79,8.34s4.95-2.93,12.84-4.28c2.9-.5,4.45-.51,5.35-.21l-4.54-7.23a7.66,7.66,0,0,0-1.7-1.89L559,154.14a7.48,7.48,0,0,0-8.41-.6c-5.09,3-6.08,5.23-6,7.29,0,.2,0,.38,0,.58C550,160.19,557.76,158.77,557.62,160.84Z"/></g><path class="cls-8" d="M623.39,249.35a47.91,47.91,0,0,1-11.74-3c-12.33-4.81-18-11.43-18-11.43A16.33,16.33,0,0,0,596,247.56c4.2,6.31,15.33,19.24,6.31,19.54s-28-11.43-24.65-3.91,41.18,24,35.77,25.25-35.17-10.52-29.16-4.51,31.87,18.33,26.76,18.93S560,280,567.46,290.24s24.35,27.35,40.28,35.17-14.13-.3-13.23,2.1,30.06,11.12,33.67,11.72a2.07,2.07,0,0,1,.88.49l4.44-54.41Z"/><path class="cls-8" d="M513.66,482.31c-6-12-1.81-35.47,8.41-45.09s.6-10.22-6.61-9-2.4-22.85,15-33.67C541,388,563,380.23,578.85,375c-24.72,4.93-52.78,1.2-70.3-2.28l5.32,2.46-20.1,82.65,27.92,78.73L535.35,530C529.2,516.14,517.93,490.86,513.66,482.31Z"/><g class="cls-29"><path class="cls-30" d="M318.67,351.31c22.37-19.44,66.8-57.55,78.36-63.77,15.63-8.42,17.44-4.21,48.7-.61s40.87,10.82,48.69,18,3.61-1.8,6-7.82S528.08,313.38,535.9,323s2.4-3.6.6-15,18.64,18,27,24c6.14,4.38-4-18-10-30.55L417.27,276.94,296.65,312.12,307.26,354Z"/><path class="cls-35" d="M686.23,204.92c-4.07-3.78-9.47-7.94-9.66-3.65-.3,6.91-.9,25.85-4.51,16.83s-3-15.33-17.73-18.94-35.47.91-42.68,8.12c-5.11,5.11-6.75,20.91-7.28,29.7a13.67,13.67,0,0,0,5.89,2.23c7,.72,1.33-23.7,9.14-29.28s26.81-1.68,35.18,3.91a5.14,5.14,0,0,1,.53.44c-1.67,5.4-3.76,13.76-3.49,20.95.45,11.73,6.77,22.1,9.47,37s-15.78,25.7-15.78,25.7a98.11,98.11,0,0,0,9,18c5.41,8.12-7.21,16.68-14.43,17.13s3.61,5.86,13.08,9c5.38,1.79,8.42,6.93,10.06,11,2.45-.33,4.4-.29,5.5.31,0,0,.56-76.5,0-78.18,0,0,.49-1.51,1.3-4.05h0c1.18-3.71,3-9.63,5.06-16.49-.14-.64-.29-1.3-.45-1.95l11.4-45.63C686,206.38,686.12,205.65,686.23,204.92Z"/></g><path class="cls-8" d="M648,396.87c-5.41-3.61,12.85-11.95,12.85-11.95s-3.61-1.12-11.28,1.58-9.24,6.09-10.37,2S637,378.61,640.35,375s16.46-5.86,15.33-6.31-13.52.45-13.75-2,10.14-14.42,10.14-14.42l3.9-1.56L655.7,349l-22.2,7.26c4.31,1.25,2.43,27.92,3.22,33.5-.16,3,1.52,6.35,8.93,10.61,8,1.49,13.19,1.49,17.92-2.79.26-.15.5-.34.74-.51C659.08,398.11,651.41,399.14,648,396.87Z"/><path class="cls-8" d="M520.12,572.79c-2.71.75-6.31-.76-8.57-3.31s-.15-2.71,4.06-7.36,14.28,1,14.28,1c-3.61-6.31-9.32-5.86-9.32-5.86s1.8-2.86,6.76-6a49.6,49.6,0,0,1,11.43-4.95s-7.67-4.06-7.37-8.42c.18-2.63,2.33-8.58,4.1-13-.24-.37-.45-.74-.71-1.1l-9.19,6c-2.19,6.54-3.54,12.84,2.24,17.06-10.39,5.87-17.46,15.08-21.78,27a11.21,11.21,0,0,1,9.49,3.91,59.28,59.28,0,0,0,13.16-7.5Z"/><path class="cls-36" d="M596,484.11c-2.18-1.32,27.06,31.86-37.27,89.57C558.75,573.68,663.35,525,596,484.11Z"/><path class="cls-37" d="M641.11,487.12c-2.18-1.33,27,31.86-37.27,89.57C603.84,576.69,708.44,528,641.11,487.12Z"/><path class="cls-38" d="M338.13,365.38s-.91,50.5,46,95.59,84.76,46,81.15,44.18S348.05,425.8,369.69,360Z"/></g></g></g></svg>