<?xml version="1.0" standalone="no"?>
<!DOCTYPE svg PUBLIC "-//W3C//DTD SVG 20010904//EN"
 "http://www.w3.org/TR/2001/REC-SVG-20010904/DTD/svg10.dtd">
<svg version="1.0" xmlns="http://www.w3.org/2000/svg"
 width="300.000000pt" height="278.000000pt" viewBox="0 0 300.000000 278.000000"
 preserveAspectRatio="xMidYMid meet">

<g transform="translate(0.000000,278.000000) scale(0.100000,-0.100000)"
fill="#000000" stroke="none">
<path d="M1309 2646 c-37 -13 -221 -156 -396 -309 l-102 -88 25 -36 c25 -37
44 -93 44 -131 0 -19 26 0 149 108 82 72 200 172 262 221 63 50 122 103 132
117 44 67 -33 146 -114 118z"/>
<path d="M1700 2440 l0 -120 225 0 225 0 0 -127 0 -128 -123 -43 c-241 -86
-490 -223 -654 -361 l-70 -58 -149 141 c-159 150 -278 256 -286 256 -3 0 -11
-14 -18 -30 -18 -44 -99 -112 -158 -134 -78 -27 -200 -20 -271 16 -62 33 -69
31 -134 -42 -176 -196 -208 -376 -77 -435 62 -28 180 -17 295 27 104 41 270
122 280 138 4 6 11 25 15 42 8 27 6 34 -24 64 -22 22 -44 34 -62 34 -15 0 -84
-27 -153 -59 -69 -32 -150 -66 -179 -74 l-53 -16 27 49 27 49 24 -19 c24 -19
26 -19 71 -1 26 11 81 35 122 55 81 39 125 44 170 21 40 -21 60 -53 60 -98 0
-49 -32 -82 -122 -123 l-64 -29 165 -118 c90 -64 166 -119 168 -120 2 -2 -12
-37 -31 -78 -123 -271 -149 -600 -68 -858 28 -92 103 -141 187 -125 104 19
147 99 110 205 -29 81 -40 218 -28 341 25 251 129 467 323 671 119 125 232
209 401 296 112 59 254 121 274 121 3 0 5 -28 5 -63 l0 -64 -67 -12 c-175 -32
-295 -133 -343 -289 -45 -143 -5 -300 94 -375 56 -43 131 -75 272 -117 219
-65 274 -88 317 -132 30 -32 37 -46 37 -79 0 -115 -105 -165 -296 -140 -105
14 -243 66 -326 122 l-58 39 -55 -110 c-30 -60 -55 -113 -55 -118 0 -15 145
-92 231 -122 112 -39 201 -53 339 -53 289 -1 462 115 500 334 22 125 -15 244
-101 324 -62 58 -124 88 -271 131 -266 77 -289 85 -329 124 -36 34 -39 41 -39
92 0 78 38 121 123 142 l27 6 0 -120 0 -120 135 0 135 0 0 100 0 100 36 -15
c19 -8 55 -28 79 -44 l44 -30 31 55 c16 30 43 78 60 107 l30 54 -88 45 c-48
26 -111 54 -139 63 l-53 17 0 114 0 113 43 11 c99 24 116 32 146 62 59 61 47
144 -28 194 -36 23 -48 26 -101 22 l-60 -4 0 93 0 93 225 0 225 0 0 120 0 120
-585 0 -585 0 0 -120z"/>
<path d="M513 2320 c-174 -35 -266 -197 -193 -341 95 -185 419 -182 509 4 88
181 -98 380 -316 337z"/>
</g>
</svg>
